{
.appVersion = "3109";
DisplayStrings = (
"/SAM4xout/SAM4in"
);
classes = (
{
code = "uni0713.Init uni0713.Medi uni0714.Init uni0714.Medi uni072E.Init uni072E.Medi";
name = class1;
},
{
code = "uni0713.Fina uni0713.Medi uni0714.Fina uni0714.Medi uni072E.Fina uni072E.Medi";
name = class2;
},
{
code = "uni0713.Fina uni0713.Medi uni0713.MediLong uni0714.Fina uni0714.Medi uni0714.MediLong uni072E.Fina uni072E.Medi uni072E.MediLong";
name = class3;
},
{
code = "uni0712.Init uni0712.Medi uni0713.Init uni0713.InitLong uni0713.Medi uni0713.MediLong uni0713.MediWide uni0713.MediWide2 uni0714.Init uni0714.InitLong uni0714.Medi uni0714.MediLong uni0714.MediWide uni0714.MediWide2 uni071A.Init uni071A.Medi uni071F.Init uni071F.Medi uni0721.Init uni0721.Medi uni0722.Init uni0722.Medi uni0723.Init uni0723.Medi uni0724.Init uni0724.Medi uni0725.Init uni0725.Medi uni0726.Init uni0726.Medi uni0727.Init uni0727.Medi uni072B.Init uni072B.Medi uni072D.Init uni072D.Medi uni072E.Init uni072E.InitLong uni072E.Medi uni072E.MediLong uni072E.MediWide uni072E.MediWide2";
name = class4;
},
{
code = "uni071B.Init uni071B.Medi uni071C.Init uni071C.Medi uni0720.Init uni0720.Medi uni074F.Init uni074F.Medi";
name = class6;
},
{

glyphs = (
{
glyphname = .notdef;
lastChange = "2018-09-11 18:35:11 +0000";
layers = (
{
layerId = "5079F400-2279-4A14-BBD5-92ED0538B068";
paths = (
{
closed = 1;
nodes = (
"94 0 LINE",
"505 0 LINE",
"505 714 LINE",
"94 714 LINE"
);
},
{
closed = 1;
nodes = (
"145 51 LINE",
"145 663 LINE",
"454 663 LINE",
"454 51 LINE"
);
}
);
width = 600;
}
);
},
{
glyphname = uni200E;
lastChange = "2018-09-11 18:35:11 +0000";
layers = (
{
layerId = "5079F400-2279-4A14-BBD5-92ED0538B068";
paths = (
{
closed = 1;
nodes = (
"15 0 LINE",
"15 551 LINE",
"136 551 LINE",
"74 491 LINE",
"96 469 LINE",
"195 566 LINE",
"96 662 LINE",
"74 640 LINE",
"136 583 LINE",
"-16 583 LINE",
"-16 0 LINE"
);
}
);
width = 0;
}
);
unicode = 200E;
},
{
glyphname = uni200F;
lastChange = "2018-09-11 18:35:11 +0000";
layers = (
{
layerId = "5079F400-2279-4A14-BBD5-92ED0538B068";
paths = (
{
closed = 1;
nodes = (
"15 0 LINE",
"15 583 LINE",
"-136 583 LINE",
"-75 640 LINE",
"-96 662 LINE",
"-195 566 LINE",
"-96 469 LINE",
"-75 491 LINE",
"-136 551 LINE",
"-16 551 LINE",
"-16 0 LINE"
);
}
);
width = 0;
}
);
unicode = 200F;
},
{
glyphname = uni0710;
lastChange = "2018-09-11 18:35:11 +0000";
layers = (
{
anchors = (
{
name = Anchor6;
position = "{461, -49}";
},
{
name = Anchor8;
position = "{418, 583}";
}
);
layerId = "5079F400-2279-4A14-BBD5-92ED0538B068";
paths = (
{
closed = 1;
nodes = (
"875 126 LINE",
"841 135 OFFCURVE",
"807 149 OFFCURVE",
"772 170 CURVE SMOOTH",
"738 190 OFFCURVE",
"701 212 OFFCURVE",
"661 238 CURVE SMOOTH",
"612 270 OFFCURVE",
"576 292 OFFCURVE",
"519 318 CURVE",
"519 322 LINE",
"695 335 OFFCURVE",
"900 423 OFFCURVE",
"1015 545 CURVE",
"910 661 LINE",
"741 521 OFFCURVE",
"539 456 OFFCURVE",
"296 456 CURVE SMOOTH",
"266 456 OFFCURVE",
"188 457 OFFCURVE",
"95 471 CURVE",
"61 455 OFFCURVE",
"45 422 OFFCURVE",
"45 367 CURVE SMOOTH",
"45 357 OFFCURVE",
"46 324 OFFCURVE",
"56 279 CURVE SMOOTH",
"77 187 OFFCURVE",
"98 86 OFFCURVE",
"111 0 CURVE",
"279 0 LINE",
"267 83 OFFCURVE",
"236 235 OFFCURVE",
"221 291 CURVE",
"237 291 LINE SMOOTH",
"302 291 OFFCURVE",
"362 259 OFFCURVE",
"521 130 CURVE SMOOTH",
"662 15 OFFCURVE",
"741 -16 OFFCURVE",
"792 -22 CURVE"
);
}
);
width = 1015;
}
);
unicode = 0710;
},
{
glyphname = uni0710.SYRJ;
lastChange = "2018-09-11 18:35:11 +0000";
layers = (
{
anchors = (
{
name = Anchor123;
position = "{137, -228}";
},
{
name = Anchor125;
position = "{171, 772}";
}
);
layerId = "5079F400-2279-4A14-BBD5-92ED0538B068";
paths = (
{
closed = 1;
nodes = (
"182 692 LINE",
"71 590 LINE",
"116 545 OFFCURVE",
"134 500 OFFCURVE",
"134 441 CURVE SMOOTH",
"134 397 OFFCURVE",
"117 349 OFFCURVE",
"98 295 CURVE SMOOTH",
"76 231 OFFCURVE",
"62 152 OFFCURVE",
"62 87 CURVE SMOOTH",
"62 10 OFFCURVE",
"79 -62 OFFCURVE",
"119 -123 CURVE",
"137 -123 LINE",
"256 -55 LINE",
"229 5 OFFCURVE",
"219 57 OFFCURVE",
"219 117 CURVE SMOOTH",
"219 154 OFFCURVE",
"225 197 OFFCURVE",
"249 272 CURVE SMOOTH",
"278 363 OFFCURVE",
"292 416 OFFCURVE",
"292 462 CURVE SMOOTH",
"292 562 OFFCURVE",
"247 642 OFFCURVE",
"187 692 CURVE"
);
}
);
width = 348;
}
);
},
{
glyphname = uni0710.SYRN;
lastChange = "2018-09-11 18:35:11 +0000";
layers = (
{
anchors = (
{
name = Anchor66;
position = "{213, -98}";
},
{
name = Anchor68;
position = "{208, 735}";
}
);
layerId = "5079F400-2279-4A14-BBD5-92ED0538B068";
paths = (
{
closed = 1;
nodes = (
"388 0 LINE",
"388 185 LINE",
"355 185 LINE SMOOTH",
"329 185 OFFCURVE",
"279 184 OFFCURVE",
"265 183 CURVE",
"265 187 LINE",
"277 203 OFFCURVE",
"297 235 OFFCURVE",
"314 275 CURVE SMOOTH",
"331 316 OFFCURVE",
"345 366 OFFCURVE",
"345 418 CURVE SMOOTH",
"345 574 OFFCURVE",
"257 641 OFFCURVE",
"154 646 CURVE",
"70 479 LINE",
"173 428 LINE",
"181 416 OFFCURVE",
"187 396 OFFCURVE",
"187 374 CURVE SMOOTH",
"187 348 OFFCURVE",
"180 310 OFFCURVE",
"159 270 CURVE SMOOTH",
"138 229 OFFCURVE",
"104 187 OFFCURVE",
"50 150 CURVE",
"50 0 LINE"
);
}
);
width = 438;
}
);
},
{
glyphname = uni0710.Fina3;
lastChange = "2018-09-11 18:35:11 +0000";
layers = (
{
anchors = (
{
name = Anchor6;
position = "{455, -49}";
},
{
name = Anchor8;
position = "{418, 582}";
}
);
layerId = "5079F400-2279-4A14-BBD5-92ED0538B068";
paths = (
{
closed = 1;
nodes = (
"875 126 LINE",
"841 135 OFFCURVE",
"807 149 OFFCURVE",
"772 170 CURVE SMOOTH",
"738 190 OFFCURVE",
"701 212 OFFCURVE",
"661 238 CURVE SMOOTH",
"612 270 OFFCURVE",
"576 292 OFFCURVE",
"519 318 CURVE",
"519 322 LINE",
"695 335 OFFCURVE",
"900 423 OFFCURVE",
"1015 545 CURVE",
"910 661 LINE",
"741 521 OFFCURVE",
"539 456 OFFCURVE",
"296 456 CURVE SMOOTH",
"266 456 OFFCURVE",
"188 457 OFFCURVE",
"95 471 CURVE",
"61 455 OFFCURVE",
"45 422 OFFCURVE",
"45 367 CURVE SMOOTH",
"45 357 OFFCURVE",
"46 324 OFFCURVE",
"56 279 CURVE SMOOTH",
"77 187 OFFCURVE",
"98 86 OFFCURVE",
"111 0 CURVE",
"279 0 LINE",
"267 83 OFFCURVE",
"236 235 OFFCURVE",
"221 291 CURVE",
"237 291 LINE SMOOTH",
"302 291 OFFCURVE",
"362 259 OFFCURVE",
"521 130 CURVE SMOOTH",
"662 15 OFFCURVE",
"741 -16 OFFCURVE",
"792 -22 CURVE"
);
}
);
width = 1015;
}
);
},
{
glyphname = uni0710.Fina3.SYRJ;
lastChange = "2018-09-11 18:35:11 +0000";
layers = (
{
anchors = (
{
name = Anchor123;
position = "{137, -206}";
},
{
name = Anchor125;
position = "{160, 774}";
}
);
layerId = "5079F400-2279-4A14-BBD5-92ED0538B068";
paths = (
{
closed = 1;
nodes = (
"87 684 LINE",
"87 207 LINE SMOOTH",
"87 91 OFFCURVE",
"68 -4 OFFCURVE",
"44 -60 CURVE",
"174 -116 LINE",
"229 -34 OFFCURVE",
"241 111 OFFCURVE",
"241 175 CURVE SMOOTH",
"241 684 LINE"
);
}
);
width = 321;
}
);
},
{
glyphname = uni0710.Fina3.SYRN;
lastChange = "2018-09-11 18:35:11 +0000";
layers = (
{
anchors = (
{
name = Anchor66;
position = "{213, -98}";
},
{
name = Anchor68;
position = "{207, 733}";
}
);
layerId = "5079F400-2279-4A14-BBD5-92ED0538B068";
paths = (
{
closed = 1;
nodes = (
"388 0 LINE",
"388 185 LINE",
"355 185 LINE SMOOTH",
"329 185 OFFCURVE",
"279 184 OFFCURVE",
"265 183 CURVE",
"265 187 LINE",
"277 203 OFFCURVE",
"297 235 OFFCURVE",
"314 275 CURVE SMOOTH",
"331 316 OFFCURVE",
"345 366 OFFCURVE",
"345 418 CURVE SMOOTH",
"345 574 OFFCURVE",
"257 641 OFFCURVE",
"154 646 CURVE",
"70 479 LINE",
"173 428 LINE",
"181 416 OFFCURVE",
"187 396 OFFCURVE",
"187 374 CURVE SMOOTH",
"187 348 OFFCURVE",
"180 310 OFFCURVE",
"159 270 CURVE SMOOTH",
"138 229 OFFCURVE",
"104 187 OFFCURVE",
"50 150 CURVE",
"50 0 LINE"
);
}
);
width = 438;
}
);
},
{
glyphname = uni0710.Fina2;
lastChange = "2018-09-11 18:35:11 +0000";
layers = (
{
anchors = (
{
name = Anchor6;
position = "{455, -49}";
},
{
name = Anchor8;
position = "{418, 583}";
}
);
layerId = "5079F400-2279-4A14-BBD5-92ED0538B068";
paths = (
{
closed = 1;
nodes = (
"875 126 LINE",
"841 135 OFFCURVE",
"807 149 OFFCURVE",
"772 170 CURVE SMOOTH",
"738 190 OFFCURVE",
"701 212 OFFCURVE",
"661 238 CURVE SMOOTH",
"612 270 OFFCURVE",
"576 292 OFFCURVE",
"519 318 CURVE",
"519 322 LINE",
"695 335 OFFCURVE",
"900 423 OFFCURVE",
"1015 545 CURVE",
"910 661 LINE",
"741 521 OFFCURVE",
"539 456 OFFCURVE",
"296 456 CURVE SMOOTH",
"266 456 OFFCURVE",
"188 457 OFFCURVE",
"95 471 CURVE",
"61 455 OFFCURVE",
"45 422 OFFCURVE",
"45 367 CURVE SMOOTH",
"45 357 OFFCURVE",
"46 324 OFFCURVE",
"56 279 CURVE SMOOTH",
"77 187 OFFCURVE",
"98 86 OFFCURVE",
"111 0 CURVE",
"279 0 LINE",
"267 83 OFFCURVE",
"236 235 OFFCURVE",
"221 291 CURVE",
"237 291 LINE SMOOTH",
"302 291 OFFCURVE",
"362 259 OFFCURVE",
"521 130 CURVE SMOOTH",
"662 15 OFFCURVE",
"741 -16 OFFCURVE",
"792 -22 CURVE"
);
}
);
width = 1015;
}
);
},
{
glyphname = uni0710.Fina2.SYRJ;
lastChange = "2018-09-11 18:35:11 +0000";
layers = (
{
anchors = (
{
name = Anchor123;
position = "{131, -205}";
},
{
name = Anchor125;
position = "{160, 774}";
}
);
layerId = "5079F400-2279-4A14-BBD5-92ED0538B068";
paths = (
{
closed = 1;
nodes = (
"87 684 LINE",
"87 207 LINE SMOOTH",
"87 91 OFFCURVE",
"68 -4 OFFCURVE",
"44 -60 CURVE",
"174 -116 LINE",
"229 -34 OFFCURVE",
"241 111 OFFCURVE",
"241 175 CURVE SMOOTH",
"241 684 LINE"
);
}
);
width = 327;
}
);
},
{
glyphname = uni0710.Fina2.SYRN;
lastChange = "2018-09-11 18:35:11 +0000";
layers = (
{
anchors = (
{
name = Anchor66;
position = "{216, -150}";
},
{
name = Anchor68;
position = "{200, 736}";
}
);
layerId = "5079F400-2279-4A14-BBD5-92ED0538B068";
paths = (
{
closed = 1;
nodes = (
"378 0 LINE",
"378 185 LINE",
"345 185 LINE SMOOTH",
"319 185 OFFCURVE",
"269 184 OFFCURVE",
"255 183 CURVE",
"255 187 LINE",
"279 217 OFFCURVE",
"335 313 OFFCURVE",
"335 418 CURVE SMOOTH",
"335 574 OFFCURVE",
"247 641 OFFCURVE",
"144 646 CURVE",
"60 479 LINE",
"163 428 LINE",
"171 416 OFFCURVE",
"177 397 OFFCURVE",
"177 374 CURVE SMOOTH",
"177 324 OFFCURVE",
"136 231 OFFCURVE",
"76 185 CURVE",
"50 185 LINE",
"50 10 LINE",
"83 0 LINE",
"202 -101 LINE",
"217 -101 LINE",
"220 0 LINE"
);
}
);
width = 428;
}
);
},
{
glyphname = uni0710.Fina1;
lastChange = "2018-09-11 18:35:11 +0000";
layers = (
{
anchors = (
{
name = Anchor6;
position = "{455, -49}";
},
{
name = Anchor8;
position = "{419, 582}";
}
);
layerId = "5079F400-2279-4A14-BBD5-92ED0538B068";
paths = (
{
closed = 1;
nodes = (
"932 0 LINE",
"932 185 LINE",
"895 185 LINE SMOOTH",
"824 185 OFFCURVE",
"751 190 OFFCURVE",
"663 240 CURVE SMOOTH",
"611 269 OFFCURVE",
"569 292 OFFCURVE",
"512 318 CURVE",
"512 322 LINE",
"688 335 OFFCURVE",
"893 423 OFFCURVE",
"1008 545 CURVE",
"903 661 LINE",
"734 521 OFFCURVE",
"532 456 OFFCURVE",
"289 456 CURVE SMOOTH",
"259 456 OFFCURVE",
"181 457 OFFCURVE",
"88 471 CURVE",
"54 455 OFFCURVE",
"38 422 OFFCURVE",
"38 367 CURVE SMOOTH",
"38 357 OFFCURVE",
"39 324 OFFCURVE",
"49 279 CURVE SMOOTH",
"70 185 OFFCURVE",
"91 86 OFFCURVE",
"104 0 CURVE",
"272 0 LINE",
"260 83 OFFCURVE",
"229 230 OFFCURVE",
"214 291 CURVE",
"235 291 LINE SMOOTH",
"286 291 OFFCURVE",
"347 272 OFFCURVE",
"512 137 CURVE SMOOTH",
"674 5 OFFCURVE",
"795 0 OFFCURVE",
"908 0 CURVE SMOOTH"
);
}
);
width = 932;
}
);
},
{
glyphname = uni0710.Fina1.SYRJ;
lastChange = "2018-09-11 18:35:11 +0000";
layers = (
{
anchors = (
{
name = Anchor123;
position = "{131, -205}";
},
{
name = Anchor125;
position = "{160, 774}";
}
);
layerId = "5079F400-2279-4A14-BBD5-92ED0538B068";
paths = (
{
closed = 1;
nodes = (
"87 684 LINE",
"87 207 LINE SMOOTH",
"87 91 OFFCURVE",
"68 -4 OFFCURVE",
"44 -60 CURVE",
"172 -116 LINE",
"201 -73 OFFCURVE",
"218 -16 OFFCURVE",
"228 49 CURVE",
"232 49 LINE",
"254 13 OFFCURVE",
"302 0 OFFCURVE",
"337 0 CURVE",
"337 185 LINE",
"283 185 OFFCURVE",
"252 195 OFFCURVE",
"241 221 CURVE",
"241 227 OFFCURVE",
"241 233 OFFCURVE",
"241 239 CURVE",
"241 684 LINE"
);
}
);
width = 337;
}
);
},
{
glyphname = uni0710.Fina1.SYRN;
lastChange = "2018-09-11 18:35:11 +0000";
layers = (
{
anchors = (
{
name = Anchor66;
position = "{216, -149}";
},
{
name = Anchor68;
position = "{200, 733}";
}
);
layerId = "5079F400-2279-4A14-BBD5-92ED0538B068";
paths = (
{
closed = 1;
nodes = (
"418 0 LINE",
"418 185 LINE",
"345 185 LINE SMOOTH",
"319 185 OFFCURVE",
"269 184 OFFCURVE",
"255 183 CURVE",
"255 187 LINE",
"279 217 OFFCURVE",
"335 313 OFFCURVE",
"335 418 CURVE SMOOTH",
"335 574 OFFCURVE",
"247 641 OFFCURVE",
"144 646 CURVE",
"60 479 LINE",
"163 428 LINE",
"171 416 OFFCURVE",
"177 397 OFFCURVE",
"177 374 CURVE SMOOTH",
"177 324 OFFCURVE",
"136 231 OFFCURVE",
"76 185 CURVE",
"50 185 LINE",
"50 10 LINE",
"83 0 LINE",
"202 -101 LINE",
"217 -101 LINE",
"220 0 LINE"
);
}
);
width = 418;
}
);
},
{
glyphname = uni0710.Medi2;
lastChange = "2018-09-11 18:35:11 +0000";
layers = (
{
anchors = (
{
name = Anchor6;
position = "{454, -49}";
},
{
name = Anchor8;
position = "{420, 586}";
}
);
layerId = "5079F400-2279-4A14-BBD5-92ED0538B068";
paths = (
{
closed = 1;
nodes = (
"932 0 LINE",
"932 185 LINE",
"895 185 LINE SMOOTH",
"824 185 OFFCURVE",
"751 190 OFFCURVE",
"663 240 CURVE SMOOTH",
"611 269 OFFCURVE",
"569 292 OFFCURVE",
"512 318 CURVE",
"512 322 LINE",
"688 335 OFFCURVE",
"893 423 OFFCURVE",
"1008 545 CURVE",
"903 661 LINE",
"734 521 OFFCURVE",
"532 456 OFFCURVE",
"289 456 CURVE SMOOTH",
"259 456 OFFCURVE",
"181 457 OFFCURVE",
"88 471 CURVE",
"54 455 OFFCURVE",
"38 422 OFFCURVE",
"38 367 CURVE SMOOTH",
"38 357 OFFCURVE",
"39 324 OFFCURVE",
"49 279 CURVE SMOOTH",
"70 185 OFFCURVE",
"91 86 OFFCURVE",
"104 0 CURVE",
"272 0 LINE",
"260 83 OFFCURVE",
"229 230 OFFCURVE",
"214 291 CURVE",
"235 291 LINE SMOOTH",
"286 291 OFFCURVE",
"347 272 OFFCURVE",
"512 137 CURVE SMOOTH",
"674 5 OFFCURVE",
"795 0 OFFCURVE",
"908 0 CURVE SMOOTH"
);
}
);
width = 932;
}
);
},
{
glyphname = uni0710.Medi2.SYRJ;
lastChange = "2018-09-11 18:35:11 +0000";
layers = (
{
anchors = (
{
name = Anchor123;
position = "{131, -205}";
},
{
name = Anchor125;
position = "{160, 774}";
}
);
layerId = "5079F400-2279-4A14-BBD5-92ED0538B068";
paths = (
{
closed = 1;
nodes = (
"87 684 LINE",
"87 207 LINE SMOOTH",
"87 91 OFFCURVE",
"68 -4 OFFCURVE",
"44 -60 CURVE",
"172 -116 LINE",
"201 -73 OFFCURVE",
"218 -16 OFFCURVE",
"228 49 CURVE",
"232 49 LINE",
"254 13 OFFCURVE",
"302 0 OFFCURVE",
"337 0 CURVE",
"337 185 LINE",
"283 185 OFFCURVE",
"252 195 OFFCURVE",
"241 221 CURVE",
"241 227 OFFCURVE",
"241 234 OFFCURVE",
"241 240 CURVE",
"241 684 LINE"
);
}
);
width = 337;
}
);
},
{
glyphname = uni0710.Medi2.SYRN;
lastChange = "2018-09-11 18:35:11 +0000";
layers = (
{
anchors = (
{
name = Anchor66;
position = "{216, -150}";
},
{
name = Anchor68;
position = "{200, 736}";
}
);
layerId = "5079F400-2279-4A14-BBD5-92ED0538B068";
paths = (
{
closed = 1;
nodes = (
"428 0 LINE",
"428 185 LINE",
"355 185 LINE SMOOTH",
"329 185 OFFCURVE",
"279 184 OFFCURVE",
"265 183 CURVE",
"265 187 LINE",
"277 203 OFFCURVE",
"297 235 OFFCURVE",
"314 275 CURVE SMOOTH",
"331 316 OFFCURVE",
"345 366 OFFCURVE",
"345 418 CURVE SMOOTH",
"345 574 OFFCURVE",
"257 641 OFFCURVE",
"154 646 CURVE",
"70 479 LINE",
"173 428 LINE",
"181 416 OFFCURVE",
"187 396 OFFCURVE",
"187 374 CURVE SMOOTH",
"187 348 OFFCURVE",
"180 310 OFFCURVE",
"159 270 CURVE SMOOTH",
"138 229 OFFCURVE",
"104 187 OFFCURVE",
"50 150 CURVE",
"50 0 LINE"
);
}
);
width = 428;
}
);
},
{
glyphname = uni0711;
lastChange = "2018-09-11 18:35:11 +0000";
layers = (
{
anchors = (
{
name = _Anchor10;
position = "{0, 540}";
},
{
name = _Anchor8;
position = "{0, 542}";
}
);
layerId = "5079F400-2279-4A14-BBD5-92ED0538B068";
paths = (
{
closed = 1;
nodes = (
"158 599 LINE",
"130 607 OFFCURVE",
"104 623 OFFCURVE",
"75 642 CURVE SMOOTH",
"56 655 OFFCURVE",
"41 663 OFFCURVE",
"18 673 CURVE",
"18 674 LINE",
"86 679 OFFCURVE",
"167 713 OFFCURVE",
"211 760 CURVE",
"171 805 LINE",
"106 750 OFFCURVE",
"28 726 OFFCURVE",
"-65 726 CURVE SMOOTH",
"-77 726 OFFCURVE",
"-108 726 OFFCURVE",
"-139 730 CURVE",
"-151 722 OFFCURVE",
"-155 706 OFFCURVE",
"-155 694 CURVE SMOOTH",
"-155 679 OFFCURVE",
"-153 660 OFFCURVE",
"-149 639 CURVE SMOOTH",
"-145 618 OFFCURVE",
"-139 584 OFFCURVE",
"-135 551 CURVE",
"-74 551 LINE",
"-77 576 OFFCURVE",
"-87 645 OFFCURVE",
"-90 663 CURVE",
"-84 663 LINE SMOOTH",
"-60 663 OFFCURVE",
"-39 650 OFFCURVE",
"21 600 CURVE SMOOTH",
"75 555 OFFCURVE",
"106 544 OFFCURVE",
"126 542 CURVE"
);
}
);
width = 0;
}
);
unicode = 0711;
category = Mark;
subCategory = Nonspacing;
},
{
glyphname = uni0711.SYRJ;
lastChange = "2018-09-11 18:35:11 +0000";
layers = (
{
anchors = (
{
name = _Anchor125;
position = "{0, 542}";
},
{
name = _Anchor127;
position = "{0, 540}";
}
);
layerId = "5079F400-2279-4A14-BBD5-92ED0538B068";
paths = (
{
closed = 1;
nodes = (
"-43 807 LINE",
"-21 788 OFFCURVE",
"-17 772 OFFCURVE",
"-17 753 CURVE SMOOTH",
"-17 736 OFFCURVE",
"-22 718 OFFCURVE",
"-33 687 CURVE SMOOTH",
"-46 650 OFFCURVE",
"-53 621 OFFCURVE",
"-53 591 CURVE SMOOTH",
"-53 565 OFFCURVE",
"-47 540 OFFCURVE",
"-35 517 CURVE",
"23 543 LINE",
"16 562 OFFCURVE",
"13 578 OFFCURVE",
"13 594 CURVE SMOOTH",
"13 613 OFFCURVE",
"14 631 OFFCURVE",
"27 671 CURVE SMOOTH",
"42 716 OFFCURVE",
"48 734 OFFCURVE",
"48 761 CURVE SMOOTH",
"48 794 OFFCURVE",
"38 821 OFFCURVE",
"2 849 CURVE"
);
}
);
width = 0;
}
);
category = Mark;
subCategory = Nonspacing;
},
{
glyphname = uni0711.SYRN;
lastChange = "2018-09-11 18:35:11 +0000";
layers = (
{
anchors = (
{
name = _Anchor68;
position = "{0, 542}";
},
{
name = _Anchor70;
position = "{0, 545}";
}
);
layerId = "5079F400-2279-4A14-BBD5-92ED0538B068";
paths = (
{
closed = 1;
nodes = (
"77 552 LINE",
"77 635 LINE",
"68 635 LINE SMOOTH",
"55 635 OFFCURVE",
"39 634 OFFCURVE",
"24 633 CURVE",
"24 636 LINE",
"35 649 OFFCURVE",
"60 692 OFFCURVE",
"60 737 CURVE SMOOTH",
"60 807 OFFCURVE",
"20 837 OFFCURVE",
"-26 839 CURVE",
"-62 765 LINE",
"-17 742 LINE",
"-13 737 OFFCURVE",
"-11 728 OFFCURVE",
"-11 718 CURVE SMOOTH",
"-11 695 OFFCURVE",
"-20 652 OFFCURVE",
"-68 619 CURVE",
"-68 552 LINE"
);
}
);
width = 0;
}
);
category = Mark;
subCategory = Nonspacing;
},
{
glyphname = uni0712;
lastChange = "2018-09-11 18:35:11 +0000";
layers = (
{
anchors = (
{
name = Anchor2;
position = "{909, 558}";
},
{
name = Anchor4;
position = "{871, -75}";
},
{
name = Anchor6;
position = "{518, -97}";
},
{
name = Anchor8;
position = "{628, 600}";
}
);
layerId = "5079F400-2279-4A14-BBD5-92ED0538B068";
paths = (
{
closed = 1;
nodes = (
"698 0 LINE SMOOTH",
"863 0 OFFCURVE",
"960 61 OFFCURVE",
"960 228 CURVE SMOOTH",
"960 249 OFFCURVE",
"954 306 OFFCURVE",
"949 335 CURVE SMOOTH",
"926 471 OFFCURVE",
"831 507 OFFCURVE",
"724 507 CURVE SMOOTH",
"651 507 OFFCURVE",
"548 502 OFFCURVE",
"535 502 CURVE SMOOTH",
"461 502 OFFCURVE",
"430 505 OFFCURVE",
"363 510 CURVE",
"363 341 LINE",
"413 331 OFFCURVE",
"456 330 OFFCURVE",
"503 330 CURVE SMOOTH",
"553 330 OFFCURVE",
"653 334 OFFCURVE",
"691 334 CURVE SMOOTH",
"749 334 OFFCURVE",
"777 321 OFFCURVE",
"787 288 CURVE SMOOTH",
"791 274 OFFCURVE",
"794 249 OFFCURVE",
"794 236 CURVE SMOOTH",
"794 214 OFFCURVE",
"789 185 OFFCURVE",
"749 185 CURVE SMOOTH",
"366 185 LINE SMOOTH",
"254 185 OFFCURVE",
"187 203 OFFCURVE",
"145 246 CURVE",
"38 128 LINE",
"74 43 OFFCURVE",
"162 0 OFFCURVE",
"315 0 CURVE SMOOTH"
);
}
);
width = 1018;
}
);
unicode = 0712;
},
{
glyphname = uni0712.SYRJ;
lastChange = "2018-09-11 18:35:11 +0000";
layers = (
{
anchors = (
{
name = Anchor119;
position = "{830, 526}";
},
{
name = Anchor121;
position = "{813, -68}";
},
{
name = Anchor123;
position = "{468, -98}";
},
{
name = Anchor125;
position = "{556, 601}";
}
);
layerId = "5079F400-2279-4A14-BBD5-92ED0538B068";
paths = (
{
closed = 1;
nodes = (
"705 0 LINE SMOOTH",
"855 0 OFFCURVE",
"910 99 OFFCURVE",
"910 199 CURVE SMOOTH",
"910 303 OFFCURVE",
"860 380 OFFCURVE",
"784 431 CURVE SMOOTH",
"708 482 OFFCURVE",
"637 501 OFFCURVE",
"543 501 CURVE SMOOTH",
"508 501 OFFCURVE",
"414 492 OFFCURVE",
"359 462 CURVE",
"394 325 LINE",
"432 330 OFFCURVE",
"468 332 OFFCURVE",
"500 332 CURVE SMOOTH",
"649 332 OFFCURVE",
"753 266 OFFCURVE",
"753 214 CURVE SMOOTH",
"753 197 OFFCURVE",
"743 185 OFFCURVE",
"719 185 CURVE SMOOTH",
"324 185 LINE SMOOTH",
"226 185 OFFCURVE",
"194 231 OFFCURVE",
"186 284 CURVE SMOOTH",
"185 291 LINE",
"47 288 LINE",
"45 273 OFFCURVE",
"45 257 OFFCURVE",
"45 251 CURVE SMOOTH",
"45 77 OFFCURVE",
"171 0 OFFCURVE",
"357 0 CURVE SMOOTH"
);
}
);
width = 966;
}
);
},
{
glyphname = uni0712.SYRN;
lastChange = "2018-09-11 18:35:11 +0000";
layers = (
{
anchors = (
{
name = Anchor62;
position = "{814, 565}";
},
{
name = Anchor64;
position = "{777, -81}";
},
{
name = Anchor66;
position = "{441, -93}";
},
{
name = Anchor68;
position = "{549, 597}";
}
);
layerId = "5079F400-2279-4A14-BBD5-92ED0538B068";
paths = (
{
closed = 1;
nodes = (
"694 0 LINE",
"775 126 LINE",
"775 500 LINE",
"530 500 LINE SMOOTH",
"432 500 OFFCURVE",
"335 507 OFFCURVE",
"311 512 CURVE",
"311 343 LINE",
"340 333 OFFCURVE",
"434 325 OFFCURVE",
"537 325 CURVE SMOOTH",
"614 325 LINE",
"614 185 LINE",
"320 185 LINE SMOOTH",
"245 185 OFFCURVE",
"177 188 OFFCURVE",
"132 247 CURVE",
"37 130 LINE",
"61 45 OFFCURVE",
"163 0 OFFCURVE",
"307 0 CURVE SMOOTH"
);
}
);
width = 831;
}
);
},
{
glyphname = uni0712.Fina;
lastChange = "2018-09-11 18:35:11 +0000";
layers = (
{
anchors = (
{
name = Anchor2;
position = "{908, 559}";
},
{
name = Anchor4;
position = "{871, -80}";
},
{
name = Anchor6;
position = "{518, -97}";
},
{
name = Anchor8;
position = "{628, 600}";
}
);
layerId = "5079F400-2279-4A14-BBD5-92ED0538B068";
paths = (
{
closed = 1;
nodes = (
"1032 185 LINE",
"956 185 LINE",
"956 187 LINE SMOOTH",
"959 200 OFFCURVE",
"960 224 OFFCURVE",
"960 242 CURVE SMOOTH",
"960 263 OFFCURVE",
"954 306 OFFCURVE",
"949 335 CURVE SMOOTH",
"926 471 OFFCURVE",
"831 507 OFFCURVE",
"724 507 CURVE SMOOTH",
"651 507 OFFCURVE",
"548 502 OFFCURVE",
"535 502 CURVE SMOOTH",
"461 502 OFFCURVE",
"430 505 OFFCURVE",
"363 510 CURVE",
"363 340 LINE",
"413 330 OFFCURVE",
"455 329 OFFCURVE",
"502 329 CURVE SMOOTH",
"552 329 OFFCURVE",
"653 334 OFFCURVE",
"691 334 CURVE SMOOTH",
"749 334 OFFCURVE",
"777 316 OFFCURVE",
"787 283 CURVE SMOOTH",
"791 269 OFFCURVE",
"794 249 OFFCURVE",
"794 236 CURVE SMOOTH",
"794 214 OFFCURVE",
"789 185 OFFCURVE",
"749 185 CURVE SMOOTH",
"366 185 LINE SMOOTH",
"254 185 OFFCURVE",
"187 203 OFFCURVE",
"145 246 CURVE",
"38 128 LINE",
"74 43 OFFCURVE",
"162 0 OFFCURVE",
"315 0 CURVE SMOOTH",
"1032 0 LINE"
);
}
);
width = 1032;
}
);
},
{
glyphname = uni0712.Fina.SYRJ;
lastChange = "2018-09-11 18:35:11 +0000";
layers = (
{
anchors = (
{
name = Anchor119;
position = "{830, 525}";
},
{
name = Anchor121;
position = "{813, -104}";
},
{
name = Anchor123;
position = "{469, -98}";
},
{
name = Anchor125;
position = "{556, 600}";
}
);
layerId = "5079F400-2279-4A14-BBD5-92ED0538B068";
paths = (
{
closed = 1;
nodes = (
"991 0 LINE",
"991 185 LINE",
"955 185 LINE SMOOTH",
"950 185 OFFCURVE",
"917 185 OFFCURVE",
"908 183 CURVE",
"908 185 LINE SMOOTH",
"909 190 OFFCURVE",
"910 210 OFFCURVE",
"910 213 CURVE SMOOTH",
"910 301 OFFCURVE",
"860 380 OFFCURVE",
"784 431 CURVE SMOOTH",
"708 482 OFFCURVE",
"637 501 OFFCURVE",
"543 501 CURVE SMOOTH",
"508 501 OFFCURVE",
"414 492 OFFCURVE",
"359 462 CURVE",
"394 325 LINE",
"432 330 OFFCURVE",
"468 332 OFFCURVE",
"500 332 CURVE SMOOTH",
"650 332 OFFCURVE",
"753 266 OFFCURVE",
"753 214 CURVE SMOOTH",
"753 197 OFFCURVE",
"743 185 OFFCURVE",
"719 185 CURVE SMOOTH",
"324 185 LINE SMOOTH",
"226 185 OFFCURVE",
"194 231 OFFCURVE",
"186 284 CURVE SMOOTH",
"185 291 LINE",
"47 288 LINE",
"45 273 OFFCURVE",
"45 257 OFFCURVE",
"45 251 CURVE SMOOTH",
"45 77 OFFCURVE",
"171 0 OFFCURVE",
"357 0 CURVE SMOOTH"
);
}
);
width = 991;
}
);
},
{
glyphname = uni0712.Fina.SYRN;
lastChange = "2018-09-11 18:35:11 +0000";
layers = (
{
anchors = (
{
name = Anchor62;
position = "{814, 567}";
},
{
name = Anchor64;
position = "{775, -98}";
},
{
name = Anchor66;
position = "{441, -98}";
},
{
name = Anchor68;
position = "{549, 597}";
}
);
layerId = "5079F400-2279-4A14-BBD5-92ED0538B068";
paths = (
{
closed = 1;
nodes = (
"867 0 LINE",
"867 185 LINE",
"847 185 LINE SMOOTH",
"788 185 OFFCURVE",
"775 206 OFFCURVE",
"775 293 CURVE SMOOTH",
"775 500 LINE",
"530 500 LINE SMOOTH",
"432 500 OFFCURVE",
"335 507 OFFCURVE",
"311 512 CURVE",
"311 343 LINE",
"340 333 OFFCURVE",
"434 325 OFFCURVE",
"537 325 CURVE SMOOTH",
"614 325 LINE",
"614 261 LINE SMOOTH",
"614 240 OFFCURVE",
"617 201 OFFCURVE",
"621 185 CURVE",
"320 185 LINE SMOOTH",
"245 185 OFFCURVE",
"177 188 OFFCURVE",
"132 247 CURVE",
"37 130 LINE",
"61 45 OFFCURVE",
"163 0 OFFCURVE",
"307 0 CURVE SMOOTH",
"616 0 LINE",
"654 81 LINE",
"658 81 LINE",
"700 5 OFFCURVE",
"780 0 OFFCURVE",
"853 0 CURVE SMOOTH"
);
}
);
width = 867;
}
);
},
{
glyphname = uni0712.Medi;
lastChange = "2018-09-11 18:35:11 +0000";
layers = (
{
anchors = (
{
name = Anchor2;
position = "{662, 560}";
},
{
name = Anchor4;
position = "{624, -81}";
},
{
name = Anchor6;
position = "{272, -98}";
},
{
name = Anchor8;
position = "{382, 599}";
}
);
layerId = "5079F400-2279-4A14-BBD5-92ED0538B068";
paths = (
{
closed = 1;
nodes = (
"787 185 LINE",
"711 185 LINE",
"711 187 LINE SMOOTH",
"714 200 OFFCURVE",
"715 224 OFFCURVE",
"715 242 CURVE SMOOTH",
"715 263 OFFCURVE",
"709 306 OFFCURVE",
"704 335 CURVE SMOOTH",
"681 471 OFFCURVE",
"586 507 OFFCURVE",
"479 507 CURVE SMOOTH",
"406 507 OFFCURVE",
"303 502 OFFCURVE",
"290 502 CURVE SMOOTH",
"216 502 OFFCURVE",
"185 505 OFFCURVE",
"118 510 CURVE",
"118 340 LINE",
"168 330 OFFCURVE",
"211 329 OFFCURVE",
"258 329 CURVE SMOOTH",
"308 329 OFFCURVE",
"408 334 OFFCURVE",
"446 334 CURVE SMOOTH",
"504 334 OFFCURVE",
"532 316 OFFCURVE",
"542 283 CURVE SMOOTH",
"546 269 OFFCURVE",
"549 249 OFFCURVE",
"549 236 CURVE SMOOTH",
"549 214 OFFCURVE",
"544 185 OFFCURVE",
"504 185 CURVE SMOOTH",
"0 185 LINE SMOOTH",
"-24 185 OFFCURVE",
"-40 141 OFFCURVE",
"-40 92 CURVE SMOOTH",
"-40 42 OFFCURVE",
"-24 0 OFFCURVE",
"0 0 CURVE SMOOTH",
"787 0 LINE"
);
}
);
width = 787;
}
);
},
{
glyphname = uni0712.Medi.SYRJ;
lastChange = "2018-09-11 18:35:11 +0000";
layers = (
{
anchors = (
{
name = Anchor119;
position = "{539, 526}";
},
{
name = Anchor121;
position = "{528, -104}";
},
{
name = Anchor123;
position = "{237, -98}";
},
{
name = Anchor125;
position = "{252, 600}";
}
);
layerId = "5079F400-2279-4A14-BBD5-92ED0538B068";
paths = (
{
closed = 1;
nodes = (
"707 0 LINE",
"707 185 LINE",
"671 185 LINE SMOOTH",
"666 185 OFFCURVE",
"633 185 OFFCURVE",
"624 183 CURVE",
"624 185 LINE SMOOTH",
"625 190 OFFCURVE",
"626 210 OFFCURVE",
"626 213 CURVE SMOOTH",
"626 301 OFFCURVE",
"575 379 OFFCURVE",
"498 429 CURVE SMOOTH",
"422 479 OFFCURVE",
"348 501 OFFCURVE",
"237 501 CURVE SMOOTH",
"194 501 OFFCURVE",
"100 489 OFFCURVE",
"49 462 CURVE",
"84 325 LINE",
"122 330 OFFCURVE",
"167 332 OFFCURVE",
"204 332 CURVE SMOOTH",
"353 332 OFFCURVE",
"469 266 OFFCURVE",
"469 214 CURVE SMOOTH",
"469 197 OFFCURVE",
"459 185 OFFCURVE",
"435 185 CURVE SMOOTH",
"0 185 LINE SMOOTH",
"-24 185 OFFCURVE",
"-40 141 OFFCURVE",
"-40 92 CURVE SMOOTH",
"-40 42 OFFCURVE",
"-24 0 OFFCURVE",
"0 0 CURVE SMOOTH"
);
}
);
width = 707;
}
);
},
{
glyphname = uni0712.Medi.SYRN;
lastChange = "2018-09-11 18:35:11 +0000";
layers = (
{
anchors = (
{
name = Anchor62;
position = "{589, 565}";
},
{
name = Anchor64;
position = "{547, -97}";
},
{
name = Anchor66;
position = "{214, -94}";
},
{
name = Anchor68;
position = "{323, 598}";
}
);
layerId = "5079F400-2279-4A14-BBD5-92ED0538B068";
paths = (
{
closed = 1;
nodes = (
"640 0 LINE",
"640 185 LINE",
"620 185 LINE SMOOTH",
"561 185 OFFCURVE",
"548 206 OFFCURVE",
"548 293 CURVE SMOOTH",
"548 500 LINE",
"303 500 LINE SMOOTH",
"205 500 OFFCURVE",
"108 507 OFFCURVE",
"84 512 CURVE",
"84 343 LINE",
"113 333 OFFCURVE",
"207 325 OFFCURVE",
"310 325 CURVE SMOOTH",
"387 325 LINE",
"387 261 LINE SMOOTH",
"387 240 OFFCURVE",
"390 201 OFFCURVE",
"394 185 CURVE",
"0 185 LINE SMOOTH",
"-24 185 OFFCURVE",
"-40 141 OFFCURVE",
"-40 92 CURVE SMOOTH",
"-40 42 OFFCURVE",
"-24 0 OFFCURVE",
"0 0 CURVE SMOOTH",
"389 0 LINE",
"427 81 LINE",
"431 81 LINE",
"473 5 OFFCURVE",
"553 0 OFFCURVE",
"626 0 CURVE SMOOTH"
);
}
);
width = 640;
}
);
},
{
glyphname = uni0712.Init;
lastChange = "2018-09-11 18:35:11 +0000";
layers = (
{
anchors = (
{
name = Anchor2;
position = "{661, 559}";
},
{
name = Anchor4;
position = "{625, -81}";
},
{
name = Anchor6;
position = "{271, -98}";
},
{
name = Anchor8;
position = "{383, 600}";
}
);
layerId = "5079F400-2279-4A14-BBD5-92ED0538B068";
paths = (
{
closed = 1;
nodes = (
"453 0 LINE SMOOTH",
"618 0 OFFCURVE",
"715 61 OFFCURVE",
"715 228 CURVE SMOOTH",
"715 249 OFFCURVE",
"709 306 OFFCURVE",
"704 335 CURVE SMOOTH",
"681 471 OFFCURVE",
"586 507 OFFCURVE",
"479 507 CURVE SMOOTH",
"406 507 OFFCURVE",
"303 502 OFFCURVE",
"290 502 CURVE SMOOTH",
"216 502 OFFCURVE",
"185 505 OFFCURVE",
"118 510 CURVE",
"118 340 LINE",
"168 330 OFFCURVE",
"211 329 OFFCURVE",
"258 329 CURVE SMOOTH",
"308 329 OFFCURVE",
"408 334 OFFCURVE",
"446 334 CURVE SMOOTH",
"504 334 OFFCURVE",
"532 321 OFFCURVE",
"542 288 CURVE SMOOTH",
"546 274 OFFCURVE",
"549 249 OFFCURVE",
"549 236 CURVE SMOOTH",
"549 214 OFFCURVE",
"544 185 OFFCURVE",
"504 185 CURVE SMOOTH",
"0 185 LINE SMOOTH",
"-24 185 OFFCURVE",
"-40 141 OFFCURVE",
"-40 92 CURVE SMOOTH",
"-40 42 OFFCURVE",
"-24 0 OFFCURVE",
"0 0 CURVE SMOOTH"
);
}
);
width = 773;
}
);
},
{
glyphname = uni0712.Init.SYRJ;
lastChange = "2018-09-11 18:35:11 +0000";
layers = (
{
anchors = (
{
name = Anchor119;
position = "{540, 525}";
},
{
name = Anchor121;
position = "{528, -68}";
},
{
name = Anchor123;
position = "{232, -98}";
},
{
name = Anchor125;
position = "{252, 600}";
}
);
layerId = "5079F400-2279-4A14-BBD5-92ED0538B068";
paths = (
{
closed = 1;
nodes = (
"421 0 LINE SMOOTH",
"571 0 OFFCURVE",
"626 101 OFFCURVE",
"626 194 CURVE SMOOTH",
"626 304 OFFCURVE",
"575 378 OFFCURVE",
"498 429 CURVE SMOOTH",
"422 479 OFFCURVE",
"328 501 OFFCURVE",
"232 501 CURVE SMOOTH",
"189 501 OFFCURVE",
"100 489 OFFCURVE",
"49 462 CURVE",
"84 323 LINE",
"122 330 OFFCURVE",
"167 332 OFFCURVE",
"204 332 CURVE SMOOTH",
"355 332 OFFCURVE",
"470 265 OFFCURVE",
"470 214 CURVE SMOOTH",
"470 197 OFFCURVE",
"460 185 OFFCURVE",
"436 185 CURVE SMOOTH",
"0 185 LINE SMOOTH",
"-24 185 OFFCURVE",
"-40 141 OFFCURVE",
"-40 92 CURVE SMOOTH",
"-40 42 OFFCURVE",
"-24 0 OFFCURVE",
"0 0 CURVE SMOOTH"
);
}
);
width = 682;
}
);
},
{
glyphname = uni0712.Init.SYRN;
lastChange = "2018-09-11 18:35:11 +0000";
layers = (
{
anchors = (
{
name = Anchor62;
position = "{589, 567}";
},
{
name = Anchor64;
position = "{549, -83}";
},
{
name = Anchor66;
position = "{214, -93}";
},
{
name = Anchor68;
position = "{324, 595}";
}
);
layerId = "5079F400-2279-4A14-BBD5-92ED0538B068";
paths = (
{
closed = 1;
nodes = (
"467 0 LINE",
"548 126 LINE",
"548 500 LINE",
"303 500 LINE SMOOTH",
"205 500 OFFCURVE",
"110 507 OFFCURVE",
"84 512 CURVE",
"84 343 LINE",
"113 333 OFFCURVE",
"207 325 OFFCURVE",
"309 325 CURVE SMOOTH",
"387 325 LINE",
"387 185 LINE",
"0 185 LINE SMOOTH",
"-24 185 OFFCURVE",
"-40 141 OFFCURVE",
"-40 92 CURVE SMOOTH",
"-40 42 OFFCURVE",
"-24 0 OFFCURVE",
"0 0 CURVE SMOOTH"
);
}
);
width = 604;
}
);
},
{
glyphname = uni0713;
lastChange = "2018-09-11 18:35:11 +0000";
layers = (
{
anchors = (
{
name = Anchor2;
position = "{976, 356}";
},
{
name = Anchor4;
position = "{973, -232}";
},
{
name = Anchor6;
position = "{650, -163}";
},
{
name = Anchor8;
position = "{763, 682}";
}
);
layerId = "5079F400-2279-4A14-BBD5-92ED0538B068";
paths = (
{
closed = 1;
nodes = (
"1378 -382 LINE",
"1477 -247 LINE",
"1386 -187 OFFCURVE",
"1307 -133 OFFCURVE",
"1178 -20 CURVE SMOOTH",
"1096 52 OFFCURVE",
"1006 143 OFFCURVE",
"937 222 CURVE SMOOTH",
"808 369 OFFCURVE",
"700 513 OFFCURVE",
"617 631 CURVE",
"458 530 LINE",
"525 430 OFFCURVE",
"608 322 OFFCURVE",
"708 218 CURVE SMOOTH",
"761 162 OFFCURVE",
"820 108 OFFCURVE",
"884 56 CURVE",
"880 50 LINE",
"773 109 OFFCURVE",
"673 142 OFFCURVE",
"578 160 CURVE SMOOTH",
"482 178 OFFCURVE",
"392 182 OFFCURVE",
"302 182 CURVE SMOOTH",
"245 182 OFFCURVE",
"118 170 OFFCURVE",
"38 146 CURVE",
"65 -23 LINE",
"180 -3 OFFCURVE",
"282 0 OFFCURVE",
"341 0 CURVE SMOOTH",
"507 0 OFFCURVE",
"688 -33 OFFCURVE",
"857 -90 CURVE SMOOTH",
"939 -118 OFFCURVE",
"1026 -152 OFFCURVE",
"1117 -205 CURVE SMOOTH",
"1178 -240 OFFCURVE",
"1242 -283 OFFCURVE",
"1308 -331 CURVE SMOOTH"
);
}
);
width = 1243;
}
);
unicode = 0713;
},
{
glyphname = uni0713.SYRJ;
lastChange = "2018-09-11 18:35:11 +0000";
layers = (
{
anchors = (
{
name = Anchor119;
position = "{616, 279}";
},
{
name = Anchor121;
position = "{799, -496}";
},
{
name = Anchor123;
position = "{520, -463}";
},
{
name = Anchor125;
position = "{449, 454}";
}
);
layerId = "5079F400-2279-4A14-BBD5-92ED0538B068";
paths = (
{
closed = 1;
nodes = (
"570 -326 LINE SMOOTH",
"648 -384 OFFCURVE",
"711 -410 OFFCURVE",
"789 -410 CURVE SMOOTH",
"922 -410 OFFCURVE",
"1011 -322 OFFCURVE",
"1011 -216 CURVE SMOOTH",
"1011 -140 OFFCURVE",
"966 -91 OFFCURVE",
"909 -48 CURVE SMOOTH",
"498 257 LINE",
"395 122 LINE",
"826 -190 LINE SMOOTH",
"846 -205 OFFCURVE",
"852 -217 OFFCURVE",
"852 -228 CURVE SMOOTH",
"852 -245 OFFCURVE",
"838 -255 OFFCURVE",
"814 -255 CURVE SMOOTH",
"781 -255 OFFCURVE",
"765 -245 OFFCURVE",
"734 -223 CURVE SMOOTH",
"295 99 LINE SMOOTH",
"244 136 OFFCURVE",
"206 175 OFFCURVE",
"206 226 CURVE SMOOTH",
"206 245 OFFCURVE",
"211 267 OFFCURVE",
"217 281 CURVE",
"94 350 LINE",
"64 318 OFFCURVE",
"45 263 OFFCURVE",
"45 200 CURVE SMOOTH",
"45 93 OFFCURVE",
"107 13 OFFCURVE",
"191 -48 CURVE SMOOTH"
);
}
);
width = 1016;
}
);
},
{
glyphname = uni0713.SYRN;
lastChange = "2018-09-11 18:35:11 +0000";
layers = (
{
anchors = (
{
name = Anchor62;
position = "{795, 378}";
},
{
name = Anchor64;
position = "{654, -91}";
},
{
name = Anchor66;
position = "{385, -98}";
},
{
name = Anchor68;
position = "{417, 798}";
}
);
layerId = "5079F400-2279-4A14-BBD5-92ED0538B068";
paths = (
{
closed = 1;
nodes = (
"979 -240 LINE",
"979 -80 LINE",
"939 -80 LINE",
"515 743 LINE",
"360 661 LINE",
"604 185 LINE",
"320 185 LINE SMOOTH",
"245 185 OFFCURVE",
"177 188 OFFCURVE",
"132 247 CURVE",
"37 130 LINE",
"61 45 OFFCURVE",
"163 0 OFFCURVE",
"307 0 CURVE SMOOTH",
"690 0 LINE",
"728 81 LINE",
"732 81 LINE",
"817 -91 LINE",
"817 -240 LINE"
);
}
);
width = 927;
}
);
},
{
glyphname = uni0713.Fina;
lastChange = "2018-09-11 18:35:11 +0000";
layers = (
{
anchors = (
{
name = Anchor2;
position = "{976, 358}";
},
{
name = Anchor4;
position = "{973, -232}";
},
{
name = Anchor6;
position = "{652, -163}";
},
{
name = Anchor8;
position = "{763, 682}";
}
);
layerId = "5079F400-2279-4A14-BBD5-92ED0538B068";
paths = (
{
closed = 1;
nodes = (
"1378 -382 LINE",
"1477 -247 LINE",
"1386 -187 OFFCURVE",
"1307 -132 OFFCURVE",
"1178 -19 CURVE SMOOTH",
"1142 12 OFFCURVE",
"1106 46 OFFCURVE",
"1070 82 CURVE",
"1070 134 LINE",
"1070 185 LINE",
"970 185 LINE",
"802 375 OFFCURVE",
"699 513 OFFCURVE",
"616 631 CURVE",
"458 530 LINE",
"525 431 OFFCURVE",
"606 327 OFFCURVE",
"705 224 CURVE SMOOTH",
"759 167 OFFCURVE",
"819 111 OFFCURVE",
"884 56 CURVE",
"880 50 LINE",
"773 109 OFFCURVE",
"673 142 OFFCURVE",
"578 160 CURVE SMOOTH",
"482 178 OFFCURVE",
"392 182 OFFCURVE",
"302 182 CURVE SMOOTH",
"245 182 OFFCURVE",
"118 170 OFFCURVE",
"38 146 CURVE",
"65 -23 LINE",
"180 -3 OFFCURVE",
"282 0 OFFCURVE",
"341 0 CURVE SMOOTH",
"507 0 OFFCURVE",
"688 -33 OFFCURVE",
"857 -90 CURVE SMOOTH",
"939 -118 OFFCURVE",
"1026 -153 OFFCURVE",
"1117 -205 CURVE SMOOTH",
"1178 -240 OFFCURVE",
"1242 -283 OFFCURVE",
"1308 -331 CURVE SMOOTH"
);
}
);
width = 1070;
}
);
},
{
glyphname = uni0713.Fina.SYRJ;
lastChange = "2018-09-11 18:35:11 +0000";
layers = (
{
anchors = (
{
name = Anchor119;
position = "{616, 279}";
},
{
name = Anchor121;
position = "{799, -496}";
},
{
name = Anchor123;
position = "{520, -463}";
},
{
name = Anchor125;
position = "{449, 454}";
}
);
layerId = "5079F400-2279-4A14-BBD5-92ED0538B068";
paths = (
{
closed = 1;
nodes = (
"570 -326 LINE SMOOTH",
"648 -384 OFFCURVE",
"711 -410 OFFCURVE",
"789 -410 CURVE SMOOTH",
"922 -410 OFFCURVE",
"1011 -322 OFFCURVE",
"1011 -216 CURVE SMOOTH",
"1011 -140 OFFCURVE",
"966 -91 OFFCURVE",
"909 -48 CURVE SMOOTH",
"893 -36 LINE SMOOTH",
"877 -24 OFFCURVE",
"822 10 OFFCURVE",
"790 28 CURVE",
"800 39 LINE",
"843 18 OFFCURVE",
"884 0 OFFCURVE",
"916 0 CURVE SMOOTH",
"921 0 LINE",
"921 185 LINE",
"596 185 LINE",
"498 257 LINE",
"395 122 LINE",
"826 -190 LINE SMOOTH",
"846 -205 OFFCURVE",
"852 -217 OFFCURVE",
"852 -228 CURVE SMOOTH",
"852 -245 OFFCURVE",
"838 -255 OFFCURVE",
"814 -255 CURVE SMOOTH",
"781 -255 OFFCURVE",
"765 -245 OFFCURVE",
"734 -223 CURVE SMOOTH",
"295 99 LINE SMOOTH",
"244 136 OFFCURVE",
"206 175 OFFCURVE",
"206 226 CURVE SMOOTH",
"206 245 OFFCURVE",
"211 267 OFFCURVE",
"217 281 CURVE",
"94 350 LINE",
"64 318 OFFCURVE",
"45 263 OFFCURVE",
"45 200 CURVE SMOOTH",
"45 93 OFFCURVE",
"107 13 OFFCURVE",
"191 -48 CURVE SMOOTH"
);
}
);
width = 921;
}
);
},
{
glyphname = uni0713.Fina.SYRN;
lastChange = "2018-09-11 18:35:11 +0000";
layers = (
{
anchors = (
{
name = Anchor62;
position = "{795, 377}";
},
{
name = Anchor64;
position = "{615, -93}";
},
{
name = Anchor66;
position = "{365, -98}";
},
{
name = Anchor68;
position = "{418, 798}";
}
);
layerId = "5079F400-2279-4A14-BBD5-92ED0538B068";
paths = (
{
closed = 1;
nodes = (
"905 -240 LINE",
"905 -80 LINE",
"848 -80 LINE",
"810 0 LINE",
"821 0 LINE",
"821 185 LINE",
"810 185 OFFCURVE",
"798 195 OFFCURVE",
"774 241 CURVE SMOOTH",
"515 743 LINE",
"360 661 LINE",
"604 185 LINE",
"320 185 LINE SMOOTH",
"245 185 OFFCURVE",
"177 188 OFFCURVE",
"132 247 CURVE",
"37 130 LINE",
"61 45 OFFCURVE",
"163 0 OFFCURVE",
"307 0 CURVE SMOOTH",
"616 0 LINE",
"654 81 LINE",
"658 81 LINE",
"743 -91 LINE",
"743 -240 LINE"
);
}
);
width = 821;
}
);
},
{
glyphname = uni0713.Medi;
lastChange = "2018-09-11 18:35:11 +0000";
layers = (
{
anchors = (
{
name = Anchor2;
position = "{571, 356}";
},
{
name = Anchor4;
position = "{509, -230}";
},
{
name = Anchor6;
position = "{249, -159}";
},
{
name = Anchor8;
position = "{358, 682}";
}
);
layerId = "5079F400-2279-4A14-BBD5-92ED0538B068";
paths = (
{
closed = 1;
nodes = (
"973 -382 LINE",
"1072 -247 LINE",
"981 -187 OFFCURVE",
"902 -133 OFFCURVE",
"773 -20 CURVE SMOOTH",
"737 11 OFFCURVE",
"701 45 OFFCURVE",
"665 81 CURVE",
"665 133 LINE",
"665 185 LINE",
"565 185 LINE",
"397 375 OFFCURVE",
"294 513 OFFCURVE",
"211 631 CURVE",
"53 530 LINE",
"120 430 OFFCURVE",
"202 323 OFFCURVE",
"302 219 CURVE SMOOTH",
"355 163 OFFCURVE",
"414 108 OFFCURVE",
"479 56 CURVE",
"475 50 LINE",
"400 96 OFFCURVE",
"328 127 OFFCURVE",
"262 147 CURVE SMOOTH",
"152 181 OFFCURVE",
"59 185 OFFCURVE",
"0 185 CURVE SMOOTH",
"-24 185 OFFCURVE",
"-40 141 OFFCURVE",
"-40 92 CURVE SMOOTH",
"-40 42 OFFCURVE",
"-24 0 OFFCURVE",
"0 0 CURVE SMOOTH",
"121 0 OFFCURVE",
"244 -22 OFFCURVE",
"362 -58 CURVE SMOOTH",
"487 -96 OFFCURVE",
"606 -145 OFFCURVE",
"712 -205 CURVE SMOOTH",
"773 -239 OFFCURVE",
"837 -283 OFFCURVE",
"903 -331 CURVE SMOOTH"
);
}
);
width = 665;
}
);
},
{
glyphname = uni0713.Medi.SYRJ;
lastChange = "2018-09-11 18:35:11 +0000";
layers = (
{
anchors = (
{
name = Anchor119;
position = "{510, 304}";
},
{
name = Anchor121;
position = "{727, -493}";
},
{
name = Anchor123;
position = "{447, -462}";
},
{
name = Anchor125;
position = "{343, 478}";
}
);
layerId = "5079F400-2279-4A14-BBD5-92ED0538B068";
paths = (
{
closed = 1;
nodes = (
"391 282 LINE",
"288 147 LINE",
"753 -190 LINE SMOOTH",
"773 -205 OFFCURVE",
"779 -217 OFFCURVE",
"779 -228 CURVE SMOOTH",
"779 -245 OFFCURVE",
"765 -255 OFFCURVE",
"741 -255 CURVE SMOOTH",
"708 -255 OFFCURVE",
"692 -245 OFFCURVE",
"661 -223 CURVE SMOOTH",
"237 88 LINE SMOOTH",
"162 143 OFFCURVE",
"102 185 OFFCURVE",
"21 185 CURVE SMOOTH",
"0 185 LINE SMOOTH",
"-24 185 OFFCURVE",
"-40 141 OFFCURVE",
"-40 92 CURVE SMOOTH",
"-40 42 OFFCURVE",
"-24 0 OFFCURVE",
"0 0 CURVE SMOOTH",
"5 0 LINE SMOOTH",
"50 0 OFFCURVE",
"82 -22 OFFCURVE",
"115 -46 CURVE SMOOTH",
"497 -326 LINE SMOOTH",
"575 -383 OFFCURVE",
"636 -410 OFFCURVE",
"716 -410 CURVE SMOOTH",
"849 -410 OFFCURVE",
"938 -322 OFFCURVE",
"938 -216 CURVE SMOOTH",
"938 -140 OFFCURVE",
"893 -91 OFFCURVE",
"836 -48 CURVE SMOOTH",
"820 -36 LINE SMOOTH",
"804 -24 OFFCURVE",
"749 10 OFFCURVE",
"717 28 CURVE",
"727 39 LINE",
"770 18 OFFCURVE",
"811 0 OFFCURVE",
"843 0 CURVE SMOOTH",
"848 0 LINE",
"848 185 LINE",
"523 185 LINE"
);
}
);
width = 848;
}
);
},
{
glyphname = uni0713.Medi.SYRN;
lastChange = "2018-09-11 18:35:11 +0000";
layers = (
{
anchors = (
{
name = Anchor62;
position = "{429, 377}";
},
{
name = Anchor64;
position = "{249, -90}";
},
{
name = Anchor66;
position = "{128, -98}";
},
{
name = Anchor68;
position = "{52, 798}";
}
);
layerId = "5079F400-2279-4A14-BBD5-92ED0538B068";
paths = (
{
closed = 1;
nodes = (
"540 -240 LINE",
"540 -80 LINE",
"483 -80 LINE",
"445 0 LINE",
"456 0 LINE",
"456 185 LINE",
"445 185 OFFCURVE",
"433 195 OFFCURVE",
"409 241 CURVE SMOOTH",
"150 743 LINE",
"-5 661 LINE",
"239 185 LINE",
"0 185 LINE SMOOTH",
"-24 185 OFFCURVE",
"-40 141 OFFCURVE",
"-40 92 CURVE SMOOTH",
"-40 42 OFFCURVE",
"-24 0 OFFCURVE",
"0 0 CURVE SMOOTH",
"251 0 LINE",
"289 81 LINE",
"293 81 LINE",
"378 -91 LINE",
"378 -240 LINE"
);
}
);
width = 456;
}
);
},
{
glyphname = uni0713.Init;
lastChange = "2018-09-11 18:35:11 +0000";
layers = (
{
anchors = (
{
name = Anchor2;
position = "{573, 355}";
},
{
name = Anchor4;
position = "{509, -232}";
},
{
name = Anchor6;
position = "{249, -159}";
},
{
name = Anchor8;
position = "{358, 682}";
}
);
layerId = "5079F400-2279-4A14-BBD5-92ED0538B068";
paths = (
{
closed = 1;
nodes = (
"973 -382 LINE",
"1072 -247 LINE",
"981 -187 OFFCURVE",
"902 -132 OFFCURVE",
"773 -19 CURVE SMOOTH",
"691 53 OFFCURVE",
"601 144 OFFCURVE",
"532 223 CURVE SMOOTH",
"403 370 OFFCURVE",
"294 513 OFFCURVE",
"211 631 CURVE",
"53 530 LINE",
"120 430 OFFCURVE",
"202 323 OFFCURVE",
"303 218 CURVE SMOOTH",
"356 163 OFFCURVE",
"415 108 OFFCURVE",
"479 56 CURVE",
"475 50 LINE",
"403 94 OFFCURVE",
"334 124 OFFCURVE",
"271 144 CURVE SMOOTH",
"157 180 OFFCURVE",
"60 185 OFFCURVE",
"0 185 CURVE SMOOTH",
"-24 185 OFFCURVE",
"-40 141 OFFCURVE",
"-40 92 CURVE SMOOTH",
"-40 42 OFFCURVE",
"-24 0 OFFCURVE",
"0 0 CURVE SMOOTH",
"121 0 OFFCURVE",
"244 -22 OFFCURVE",
"362 -58 CURVE SMOOTH",
"487 -96 OFFCURVE",
"606 -145 OFFCURVE",
"712 -205 CURVE SMOOTH",
"773 -239 OFFCURVE",
"837 -283 OFFCURVE",
"903 -331 CURVE SMOOTH"
);
}
);
width = 838;
}
);
},
{
glyphname = uni0713.Init.SYRJ;
lastChange = "2018-09-11 18:35:11 +0000";
layers = (
{
anchors = (
{
name = Anchor119;
position = "{495, 313}";
},
{
name = Anchor121;
position = "{728, -496}";
},
{
name = Anchor123;
position = "{449, -463}";
},
{
name = Anchor125;
position = "{330, 488}";
}
);
layerId = "5079F400-2279-4A14-BBD5-92ED0538B068";
paths = (
{
closed = 1;
nodes = (
"377 291 LINE",
"274 156 LINE",
"753 -190 LINE SMOOTH",
"773 -205 OFFCURVE",
"779 -217 OFFCURVE",
"779 -228 CURVE SMOOTH",
"779 -245 OFFCURVE",
"765 -255 OFFCURVE",
"741 -255 CURVE SMOOTH",
"708 -255 OFFCURVE",
"692 -245 OFFCURVE",
"661 -223 CURVE SMOOTH",
"237 88 LINE SMOOTH",
"162 143 OFFCURVE",
"102 185 OFFCURVE",
"21 185 CURVE SMOOTH",
"0 185 LINE SMOOTH",
"-24 185 OFFCURVE",
"-40 141 OFFCURVE",
"-40 92 CURVE SMOOTH",
"-40 42 OFFCURVE",
"-24 0 OFFCURVE",
"0 0 CURVE SMOOTH",
"5 0 LINE SMOOTH",
"50 0 OFFCURVE",
"82 -22 OFFCURVE",
"115 -46 CURVE SMOOTH",
"497 -326 LINE SMOOTH",
"575 -383 OFFCURVE",
"636 -410 OFFCURVE",
"716 -410 CURVE SMOOTH",
"849 -410 OFFCURVE",
"938 -322 OFFCURVE",
"938 -216 CURVE SMOOTH",
"938 -140 OFFCURVE",
"893 -90 OFFCURVE",
"836 -48 CURVE SMOOTH"
);
}
);
width = 943;
}
);
},
{
glyphname = uni0713.Init.SYRN;
lastChange = "2018-09-11 18:35:11 +0000";
layers = (
{
anchors = (
{
name = Anchor62;
position = "{429, 377}";
},
{
name = Anchor64;
position = "{278, -91}";
},
{
name = Anchor66;
position = "{129, -98}";
},
{
name = Anchor68;
position = "{53, 799}";
}
);
layerId = "5079F400-2279-4A14-BBD5-92ED0538B068";
paths = (
{
closed = 1;
nodes = (
"614 -240 LINE",
"614 -80 LINE",
"574 -80 LINE",
"150 743 LINE",
"-5 661 LINE",
"239 185 LINE",
"0 185 LINE SMOOTH",
"-24 185 OFFCURVE",
"-40 141 OFFCURVE",
"-40 92 CURVE SMOOTH",
"-40 42 OFFCURVE",
"-24 0 OFFCURVE",
"0 0 CURVE SMOOTH",
"325 0 LINE",
"363 81 LINE",
"367 81 LINE",
"452 -91 LINE",
"452 -240 LINE"
);
}
);
width = 562;
}
);
},
{
glyphname = uni0714;
lastChange = "2018-09-11 18:35:11 +0000";
layers = (
{
anchors = (
{
name = Anchor6;
position = "{650, -162}";
},
{
name = Anchor8;
position = "{713, 684}";
}
);
layerId = "5079F400-2279-4A14-BBD5-92ED0538B068";
paths = (
{
closed = 1;
nodes = (
"1378 -382 LINE",
"1477 -247 LINE",
"1386 -187 OFFCURVE",
"1307 -133 OFFCURVE",
"1178 -20 CURVE SMOOTH",
"1096 52 OFFCURVE",
"1006 143 OFFCURVE",
"937 222 CURVE SMOOTH",
"808 369 OFFCURVE",
"700 513 OFFCURVE",
"617 631 CURVE",
"458 530 LINE",
"525 430 OFFCURVE",
"608 322 OFFCURVE",
"708 218 CURVE SMOOTH",
"761 162 OFFCURVE",
"820 108 OFFCURVE",
"884 56 CURVE",
"880 50 LINE",
"773 109 OFFCURVE",
"673 142 OFFCURVE",
"578 160 CURVE SMOOTH",
"482 178 OFFCURVE",
"392 182 OFFCURVE",
"302 182 CURVE SMOOTH",
"245 182 OFFCURVE",
"118 170 OFFCURVE",
"38 146 CURVE",
"65 -23 LINE",
"180 -3 OFFCURVE",
"282 0 OFFCURVE",
"341 0 CURVE SMOOTH",
"507 0 OFFCURVE",
"688 -33 OFFCURVE",
"857 -90 CURVE SMOOTH",
"939 -118 OFFCURVE",
"1026 -153 OFFCURVE",
"1117 -205 CURVE SMOOTH",
"1178 -240 OFFCURVE",
"1242 -283 OFFCURVE",
"1308 -331 CURVE SMOOTH"
);
},
{
closed = 1;
nodes = (
"498 230 OFFCURVE",
"535 249 OFFCURVE",
"535 297 CURVE SMOOTH",
"535 347 OFFCURVE",
"498 365 OFFCURVE",
"460 365 CURVE SMOOTH",
"422 365 OFFCURVE",
"386 347 OFFCURVE",
"386 297 CURVE SMOOTH",
"386 249 OFFCURVE",
"422 230 OFFCURVE",
"460 230 CURVE SMOOTH"
);
}
);
width = 1243;
}
);
unicode = 0714;
},
{
glyphname = uni0714.SYRJ;
lastChange = "2018-09-11 18:35:11 +0000";
layers = (
{
anchors = (
{
name = Anchor119;
position = "{617, 279}";
},
{
name = Anchor121;
position = "{800, -498}";
},
{
name = Anchor123;
position = "{520, -461}";
},
{
name = Anchor125;
position = "{449, 453}";
}
);
layerId = "5079F400-2279-4A14-BBD5-92ED0538B068";
paths = (
{
closed = 1;
nodes = (
"540 -117 OFFCURVE",
"570 -132 OFFCURVE",
"601 -132 CURVE SMOOTH",
"632 -132 OFFCURVE",
"663 -117 OFFCURVE",
"663 -77 CURVE SMOOTH",
"663 -36 OFFCURVE",
"632 -21 OFFCURVE",
"601 -21 CURVE SMOOTH",
"570 -21 OFFCURVE",
"540 -36 OFFCURVE",
"540 -77 CURVE SMOOTH"
);
},
{
closed = 1;
nodes = (
"570 -326 LINE SMOOTH",
"648 -384 OFFCURVE",
"711 -410 OFFCURVE",
"789 -410 CURVE SMOOTH",
"922 -410 OFFCURVE",
"1011 -322 OFFCURVE",
"1011 -216 CURVE SMOOTH",
"1011 -140 OFFCURVE",
"966 -91 OFFCURVE",
"909 -48 CURVE SMOOTH",
"498 257 LINE",
"395 122 LINE",
"826 -190 LINE SMOOTH",
"846 -205 OFFCURVE",
"852 -217 OFFCURVE",
"852 -228 CURVE SMOOTH",
"852 -245 OFFCURVE",
"838 -255 OFFCURVE",
"814 -255 CURVE SMOOTH",
"781 -255 OFFCURVE",
"765 -245 OFFCURVE",
"734 -223 CURVE SMOOTH",
"295 99 LINE SMOOTH",
"244 136 OFFCURVE",
"206 175 OFFCURVE",
"206 226 CURVE SMOOTH",
"206 245 OFFCURVE",
"211 267 OFFCURVE",
"217 281 CURVE",
"94 350 LINE",
"64 318 OFFCURVE",
"45 263 OFFCURVE",
"45 200 CURVE SMOOTH",
"45 93 OFFCURVE",
"107 13 OFFCURVE",
"191 -48 CURVE SMOOTH"
);
}
);
width = 1016;
}
);
},
{
glyphname = uni0714.SYRN;
lastChange = "2018-09-11 18:35:11 +0000";
layers = (
{
anchors = (
{
name = Anchor62;
position = "{798, 378}";
},
{
name = Anchor64;
position = "{654, -89}";
},
{
name = Anchor66;
position = "{385, -98}";
},
{
name = Anchor68;
position = "{417, 798}";
}
);
layerId = "5079F400-2279-4A14-BBD5-92ED0538B068";
paths = (
{
closed = 1;
nodes = (
"979 -240 LINE",
"979 -80 LINE",
"939 -80 LINE",
"515 743 LINE",
"360 661 LINE",
"604 185 LINE",
"320 185 LINE SMOOTH",
"245 185 OFFCURVE",
"177 188 OFFCURVE",
"132 247 CURVE",
"37 130 LINE",
"61 45 OFFCURVE",
"163 0 OFFCURVE",
"307 0 CURVE SMOOTH",
"690 0 LINE",
"728 81 LINE",
"732 81 LINE",
"817 -91 LINE",
"817 -240 LINE"
);
},
{
closed = 1;
nodes = (
"457 236 LINE",
"457 375 LINE",
"316 375 LINE",
"316 236 LINE"
);
}
);
width = 927;
}
);
},
{
glyphname = uni0714.Fina;
lastChange = "2018-09-11 18:35:11 +0000";
layers = (
{
anchors = (
{
name = Anchor6;
position = "{652, -163}";
},
{
name = Anchor8;
position = "{763, 682}";
}
);
layerId = "5079F400-2279-4A14-BBD5-92ED0538B068";
paths = (
{
closed = 1;
nodes = (
"1378 -382 LINE",
"1477 -247 LINE",
"1386 -187 OFFCURVE",
"1307 -132 OFFCURVE",
"1178 -19 CURVE SMOOTH",
"1142 12 OFFCURVE",
"1106 46 OFFCURVE",
"1070 82 CURVE",
"1070 134 LINE",
"1070 185 LINE",
"970 185 LINE",
"802 375 OFFCURVE",
"699 513 OFFCURVE",
"616 631 CURVE",
"458 530 LINE",
"525 431 OFFCURVE",
"606 327 OFFCURVE",
"705 224 CURVE SMOOTH",
"759 167 OFFCURVE",
"819 111 OFFCURVE",
"884 56 CURVE",
"880 50 LINE",
"773 109 OFFCURVE",
"673 142 OFFCURVE",
"578 160 CURVE SMOOTH",
"482 178 OFFCURVE",
"392 182 OFFCURVE",
"302 182 CURVE SMOOTH",
"245 182 OFFCURVE",
"118 170 OFFCURVE",
"38 146 CURVE",
"65 -23 LINE",
"180 -3 OFFCURVE",
"282 0 OFFCURVE",
"341 0 CURVE SMOOTH",
"507 0 OFFCURVE",
"688 -33 OFFCURVE",
"857 -90 CURVE SMOOTH",
"939 -118 OFFCURVE",
"1026 -153 OFFCURVE",
"1117 -205 CURVE SMOOTH",
"1178 -240 OFFCURVE",
"1242 -283 OFFCURVE",
"1308 -331 CURVE SMOOTH"
);
},
{
closed = 1;
nodes = (
"498 230 OFFCURVE",
"535 249 OFFCURVE",
"535 297 CURVE SMOOTH",
"535 347 OFFCURVE",
"498 365 OFFCURVE",
"460 365 CURVE SMOOTH",
"422 365 OFFCURVE",
"386 347 OFFCURVE",
"386 297 CURVE SMOOTH",
"386 249 OFFCURVE",
"422 230 OFFCURVE",
"460 230 CURVE SMOOTH"
);
}
);
width = 1070;
}
);
},
{
glyphname = uni0714.Fina.SYRJ;
lastChange = "2018-09-11 18:35:11 +0000";
layers = (
{
anchors = (
{
name = Anchor119;
position = "{616, 279}";
},
{
name = Anchor121;
position = "{799, -496}";
},
{
name = Anchor123;
position = "{520, -463}";
},
{
name = Anchor125;
position = "{448, 455}";
}
);
layerId = "5079F400-2279-4A14-BBD5-92ED0538B068";
paths = (
{
closed = 1;
nodes = (
"540 -117 OFFCURVE",
"570 -132 OFFCURVE",
"601 -132 CURVE SMOOTH",
"632 -132 OFFCURVE",
"663 -117 OFFCURVE",
"663 -77 CURVE SMOOTH",
"663 -36 OFFCURVE",
"632 -21 OFFCURVE",
"601 -21 CURVE SMOOTH",
"570 -21 OFFCURVE",
"540 -36 OFFCURVE",
"540 -77 CURVE SMOOTH"
);
},
{
closed = 1;
nodes = (
"570 -326 LINE SMOOTH",
"648 -384 OFFCURVE",
"711 -410 OFFCURVE",
"789 -410 CURVE SMOOTH",
"922 -410 OFFCURVE",
"1011 -322 OFFCURVE",
"1011 -216 CURVE SMOOTH",
"1011 -140 OFFCURVE",
"966 -91 OFFCURVE",
"909 -48 CURVE SMOOTH",
"893 -36 LINE SMOOTH",
"877 -24 OFFCURVE",
"822 10 OFFCURVE",
"790 28 CURVE",
"800 39 LINE",
"843 18 OFFCURVE",
"884 0 OFFCURVE",
"916 0 CURVE SMOOTH",
"921 0 LINE",
"921 185 LINE",
"596 185 LINE",
"498 257 LINE",
"395 122 LINE",
"826 -190 LINE SMOOTH",
"846 -205 OFFCURVE",
"852 -217 OFFCURVE",
"852 -228 CURVE SMOOTH",
"852 -245 OFFCURVE",
"838 -255 OFFCURVE",
"814 -255 CURVE SMOOTH",
"781 -255 OFFCURVE",
"765 -245 OFFCURVE",
"734 -223 CURVE SMOOTH",
"295 99 LINE SMOOTH",
"244 136 OFFCURVE",
"206 175 OFFCURVE",
"206 226 CURVE SMOOTH",
"206 245 OFFCURVE",
"211 267 OFFCURVE",
"217 281 CURVE",
"94 350 LINE",
"64 318 OFFCURVE",
"45 263 OFFCURVE",
"45 200 CURVE SMOOTH",
"45 93 OFFCURVE",
"107 13 OFFCURVE",
"191 -48 CURVE SMOOTH"
);
}
);
width = 921;
}
);
},
{
glyphname = uni0714.Fina.SYRN;
lastChange = "2018-09-11 18:35:11 +0000";
layers = (
{
anchors = (
{
name = Anchor62;
position = "{796, 378}";
},
{
name = Anchor64;
position = "{615, -91}";
},
{
name = Anchor66;
position = "{365, -98}";
},
{
name = Anchor68;
position = "{416, 798}";
}
);
layerId = "5079F400-2279-4A14-BBD5-92ED0538B068";
paths = (
{
closed = 1;
nodes = (
"905 -240 LINE",
"905 -80 LINE",
"848 -80 LINE",
"810 0 LINE",
"821 0 LINE",
"821 185 LINE",
"810 185 OFFCURVE",
"798 195 OFFCURVE",
"774 241 CURVE SMOOTH",
"515 743 LINE",
"360 661 LINE",
"604 185 LINE",
"320 185 LINE SMOOTH",
"245 185 OFFCURVE",
"177 188 OFFCURVE",
"132 247 CURVE",
"37 130 LINE",
"61 45 OFFCURVE",
"163 0 OFFCURVE",
"307 0 CURVE SMOOTH",
"616 0 LINE",
"654 81 LINE",
"658 81 LINE",
"743 -91 LINE",
"743 -240 LINE"
);
},
{
closed = 1;
nodes = (
"457 236 LINE",
"457 375 LINE",
"316 375 LINE",
"316 236 LINE"
);
}
);
width = 821;
}
);
},
{
glyphname = uni0714.Medi;
lastChange = "2018-09-11 18:35:11 +0000";
layers = (
{
anchors = (
{
name = Anchor6;
position = "{249, -162}";
},
{
name = Anchor8;
position = "{359, 682}";
}
);
layerId = "5079F400-2279-4A14-BBD5-92ED0538B068";
paths = (
{
closed = 1;
nodes = (
"973 -382 LINE",
"1072 -247 LINE",
"981 -187 OFFCURVE",
"902 -133 OFFCURVE",
"773 -20 CURVE SMOOTH",
"737 11 OFFCURVE",
"701 45 OFFCURVE",
"665 81 CURVE",
"665 185 LINE",
"615 185 LINE",
"565 185 LINE",
"397 375 OFFCURVE",
"294 513 OFFCURVE",
"211 631 CURVE",
"53 530 LINE",
"120 430 OFFCURVE",
"202 323 OFFCURVE",
"302 219 CURVE SMOOTH",
"355 163 OFFCURVE",
"414 108 OFFCURVE",
"479 56 CURVE",
"475 50 LINE",
"400 96 OFFCURVE",
"328 127 OFFCURVE",
"262 147 CURVE SMOOTH",
"152 181 OFFCURVE",
"59 185 OFFCURVE",
"0 185 CURVE SMOOTH",
"-24 185 OFFCURVE",
"-40 141 OFFCURVE",
"-40 92 CURVE SMOOTH",
"-40 42 OFFCURVE",
"-24 0 OFFCURVE",
"0 0 CURVE SMOOTH",
"121 0 OFFCURVE",
"244 -22 OFFCURVE",
"362 -58 CURVE SMOOTH",
"487 -96 OFFCURVE",
"606 -145 OFFCURVE",
"712 -205 CURVE SMOOTH",
"773 -239 OFFCURVE",
"837 -283 OFFCURVE",
"903 -331 CURVE SMOOTH"
);
},
{
closed = 1;
nodes = (
"93 230 OFFCURVE",
"130 249 OFFCURVE",
"130 297 CURVE SMOOTH",
"130 347 OFFCURVE",
"93 365 OFFCURVE",
"55 365 CURVE SMOOTH",
"17 365 OFFCURVE",
"-19 347 OFFCURVE",
"-19 297 CURVE SMOOTH",
"-19 249 OFFCURVE",
"17 230 OFFCURVE",
"55 230 CURVE SMOOTH"
);
}
);
width = 665;
}
);
},
{
glyphname = uni0714.Medi.SYRJ;
lastChange = "2018-09-11 18:35:11 +0000";
layers = (
{
anchors = (
{
name = Anchor119;
position = "{509, 304}";
},
{
name = Anchor121;
position = "{727, -496}";
},
{
name = Anchor123;
position = "{448, -465}";
},
{
name = Anchor125;
position = "{342, 480}";
}
);
layerId = "5079F400-2279-4A14-BBD5-92ED0538B068";
paths = (
{
closed = 1;
nodes = (
"469 -117 OFFCURVE",
"499 -132 OFFCURVE",
"530 -132 CURVE SMOOTH",
"561 -132 OFFCURVE",
"592 -117 OFFCURVE",
"592 -77 CURVE SMOOTH",
"592 -36 OFFCURVE",
"561 -21 OFFCURVE",
"530 -21 CURVE SMOOTH",
"499 -21 OFFCURVE",
"469 -36 OFFCURVE",
"469 -77 CURVE SMOOTH"
);
},
{
closed = 1;
nodes = (
"391 282 LINE",
"288 147 LINE",
"753 -190 LINE SMOOTH",
"773 -205 OFFCURVE",
"779 -217 OFFCURVE",
"779 -228 CURVE SMOOTH",
"779 -245 OFFCURVE",
"765 -255 OFFCURVE",
"741 -255 CURVE SMOOTH",
"708 -255 OFFCURVE",
"692 -245 OFFCURVE",
"661 -223 CURVE SMOOTH",
"237 88 LINE SMOOTH",
"162 143 OFFCURVE",
"102 185 OFFCURVE",
"21 185 CURVE SMOOTH",
"0 185 LINE SMOOTH",
"-24 185 OFFCURVE",
"-40 141 OFFCURVE",
"-40 92 CURVE SMOOTH",
"-40 42 OFFCURVE",
"-24 0 OFFCURVE",
"0 0 CURVE SMOOTH",
"5 0 LINE SMOOTH",
"50 0 OFFCURVE",
"82 -22 OFFCURVE",
"115 -46 CURVE SMOOTH",
"497 -326 LINE SMOOTH",
"575 -383 OFFCURVE",
"636 -410 OFFCURVE",
"716 -410 CURVE SMOOTH",
"849 -410 OFFCURVE",
"938 -322 OFFCURVE",
"938 -216 CURVE SMOOTH",
"938 -140 OFFCURVE",
"893 -91 OFFCURVE",
"836 -48 CURVE SMOOTH",
"820 -36 LINE SMOOTH",
"804 -24 OFFCURVE",
"749 10 OFFCURVE",
"717 28 CURVE",
"727 39 LINE",
"770 18 OFFCURVE",
"811 0 OFFCURVE",
"843 0 CURVE SMOOTH",
"848 0 LINE",
"848 185 LINE",
"523 185 LINE"
);
}
);
width = 848;
}
);
},
{
glyphname = uni0714.Medi.SYRN;
lastChange = "2018-09-11 18:35:11 +0000";
layers = (
{
anchors = (
{
name = Anchor62;
position = "{488, 378}";
},
{
name = Anchor64;
position = "{309, -90}";
},
{
name = Anchor66;
position = "{187, -98}";
},
{
name = Anchor68;
position = "{111, 797}";
}
);
layerId = "5079F400-2279-4A14-BBD5-92ED0538B068";
paths = (
{
closed = 1;
nodes = (
"599 -240 LINE",
"599 -80 LINE",
"542 -80 LINE",
"504 0 LINE",
"515 0 LINE",
"515 185 LINE",
"504 185 OFFCURVE",
"492 195 OFFCURVE",
"468 241 CURVE SMOOTH",
"209 743 LINE",
"54 661 LINE",
"298 185 LINE",
"0 185 LINE SMOOTH",
"-24 185 OFFCURVE",
"-40 141 OFFCURVE",
"-40 92 CURVE SMOOTH",
"-40 42 OFFCURVE",
"-24 0 OFFCURVE",
"0 0 CURVE SMOOTH",
"310 0 LINE",
"348 81 LINE",
"352 81 LINE",
"437 -91 LINE",
"437 -240 LINE"
);
},
{
closed = 1;
nodes = (
"151 234 LINE",
"151 373 LINE",
"10 373 LINE",
"10 234 LINE"
);
}
);
width = 515;
}
);
},
{
glyphname = uni0714.Init;
lastChange = "2018-09-11 18:35:11 +0000";
layers = (
{
anchors = (
{
name = Anchor6;
position = "{250, -163}";
},
{
name = Anchor8;
position = "{360, 683}";
}
);
layerId = "5079F400-2279-4A14-BBD5-92ED0538B068";
paths = (
{
closed = 1;
nodes = (
"973 -382 LINE",
"1072 -247 LINE",
"981 -187 OFFCURVE",
"902 -132 OFFCURVE",
"773 -19 CURVE SMOOTH",
"691 53 OFFCURVE",
"601 144 OFFCURVE",
"532 223 CURVE SMOOTH",
"403 370 OFFCURVE",
"294 513 OFFCURVE",
"211 631 CURVE",
"53 530 LINE",
"120 430 OFFCURVE",
"202 323 OFFCURVE",
"303 218 CURVE SMOOTH",
"356 163 OFFCURVE",
"415 108 OFFCURVE",
"479 56 CURVE",
"475 50 LINE",
"403 94 OFFCURVE",
"334 124 OFFCURVE",
"271 144 CURVE SMOOTH",
"157 180 OFFCURVE",
"60 185 OFFCURVE",
"0 185 CURVE SMOOTH",
"-24 185 OFFCURVE",
"-40 141 OFFCURVE",
"-40 92 CURVE SMOOTH",
"-40 42 OFFCURVE",
"-24 0 OFFCURVE",
"0 0 CURVE SMOOTH",
"121 0 OFFCURVE",
"244 -22 OFFCURVE",
"362 -58 CURVE SMOOTH",
"487 -96 OFFCURVE",
"606 -145 OFFCURVE",
"712 -205 CURVE SMOOTH",
"773 -239 OFFCURVE",
"837 -283 OFFCURVE",
"903 -331 CURVE SMOOTH"
);
},
{
closed = 1;
nodes = (
"93 230 OFFCURVE",
"130 249 OFFCURVE",
"130 297 CURVE SMOOTH",
"130 347 OFFCURVE",
"93 365 OFFCURVE",
"55 365 CURVE SMOOTH",
"17 365 OFFCURVE",
"-19 347 OFFCURVE",
"-19 297 CURVE SMOOTH",
"-19 249 OFFCURVE",
"17 230 OFFCURVE",
"55 230 CURVE SMOOTH"
);
}
);
width = 838;
}
);
},
{
glyphname = uni0714.Init.SYRJ;
lastChange = "2018-09-11 18:35:11 +0000";
layers = (
{
anchors = (
{
name = Anchor119;
position = "{496, 315}";
},
{
name = Anchor121;
position = "{727, -496}";
},
{
name = Anchor123;
position = "{448, -464}";
},
{
name = Anchor125;
position = "{328, 488}";
}
);
layerId = "5079F400-2279-4A14-BBD5-92ED0538B068";
paths = (
{
closed = 1;
nodes = (
"470 -117 OFFCURVE",
"500 -132 OFFCURVE",
"531 -132 CURVE SMOOTH",
"562 -132 OFFCURVE",
"593 -117 OFFCURVE",
"593 -77 CURVE SMOOTH",
"593 -36 OFFCURVE",
"562 -21 OFFCURVE",
"531 -21 CURVE SMOOTH",
"500 -21 OFFCURVE",
"470 -36 OFFCURVE",
"470 -77 CURVE SMOOTH"
);
},
{
closed = 1;
nodes = (
"377 291 LINE",
"274 156 LINE",
"753 -190 LINE SMOOTH",
"773 -205 OFFCURVE",
"779 -217 OFFCURVE",
"779 -228 CURVE SMOOTH",
"779 -245 OFFCURVE",
"765 -255 OFFCURVE",
"741 -255 CURVE SMOOTH",
"708 -255 OFFCURVE",
"692 -245 OFFCURVE",
"661 -223 CURVE SMOOTH",
"237 88 LINE SMOOTH",
"162 143 OFFCURVE",
"102 185 OFFCURVE",
"21 185 CURVE SMOOTH",
"0 185 LINE SMOOTH",
"-24 185 OFFCURVE",
"-40 141 OFFCURVE",
"-40 92 CURVE SMOOTH",
"-40 42 OFFCURVE",
"-24 0 OFFCURVE",
"0 0 CURVE SMOOTH",
"5 0 LINE SMOOTH",
"50 0 OFFCURVE",
"82 -22 OFFCURVE",
"115 -46 CURVE SMOOTH",
"497 -326 LINE SMOOTH",
"575 -383 OFFCURVE",
"636 -410 OFFCURVE",
"716 -410 CURVE SMOOTH",
"849 -410 OFFCURVE",
"938 -322 OFFCURVE",
"938 -216 CURVE SMOOTH",
"938 -140 OFFCURVE",
"893 -90 OFFCURVE",
"836 -48 CURVE SMOOTH"
);
}
);
width = 943;
}
);
},
{
glyphname = uni0714.Init.SYRN;
lastChange = "2018-09-11 18:35:11 +0000";
layers = (
{
anchors = (
{
name = Anchor62;
position = "{489, 378}";
},
{
name = Anchor64;
position = "{337, -91}";
},
{
name = Anchor66;
position = "{185, -98}";
},
{
name = Anchor68;
position = "{108, 797}";
}
);
layerId = "5079F400-2279-4A14-BBD5-92ED0538B068";
paths = (
{
closed = 1;
nodes = (
"673 -240 LINE",
"673 -80 LINE",
"633 -80 LINE",
"208 743 LINE",
"54 661 LINE",
"298 185 LINE",
"0 185 LINE SMOOTH",
"-24 185 OFFCURVE",
"-40 141 OFFCURVE",
"-40 92 CURVE SMOOTH",
"-40 42 OFFCURVE",
"-24 0 OFFCURVE",
"0 0 CURVE SMOOTH",
"384 0 LINE",
"422 81 LINE",
"426 81 LINE",
"511 -91 LINE",
"511 -240 LINE"
);
},
{
closed = 1;
nodes = (
"151 234 LINE",
"151 373 LINE",
"10 373 LINE",
"10 234 LINE"
);
}
);
width = 621;
}
);
},
{
glyphname = uni0715;
lastChange = "2018-09-11 18:35:11 +0000";
layers = (
{
anchors = (
{
name = Anchor2;
position = "{474, 555}";
},
{
name = Anchor4;
position = "{477, -106}";
},
{
name = Anchor6;
position = "{209, -73}";
},
{
name = Anchor8;
position = "{234, 598}";
}
);
layerId = "5079F400-2279-4A14-BBD5-92ED0538B068";
paths = (
{
closed = 1;
nodes = (
"248 62 OFFCURVE",
"295 86 OFFCURVE",
"295 146 CURVE SMOOTH",
"295 208 OFFCURVE",
"248 231 OFFCURVE",
"201 231 CURVE SMOOTH",
"153 231 OFFCURVE",
"108 208 OFFCURVE",
"108 146 CURVE SMOOTH",
"108 86 OFFCURVE",
"153 62 OFFCURVE",
"201 62 CURVE SMOOTH"
);
},
{
closed = 1;
nodes = (
"249 334 LINE SMOOTH",
"329 333 OFFCURVE",
"346 326 OFFCURVE",
"355 246 CURVE SMOOTH",
"385 -16 LINE",
"545 -16 LINE",
"495 350 LINE SMOOTH",
"484 433 OFFCURVE",
"426 502 OFFCURVE",
"308 502 CURVE SMOOTH",
"45 502 LINE",
"45 337 LINE"
);
}
);
width = 607;
}
);
unicode = 0715;
},
{
glyphname = uni0715.SYRJ;
lastChange = "2018-09-11 18:35:11 +0000";
layers = (
{
anchors = (
{
name = Anchor119;
position = "{376, 377}";
},
{
name = Anchor121;
position = "{351, -83}";
},
{
name = Anchor123;
position = "{194, -463}";
},
{
name = Anchor125;
position = "{230, 458}";
}
);
layerId = "5079F400-2279-4A14-BBD5-92ED0538B068";
paths = (
{
closed = 1;
nodes = (
"101 -373 OFFCURVE",
"146 -397 OFFCURVE",
"194 -397 CURVE SMOOTH",
"241 -397 OFFCURVE",
"288 -373 OFFCURVE",
"288 -313 CURVE SMOOTH",
"288 -251 OFFCURVE",
"241 -228 OFFCURVE",
"194 -228 CURVE SMOOTH",
"146 -228 OFFCURVE",
"101 -251 OFFCURVE",
"101 -313 CURVE SMOOTH"
);
},
{
closed = 1;
nodes = (
"111 364 OFFCURVE",
"62 267 OFFCURVE",
"62 200 CURVE SMOOTH",
"62 142 OFFCURVE",
"90 98 OFFCURVE",
"127 63 CURVE SMOOTH",
"139 51 OFFCURVE",
"151 41 OFFCURVE",
"164 31 CURVE",
"128 -11 OFFCURVE",
"100 -45 OFFCURVE",
"70 -75 CURVE",
"165 -160 LINE",
"254 -82 OFFCURVE",
"380 46 OFFCURVE",
"380 170 CURVE SMOOTH",
"380 284 OFFCURVE",
"304 364 OFFCURVE",
"217 364 CURVE SMOOTH"
);
}
);
width = 435;
}
);
},
{
glyphname = uni0715.SYRN;
lastChange = "2018-09-11 18:35:11 +0000";
layers = (
{
anchors = (
{
name = Anchor62;
position = "{543, 465}";
},
{
name = Anchor64;
position = "{482, -85}";
},
{
name = Anchor66;
position = "{265, -300}";
},
{
name = Anchor68;
position = "{285, 589}";
}
);
layerId = "5079F400-2279-4A14-BBD5-92ED0538B068";
paths = (
{
closed = 1;
nodes = (
"338 -221 LINE",
"338 -82 LINE",
"197 -82 LINE",
"197 -221 LINE"
);
},
{
closed = 1;
nodes = (
"337 0 LINE SMOOTH",
"472 0 OFFCURVE",
"526 87 OFFCURVE",
"526 176 CURVE SMOOTH",
"526 388 OFFCURVE",
"403 493 OFFCURVE",
"228 493 CURVE SMOOTH",
"187 493 OFFCURVE",
"122 480 OFFCURVE",
"86 447 CURVE",
"86 297 LINE",
"136 315 OFFCURVE",
"171 318 OFFCURVE",
"215 318 CURVE SMOOTH",
"288 318 OFFCURVE",
"364 283 OFFCURVE",
"364 215 CURVE SMOOTH",
"364 199 OFFCURVE",
"362 185 OFFCURVE",
"340 185 CURVE SMOOTH",
"72 185 LINE",
"72 0 LINE"
);
}
);
width = 584;
}
);
},
{
glyphname = uni0715.Fina;
lastChange = "2018-09-11 18:35:11 +0000";
layers = (
{
anchors = (
{
name = Anchor2;
position = "{474, 555}";
},
{
name = Anchor4;
position = "{476, -104}";
},
{
name = Anchor6;
position = "{209, -74}";
},
{
name = Anchor8;
position = "{234, 598}";
}
);
layerId = "5079F400-2279-4A14-BBD5-92ED0538B068";
paths = (
{
closed = 1;
nodes = (
"248 62 OFFCURVE",
"295 86 OFFCURVE",
"295 146 CURVE SMOOTH",
"295 208 OFFCURVE",
"248 231 OFFCURVE",
"201 231 CURVE SMOOTH",
"153 231 OFFCURVE",
"108 208 OFFCURVE",
"108 146 CURVE SMOOTH",
"108 86 OFFCURVE",
"153 62 OFFCURVE",
"201 62 CURVE SMOOTH"
);
},
{
closed = 1;
nodes = (
"617 0 LINE",
"617 185 LINE",
"606 185 LINE SMOOTH",
"579 185 OFFCURVE",
"534 186 OFFCURVE",
"520 188 CURVE",
"518 193 OFFCURVE",
"513 226 OFFCURVE",
"509 255 CURVE SMOOTH",
"495 350 LINE SMOOTH",
"483 433 OFFCURVE",
"426 502 OFFCURVE",
"308 502 CURVE SMOOTH",
"45 502 LINE",
"45 337 LINE",
"249 334 LINE SMOOTH",
"329 333 OFFCURVE",
"343 326 OFFCURVE",
"355 246 CURVE SMOOTH",
"370 143 LINE SMOOTH",
"382 63 OFFCURVE",
"413 0 OFFCURVE",
"525 0 CURVE SMOOTH"
);
}
);
width = 617;
}
);
},
{
glyphname = uni0715.Fina.SYRJ;
lastChange = "2018-09-11 18:35:11 +0000";
layers = (
{
anchors = (
{
name = Anchor119;
position = "{296, 371}";
},
{
name = Anchor121;
position = "{322, -90}";
},
{
name = Anchor123;
position = "{179, -465}";
},
{
name = Anchor125;
position = "{202, 419}";
}
);
layerId = "5079F400-2279-4A14-BBD5-92ED0538B068";
paths = (
{
closed = 1;
nodes = (
"88 -375 OFFCURVE",
"133 -399 OFFCURVE",
"181 -399 CURVE SMOOTH",
"228 -399 OFFCURVE",
"275 -375 OFFCURVE",
"275 -315 CURVE SMOOTH",
"275 -253 OFFCURVE",
"228 -230 OFFCURVE",
"181 -230 CURVE SMOOTH",
"133 -230 OFFCURVE",
"88 -253 OFFCURVE",
"88 -315 CURVE SMOOTH"
);
},
{
closed = 1;
nodes = (
"121 320 OFFCURVE",
"64 257 OFFCURVE",
"64 180 CURVE SMOOTH",
"64 133 OFFCURVE",
"85 90 OFFCURVE",
"135 45 CURVE",
"119 4 OFFCURVE",
"99 -28 OFFCURVE",
"62 -84 CURVE",
"154 -160 LINE",
"193 -128 OFFCURVE",
"259 -50 OFFCURVE",
"285 7 CURVE",
"323 0 OFFCURVE",
"365 0 OFFCURVE",
"380 0 CURVE",
"380 185 LINE",
"367 185 OFFCURVE",
"337 185 OFFCURVE",
"327 189 CURVE",
"323 207 OFFCURVE",
"319 223 OFFCURVE",
"312 238 CURVE SMOOTH",
"291 284 OFFCURVE",
"257 320 OFFCURVE",
"196 320 CURVE SMOOTH"
);
}
);
width = 380;
}
);
},
{
glyphname = uni0715.Fina.SYRN;
lastChange = "2018-09-11 18:35:11 +0000";
layers = (
{
anchors = (
{
name = Anchor62;
position = "{543, 464}";
},
{
name = Anchor64;
position = "{482, -85}";
},
{
name = Anchor66;
position = "{262, -300}";
},
{
name = Anchor68;
position = "{285, 588}";
}
);
layerId = "5079F400-2279-4A14-BBD5-92ED0538B068";
paths = (
{
closed = 1;
nodes = (
"336 -221 LINE",
"336 -82 LINE",
"195 -82 LINE",
"195 -221 LINE"
);
},
{
closed = 1;
nodes = (
"577 185 LINE",
"542 185 OFFCURVE",
"537 194 OFFCURVE",
"531 223 CURVE SMOOTH",
"524 255 LINE SMOOTH",
"487 425 OFFCURVE",
"375 493 OFFCURVE",
"228 493 CURVE SMOOTH",
"187 493 OFFCURVE",
"122 480 OFFCURVE",
"86 447 CURVE",
"86 297 LINE",
"136 315 OFFCURVE",
"171 318 OFFCURVE",
"215 318 CURVE SMOOTH",
"291 318 OFFCURVE",
"353 290 OFFCURVE",
"369 221 CURVE SMOOTH",
"373 204 LINE",
"365 189 OFFCURVE",
"342 185 OFFCURVE",
"269 185 CURVE SMOOTH",
"72 185 LINE",
"72 0 LINE",
"241 0 LINE SMOOTH",
"319 0 OFFCURVE",
"384 17 OFFCURVE",
"415 71 CURVE",
"417 71 LINE",
"451 10 OFFCURVE",
"493 0 OFFCURVE",
"577 0 CURVE"
);
}
);
width = 577;
}
);
},
{
glyphname = uni0716;
lastChange = "2018-09-11 18:35:11 +0000";
layers = (
{
anchors = (
{
name = Anchor2;
position = "{468, 555}";
},
{
name = Anchor4;
position = "{470, -105}";
},
{
name = Anchor6;
position = "{203, -73}";
},
{
name = Anchor8;
position = "{228, 598}";
}
);
layerId = "5079F400-2279-4A14-BBD5-92ED0538B068";
paths = (
{
closed = 1;
nodes = (
"243 334 LINE SMOOTH",
"323 333 OFFCURVE",
"340 326 OFFCURVE",
"349 246 CURVE SMOOTH",
"379 -16 LINE",
"539 -16 LINE",
"489 350 LINE SMOOTH",
"478 433 OFFCURVE",
"420 502 OFFCURVE",
"302 502 CURVE SMOOTH",
"39 502 LINE",
"39 337 LINE"
);
}
);
width = 601;
}
);
unicode = 0716;
},
{
glyphname = uni0716.SYRJ;
lastChange = "2018-09-11 18:35:11 +0000";
layers = (
{
anchors = (
{
name = Anchor119;
position = "{368, 376}";
},
{
name = Anchor121;
position = "{312, -125}";
},
{
name = Anchor123;
position = "{165, -246}";
},
{
name = Anchor125;
position = "{223, 458}";
}
);
layerId = "5079F400-2279-4A14-BBD5-92ED0538B068";
paths = (
{
closed = 1;
nodes = (
"104 364 OFFCURVE",
"55 267 OFFCURVE",
"55 200 CURVE SMOOTH",
"55 142 OFFCURVE",
"83 98 OFFCURVE",
"120 63 CURVE SMOOTH",
"132 51 OFFCURVE",
"144 41 OFFCURVE",
"157 31 CURVE",
"121 -11 OFFCURVE",
"93 -45 OFFCURVE",
"63 -75 CURVE",
"158 -160 LINE",
"247 -82 OFFCURVE",
"373 46 OFFCURVE",
"373 170 CURVE SMOOTH",
"373 284 OFFCURVE",
"297 364 OFFCURVE",
"210 364 CURVE SMOOTH"
);
}
);
width = 428;
}
);
},
{
glyphname = uni0716.SYRN;
lastChange = "2018-09-11 18:35:11 +0000";
layers = (
{
anchors = (
{
name = Anchor62;
position = "{542, 465}";
},
{
name = Anchor64;
position = "{502, -85}";
},
{
name = Anchor66;
position = "{264, -98}";
},
{
name = Anchor68;
position = "{285, 589}";
}
);
layerId = "5079F400-2279-4A14-BBD5-92ED0538B068";
paths = (
{
closed = 1;
nodes = (
"337 0 LINE SMOOTH",
"472 0 OFFCURVE",
"526 87 OFFCURVE",
"526 176 CURVE SMOOTH",
"526 388 OFFCURVE",
"403 493 OFFCURVE",
"228 493 CURVE SMOOTH",
"187 493 OFFCURVE",
"122 480 OFFCURVE",
"86 447 CURVE",
"86 297 LINE",
"136 315 OFFCURVE",
"171 318 OFFCURVE",
"215 318 CURVE SMOOTH",
"288 318 OFFCURVE",
"364 283 OFFCURVE",
"364 215 CURVE SMOOTH",
"364 199 OFFCURVE",
"362 185 OFFCURVE",
"340 185 CURVE SMOOTH",
"72 185 LINE",
"72 0 LINE"
);
}
);
width = 584;
}
);
},
{
glyphname = uni0716.Fina;
lastChange = "2018-09-11 18:35:11 +0000";
layers = (
{
anchors = (
{
name = Anchor2;
position = "{468, 555}";
},
{
name = Anchor4;
position = "{469, -104}";
},
{
name = Anchor6;
position = "{203, -72}";
},
{
name = Anchor8;
position = "{228, 598}";
}
);
layerId = "5079F400-2279-4A14-BBD5-92ED0538B068";
paths = (
{
closed = 1;
nodes = (
"611 0 LINE",
"611 185 LINE",
"600 185 LINE SMOOTH",
"573 185 OFFCURVE",
"528 186 OFFCURVE",
"514 188 CURVE",
"512 193 OFFCURVE",
"507 226 OFFCURVE",
"503 255 CURVE SMOOTH",
"489 350 LINE SMOOTH",
"477 433 OFFCURVE",
"420 502 OFFCURVE",
"302 502 CURVE SMOOTH",
"39 502 LINE",
"39 337 LINE",
"243 334 LINE SMOOTH",
"323 333 OFFCURVE",
"337 326 OFFCURVE",
"349 246 CURVE SMOOTH",
"364 143 LINE SMOOTH",
"376 63 OFFCURVE",
"407 0 OFFCURVE",
"519 0 CURVE SMOOTH"
);
}
);
width = 611;
}
);
},
{
glyphname = uni0716.Fina.SYRJ;
lastChange = "2018-09-11 18:35:11 +0000";
layers = (
{
anchors = (
{
name = Anchor119;
position = "{295, 371}";
},
{
name = Anchor121;
position = "{301, -127}";
},
{
name = Anchor123;
position = "{154, -248}";
},
{
name = Anchor125;
position = "{202, 419}";
}
);
layerId = "5079F400-2279-4A14-BBD5-92ED0538B068";
paths = (
{
closed = 1;
nodes = (
"121 320 OFFCURVE",
"64 257 OFFCURVE",
"64 180 CURVE SMOOTH",
"64 133 OFFCURVE",
"85 90 OFFCURVE",
"135 45 CURVE",
"119 4 OFFCURVE",
"99 -28 OFFCURVE",
"62 -84 CURVE",
"154 -160 LINE",
"193 -128 OFFCURVE",
"259 -50 OFFCURVE",
"285 7 CURVE",
"323 0 OFFCURVE",
"365 0 OFFCURVE",
"380 0 CURVE",
"380 185 LINE",
"367 185 OFFCURVE",
"337 185 OFFCURVE",
"327 189 CURVE",
"323 207 OFFCURVE",
"319 223 OFFCURVE",
"312 238 CURVE SMOOTH",
"291 284 OFFCURVE",
"257 320 OFFCURVE",
"196 320 CURVE SMOOTH"
);
}
);
width = 380;
}
);
},
{
glyphname = uni0716.Fina.SYRN;
lastChange = "2018-09-11 18:35:11 +0000";
layers = (
{
anchors = (
{
name = Anchor62;
position = "{543, 465}";
},
{
name = Anchor64;
position = "{503, -85}";
},
{
name = Anchor66;
position = "{265, -97}";
},
{
name = Anchor68;
position = "{285, 589}";
}
);
layerId = "5079F400-2279-4A14-BBD5-92ED0538B068";
paths = (
{
closed = 1;
nodes = (
"577 185 LINE",
"542 185 OFFCURVE",
"537 194 OFFCURVE",
"531 223 CURVE SMOOTH",
"524 255 LINE SMOOTH",
"487 425 OFFCURVE",
"375 493 OFFCURVE",
"228 493 CURVE SMOOTH",
"187 493 OFFCURVE",
"122 480 OFFCURVE",
"86 447 CURVE",
"86 297 LINE",
"136 315 OFFCURVE",
"171 318 OFFCURVE",
"215 318 CURVE SMOOTH",
"291 318 OFFCURVE",
"353 290 OFFCURVE",
"369 221 CURVE SMOOTH",
"373 204 LINE",
"365 189 OFFCURVE",
"342 185 OFFCURVE",
"269 185 CURVE SMOOTH",
"72 185 LINE",
"72 0 LINE",
"241 0 LINE SMOOTH",
"319 0 OFFCURVE",
"384 17 OFFCURVE",
"415 71 CURVE",
"417 71 LINE",
"451 10 OFFCURVE",
"493 0 OFFCURVE",
"577 0 CURVE"
);
}
);
width = 577;
}
);
},
{
glyphname = uni0717;
lastChange = "2018-09-11 18:35:11 +0000";
layers = (
{
anchors = (
{
name = Anchor6;
position = "{508, -96}";
},
{
name = Anchor8;
position = "{528, 616}";
}
);
layerId = "5079F400-2279-4A14-BBD5-92ED0538B068";
paths = (
{
closed = 1;
nodes = (
"649 6 LINE",
"669 1 OFFCURVE",
"692 0 OFFCURVE",
"701 0 CURVE SMOOTH",
"907 0 OFFCURVE",
"941 163 OFFCURVE",
"941 235 CURVE SMOOTH",
"941 385 OFFCURVE",
"900 513 OFFCURVE",
"712 513 CURVE SMOOTH",
"657 513 OFFCURVE",
"588 502 OFFCURVE",
"549 502 CURVE SMOOTH",
"490 502 OFFCURVE",
"436 513 OFFCURVE",
"341 513 CURVE SMOOTH",
"197 513 OFFCURVE",
"63 430 OFFCURVE",
"63 244 CURVE SMOOTH",
"63 118 OFFCURVE",
"141 28 OFFCURVE",
"272 -9 CURVE",
"329 148 LINE",
"268 165 OFFCURVE",
"224 199 OFFCURVE",
"224 257 CURVE SMOOTH",
"224 312 OFFCURVE",
"268 347 OFFCURVE",
"337 347 CURVE SMOOTH",
"367 347 OFFCURVE",
"418 342 OFFCURVE",
"451 333 CURVE",
"365 19 LINE",
"513 -5 LINE",
"616 333 LINE",
"641 344 OFFCURVE",
"677 347 OFFCURVE",
"697 347 CURVE SMOOTH",
"765 347 OFFCURVE",
"781 304 OFFCURVE",
"781 246 CURVE SMOOTH",
"781 188 OFFCURVE",
"750 160 OFFCURVE",
"692 160 CURVE SMOOTH",
"682 160 OFFCURVE",
"671 161 OFFCURVE",
"660 163 CURVE"
);
}
);
width = 997;
}
);
unicode = 0717;
},
{
glyphname = uni0717.SYRJ;
lastChange = "2018-09-11 18:35:11 +0000";
layers = (
{
anchors = (
{
name = Anchor123;
position = "{405, -104}";
},
{
name = Anchor125;
position = "{416, 590}";
}
);
layerId = "5079F400-2279-4A14-BBD5-92ED0538B068";
paths = (
{
closed = 1;
nodes = (
"649 303 LINE",
"649 271 OFFCURVE",
"647 197 OFFCURVE",
"644 148 CURVE SMOOTH",
"641 98 OFFCURVE",
"636 47 OFFCURVE",
"629 11 CURVE",
"767 -12 LINE",
"787 67 OFFCURVE",
"796 160 OFFCURVE",
"796 255 CURVE SMOOTH",
"796 313 OFFCURVE",
"787 422 OFFCURVE",
"758 491 CURVE",
"622 473 LINE",
"617 456 OFFCURVE",
"580 391 OFFCURVE",
"552 350 CURVE",
"548 350 LINE",
"503 456 OFFCURVE",
"403 500 OFFCURVE",
"294 500 CURVE SMOOTH",
"175 500 OFFCURVE",
"50 419 OFFCURVE",
"50 254 CURVE SMOOTH",
"50 84 OFFCURVE",
"175 -5 OFFCURVE",
"307 -5 CURVE SMOOTH",
"438 -5 OFFCURVE",
"517 61 OFFCURVE",
"557 157 CURVE",
"593 207 OFFCURVE",
"632 262 OFFCURVE",
"645 304 CURVE"
);
},
{
closed = 1;
nodes = (
"250 175 OFFCURVE",
"208 214 OFFCURVE",
"208 259 CURVE SMOOTH",
"208 306 OFFCURVE",
"248 330 OFFCURVE",
"302 330 CURVE SMOOTH",
"380 330 OFFCURVE",
"425 289 OFFCURVE",
"425 250 CURVE SMOOTH",
"425 204 OFFCURVE",
"379 175 OFFCURVE",
"322 175 CURVE SMOOTH"
);
}
);
width = 856;
}
);
},
{
glyphname = uni0717.SYRN;
lastChange = "2018-09-11 18:35:11 +0000";
layers = (
{
anchors = (
{
name = Anchor66;
position = "{436, -98}";
},
{
name = Anchor68;
position = "{439, 598}";
}
);
layerId = "5079F400-2279-4A14-BBD5-92ED0538B068";
paths = (
{
closed = 1;
nodes = (
"780 0 LINE",
"780 510 LINE",
"763 506 OFFCURVE",
"721 504 OFFCURVE",
"664 502 CURVE SMOOTH",
"624 501 OFFCURVE",
"577 500 OFFCURVE",
"525 500 CURVE SMOOTH",
"280 500 LINE SMOOTH",
"193 500 OFFCURVE",
"132 464 OFFCURVE",
"97 411 CURVE SMOOTH",
"69 368 OFFCURVE",
"56 315 OFFCURVE",
"56 261 CURVE SMOOTH",
"56 196 OFFCURVE",
"76 129 OFFCURVE",
"116 78 CURVE SMOOTH",
"154 30 OFFCURVE",
"212 -3 OFFCURVE",
"290 -3 CURVE SMOOTH",
"480 -3 OFFCURVE",
"549 132 OFFCURVE",
"549 303 CURVE SMOOTH",
"549 306 OFFCURVE",
"549 328 OFFCURVE",
"548 340 CURVE",
"572 340 OFFCURVE",
"597 340 OFFCURVE",
"621 340 CURVE",
"621 0 LINE"
);
},
{
closed = 1;
nodes = (
"398 340 LINE",
"401 324 OFFCURVE",
"401 312 OFFCURVE",
"401 310 CURVE SMOOTH",
"401 235 OFFCURVE",
"386 167 OFFCURVE",
"300 167 CURVE SMOOTH",
"253 167 OFFCURVE",
"214 194 OFFCURVE",
"214 255 CURVE SMOOTH",
"214 296 OFFCURVE",
"234 340 OFFCURVE",
"290 340 CURVE SMOOTH"
);
}
);
width = 838;
}
);
},
{
glyphname = uni0717.Fina;
lastChange = "2018-09-11 18:35:11 +0000";
layers = (
{
anchors = (
{
name = Anchor6;
position = "{508, -97}";
},
{
name = Anchor8;
position = "{528, 615}";
}
);
layerId = "5079F400-2279-4A14-BBD5-92ED0538B068";
paths = (
{
closed = 1;
nodes = (
"1014 0 LINE",
"1014 185 LINE",
"932 185 LINE",
"932 187 LINE",
"938 203 OFFCURVE",
"941 230 OFFCURVE",
"941 246 CURVE SMOOTH",
"941 387 OFFCURVE",
"900 513 OFFCURVE",
"712 513 CURVE SMOOTH",
"657 513 OFFCURVE",
"588 502 OFFCURVE",
"549 502 CURVE SMOOTH",
"490 502 OFFCURVE",
"436 513 OFFCURVE",
"341 513 CURVE SMOOTH",
"197 513 OFFCURVE",
"63 430 OFFCURVE",
"63 244 CURVE SMOOTH",
"63 118 OFFCURVE",
"141 28 OFFCURVE",
"272 -9 CURVE",
"329 148 LINE",
"268 165 OFFCURVE",
"224 200 OFFCURVE",
"224 258 CURVE SMOOTH",
"224 313 OFFCURVE",
"268 347 OFFCURVE",
"337 347 CURVE SMOOTH",
"367 347 OFFCURVE",
"418 342 OFFCURVE",
"451 333 CURVE",
"365 19 LINE",
"513 -5 LINE",
"616 333 LINE",
"641 344 OFFCURVE",
"677 347 OFFCURVE",
"697 347 CURVE SMOOTH",
"765 347 OFFCURVE",
"781 304 OFFCURVE",
"781 246 CURVE SMOOTH",
"781 187 OFFCURVE",
"748 160 OFFCURVE",
"692 160 CURVE SMOOTH",
"682 160 OFFCURVE",
"672 161 OFFCURVE",
"660 163 CURVE",
"649 6 LINE",
"669 1 OFFCURVE",
"742 0 OFFCURVE",
"751 0 CURVE SMOOTH"
);
}
);
width = 1014;
}
);
},
{
glyphname = uni0717.Fina.SYRJ;
lastChange = "2018-09-11 18:35:11 +0000";
layers = (
{
anchors = (
{
name = Anchor123;
position = "{406, -104}";
},
{
name = Anchor125;
position = "{416, 587}";
}
);
layerId = "5079F400-2279-4A14-BBD5-92ED0538B068";
paths = (
{
closed = 1;
nodes = (
"175 500 OFFCURVE",
"50 419 OFFCURVE",
"50 254 CURVE SMOOTH",
"50 84 OFFCURVE",
"175 -5 OFFCURVE",
"307 -5 CURVE SMOOTH",
"438 -5 OFFCURVE",
"517 61 OFFCURVE",
"557 157 CURVE",
"593 207 OFFCURVE",
"632 262 OFFCURVE",
"645 304 CURVE",
"649 303 LINE",
"649 271 OFFCURVE",
"646 197 OFFCURVE",
"642 148 CURVE SMOOTH",
"638 98 OFFCURVE",
"632 47 OFFCURVE",
"624 11 CURVE",
"762 -12 LINE",
"767 10 OFFCURVE",
"772 33 OFFCURVE",
"776 57 CURVE",
"780 57 LINE",
"796 23 OFFCURVE",
"839 0 OFFCURVE",
"890 0 CURVE",
"890 185 LINE",
"846 185 OFFCURVE",
"807 191 OFFCURVE",
"794 220 CURVE",
"796 243 OFFCURVE",
"796 246 OFFCURVE",
"796 265 CURVE SMOOTH",
"796 323 OFFCURVE",
"787 422 OFFCURVE",
"758 491 CURVE",
"622 473 LINE",
"617 456 OFFCURVE",
"580 391 OFFCURVE",
"552 350 CURVE",
"548 350 LINE",
"503 456 OFFCURVE",
"403 500 OFFCURVE",
"294 500 CURVE SMOOTH"
);
},
{
closed = 1;
nodes = (
"250 175 OFFCURVE",
"208 214 OFFCURVE",
"208 260 CURVE SMOOTH",
"208 306 OFFCURVE",
"248 330 OFFCURVE",
"302 330 CURVE SMOOTH",
"380 330 OFFCURVE",
"425 289 OFFCURVE",
"425 251 CURVE SMOOTH",
"425 204 OFFCURVE",
"379 175 OFFCURVE",
"322 175 CURVE SMOOTH"
);
}
);
width = 890;
}
);
},
{
glyphname = uni0717.Fina.SYRN;
lastChange = "2018-09-11 18:35:11 +0000";
layers = (
{
anchors = (
{
name = Anchor66;
position = "{436, -99}";
},
{
name = Anchor68;
position = "{440, 598}";
}
);
layerId = "5079F400-2279-4A14-BBD5-92ED0538B068";
paths = (
{
closed = 1;
nodes = (
"875 0 LINE",
"875 185 LINE",
"780 185 LINE",
"780 510 LINE",
"763 506 OFFCURVE",
"721 504 OFFCURVE",
"664 502 CURVE SMOOTH",
"624 501 OFFCURVE",
"577 500 OFFCURVE",
"525 500 CURVE SMOOTH",
"280 500 LINE SMOOTH",
"193 500 OFFCURVE",
"132 464 OFFCURVE",
"97 411 CURVE SMOOTH",
"69 368 OFFCURVE",
"56 315 OFFCURVE",
"56 261 CURVE SMOOTH",
"56 196 OFFCURVE",
"76 129 OFFCURVE",
"116 78 CURVE SMOOTH",
"154 29 OFFCURVE",
"212 -3 OFFCURVE",
"290 -3 CURVE SMOOTH",
"480 -3 OFFCURVE",
"549 132 OFFCURVE",
"549 303 CURVE SMOOTH",
"549 306 OFFCURVE",
"549 328 OFFCURVE",
"548 340 CURVE",
"572 340 OFFCURVE",
"597 340 OFFCURVE",
"621 340 CURVE",
"621 0 LINE"
);
},
{
closed = 1;
nodes = (
"398 340 LINE",
"401 324 OFFCURVE",
"401 312 OFFCURVE",
"401 310 CURVE SMOOTH",
"401 235 OFFCURVE",
"386 167 OFFCURVE",
"300 167 CURVE SMOOTH",
"253 167 OFFCURVE",
"214 194 OFFCURVE",
"214 255 CURVE SMOOTH",
"214 296 OFFCURVE",
"234 340 OFFCURVE",
"290 340 CURVE SMOOTH"
);
}
);
width = 875;
}
);
},
{
glyphname = uni0718;
lastChange = "2018-09-11 18:35:11 +0000";
layers = (
{
anchors = (
{
name = Anchor6;
position = "{364, -98}";
},
{
name = Anchor8;
position = "{321, 613}";
}
);
layerId = "5079F400-2279-4A14-BBD5-92ED0538B068";
paths = (
{
closed = 1;
nodes = (
"643 -9 LINE",
"627 102 OFFCURVE",
"610 208 OFFCURVE",
"591 280 CURVE SMOOTH",
"549 439 OFFCURVE",
"485 512 OFFCURVE",
"333 512 CURVE SMOOTH",
"194 512 OFFCURVE",
"68 380 OFFCURVE",
"68 223 CURVE SMOOTH",
"68 56 OFFCURVE",
"168 -9 OFFCURVE",
"303 -9 CURVE SMOOTH",
"342 -9 OFFCURVE",
"392 -1 OFFCURVE",
"412 12 CURVE",
"386 162 LINE",
"364 153 OFFCURVE",
"336 147 OFFCURVE",
"319 147 CURVE SMOOTH",
"259 147 OFFCURVE",
"223 183 OFFCURVE",
"223 237 CURVE SMOOTH",
"223 285 OFFCURVE",
"270 345 OFFCURVE",
"337 345 CURVE SMOOTH",
"394 345 OFFCURVE",
"426 308 OFFCURVE",
"442 239 CURVE SMOOTH",
"455 183 OFFCURVE",
"475 70 OFFCURVE",
"485 -9 CURVE"
);
}
);
width = 696;
}
);
unicode = 0718;
},
{
glyphname = uni0718.SYRJ;
lastChange = "2018-09-11 18:35:11 +0000";
layers = (
{
anchors = (
{
name = Anchor123;
position = "{302, -103}";
},
{
name = Anchor125;
position = "{298, 589}";
}
);
layerId = "5079F400-2279-4A14-BBD5-92ED0538B068";
paths = (
{
closed = 1;
nodes = (
"175 490 OFFCURVE",
"50 412 OFFCURVE",
"50 250 CURVE SMOOTH",
"50 86 OFFCURVE",
"165 -5 OFFCURVE",
"302 -5 CURVE SMOOTH",
"457 -5 OFFCURVE",
"561 94 OFFCURVE",
"561 241 CURVE SMOOTH",
"561 379 OFFCURVE",
"466 490 OFFCURVE",
"291 490 CURVE SMOOTH"
);
},
{
closed = 1;
nodes = (
"244 172 OFFCURVE",
"205 209 OFFCURVE",
"205 258 CURVE SMOOTH",
"205 301 OFFCURVE",
"244 325 OFFCURVE",
"292 325 CURVE SMOOTH",
"369 325 OFFCURVE",
"406 284 OFFCURVE",
"406 247 CURVE SMOOTH",
"406 196 OFFCURVE",
"371 172 OFFCURVE",
"315 172 CURVE SMOOTH"
);
}
);
width = 611;
}
);
},
{
glyphname = uni0718.SYRN;
lastChange = "2018-09-11 18:35:11 +0000";
layers = (
{
anchors = (
{
name = Anchor66;
position = "{323, -98}";
},
{
name = Anchor68;
position = "{322, 606}";
}
);
layerId = "5079F400-2279-4A14-BBD5-92ED0538B068";
paths = (
{
closed = 1;
nodes = (
"549 -5 OFFCURVE",
"579 175 OFFCURVE",
"579 234 CURVE SMOOTH",
"579 315 OFFCURVE",
"551 382 OFFCURVE",
"509 431 CURVE SMOOTH",
"461 486 OFFCURVE",
"397 510 OFFCURVE",
"317 510 CURVE SMOOTH",
"240 510 OFFCURVE",
"173 479 OFFCURVE",
"127 429 CURVE SMOOTH",
"82 380 OFFCURVE",
"56 312 OFFCURVE",
"56 243 CURVE SMOOTH",
"56 77 OFFCURVE",
"163 -5 OFFCURVE",
"314 -5 CURVE SMOOTH"
);
},
{
closed = 1;
nodes = (
"240 161 OFFCURVE",
"214 204 OFFCURVE",
"214 244 CURVE SMOOTH",
"214 303 OFFCURVE",
"253 342 OFFCURVE",
"314 342 CURVE SMOOTH",
"377 342 OFFCURVE",
"421 301 OFFCURVE",
"421 242 CURVE SMOOTH",
"421 196 OFFCURVE",
"393 161 OFFCURVE",
"314 161 CURVE SMOOTH"
);
}
);
width = 637;
}
);
},
{
glyphname = uni0718.Fina;
lastChange = "2018-09-11 18:35:11 +0000";
layers = (
{
anchors = (
{
name = Anchor6;
position = "{364, -98}";
},
{
name = Anchor8;
position = "{321, 613}";
}
);
layerId = "5079F400-2279-4A14-BBD5-92ED0538B068";
paths = (
{
closed = 1;
nodes = (
"702 0 LINE",
"702 185 LINE",
"695 185 LINE SMOOTH",
"668 185 OFFCURVE",
"623 186 OFFCURVE",
"609 188 CURVE",
"606 193 OFFCURVE",
"600 226 OFFCURVE",
"591 269 CURVE SMOOTH",
"557 430 OFFCURVE",
"485 512 OFFCURVE",
"333 512 CURVE SMOOTH",
"194 512 OFFCURVE",
"68 380 OFFCURVE",
"68 223 CURVE SMOOTH",
"68 56 OFFCURVE",
"168 -9 OFFCURVE",
"303 -9 CURVE SMOOTH",
"342 -9 OFFCURVE",
"392 -1 OFFCURVE",
"412 12 CURVE",
"386 162 LINE",
"364 153 OFFCURVE",
"336 147 OFFCURVE",
"319 147 CURVE SMOOTH",
"259 147 OFFCURVE",
"223 183 OFFCURVE",
"223 237 CURVE SMOOTH",
"223 285 OFFCURVE",
"270 345 OFFCURVE",
"337 345 CURVE SMOOTH",
"394 345 OFFCURVE",
"426 308 OFFCURVE",
"442 239 CURVE SMOOTH",
"450 205 OFFCURVE",
"457 171 OFFCURVE",
"465 137 CURVE SMOOTH",
"483 57 OFFCURVE",
"512 0 OFFCURVE",
"624 0 CURVE SMOOTH"
);
}
);
width = 702;
}
);
},
{
glyphname = uni0718.Fina.SYRJ;
lastChange = "2018-09-11 18:35:11 +0000";
layers = (
{
anchors = (
{
name = Anchor123;
position = "{290, -103}";
},
{
name = Anchor125;
position = "{297, 589}";
}
);
layerId = "5079F400-2279-4A14-BBD5-92ED0538B068";
paths = (
{
closed = 1;
nodes = (
"175 490 OFFCURVE",
"50 416 OFFCURVE",
"50 254 CURVE SMOOTH",
"50 87 OFFCURVE",
"177 0 OFFCURVE",
"352 0 CURVE SMOOTH",
"621 0 LINE",
"621 185 LINE",
"601 185 LINE SMOOTH",
"582 185 OFFCURVE",
"566 185 OFFCURVE",
"539 183 CURVE",
"539 185 LINE",
"554 205 OFFCURVE",
"561 244 OFFCURVE",
"561 266 CURVE SMOOTH",
"561 399 OFFCURVE",
"459 490 OFFCURVE",
"291 490 CURVE SMOOTH"
);
},
{
closed = 1;
nodes = (
"244 172 OFFCURVE",
"205 209 OFFCURVE",
"205 258 CURVE SMOOTH",
"205 304 OFFCURVE",
"244 325 OFFCURVE",
"292 325 CURVE SMOOTH",
"369 325 OFFCURVE",
"406 285 OFFCURVE",
"406 247 CURVE SMOOTH",
"406 196 OFFCURVE",
"371 172 OFFCURVE",
"315 172 CURVE SMOOTH"
);
}
);
width = 621;
}
);
},
{
glyphname = uni0718.Fina.SYRN;
lastChange = "2018-09-11 18:35:11 +0000";
layers = (
{
anchors = (
{
name = Anchor66;
position = "{325, -96}";
},
{
name = Anchor68;
position = "{321, 604}";
}
);
layerId = "5079F400-2279-4A14-BBD5-92ED0538B068";
paths = (
{
closed = 1;
nodes = (
"637 185 LINE",
"607 185 OFFCURVE",
"584 191 OFFCURVE",
"577 209 CURVE",
"578 215 OFFCURVE",
"579 224 OFFCURVE",
"579 234 CURVE SMOOTH",
"579 315 OFFCURVE",
"552 382 OFFCURVE",
"509 431 CURVE SMOOTH",
"461 486 OFFCURVE",
"397 510 OFFCURVE",
"317 510 CURVE SMOOTH",
"240 510 OFFCURVE",
"173 479 OFFCURVE",
"127 429 CURVE SMOOTH",
"82 380 OFFCURVE",
"56 312 OFFCURVE",
"56 243 CURVE SMOOTH",
"56 77 OFFCURVE",
"163 -5 OFFCURVE",
"314 -5 CURVE SMOOTH",
"409 -5 OFFCURVE",
"477 18 OFFCURVE",
"514 69 CURVE",
"518 69 LINE",
"547 9 OFFCURVE",
"601 0 OFFCURVE",
"637 0 CURVE"
);
},
{
closed = 1;
nodes = (
"240 161 OFFCURVE",
"214 204 OFFCURVE",
"214 244 CURVE SMOOTH",
"214 303 OFFCURVE",
"253 342 OFFCURVE",
"314 342 CURVE SMOOTH",
"377 342 OFFCURVE",
"421 301 OFFCURVE",
"421 242 CURVE SMOOTH",
"421 196 OFFCURVE",
"393 161 OFFCURVE",
"314 161 CURVE SMOOTH"
);
}
);
width = 637;
}
);
},
{
glyphname = uni0719;
lastChange = "2018-09-11 18:35:11 +0000";
layers = (
{
anchors = (
{
name = Anchor6;
position = "{187, -138}";
},
{
name = Anchor8;
position = "{114, 601}";
}
);
layerId = "5079F400-2279-4A14-BBD5-92ED0538B068";
paths = (
{
closed = 1;
nodes = (
"293 -37 LINE",
"274 103 OFFCURVE",
"233 400 OFFCURVE",
"218 498 CURVE",
"51 476 LINE",
"69 377 OFFCURVE",
"107 121 OFFCURVE",
"129 -37 CURVE"
);
}
);
width = 351;
}
);
unicode = 0719;
},
{
glyphname = uni0719.SYRJ;
lastChange = "2018-09-11 18:35:11 +0000";
layers = (
{
anchors = (
{
name = Anchor123;
position = "{128, -205}";
},
{
name = Anchor125;
position = "{154, 608}";
}
);
layerId = "5079F400-2279-4A14-BBD5-92ED0538B068";
paths = (
{
closed = 1;
nodes = (
"84 486 LINE",
"84 207 LINE SMOOTH",
"84 91 OFFCURVE",
"68 -4 OFFCURVE",
"44 -60 CURVE",
"169 -116 LINE",
"218 -46 OFFCURVE",
"238 64 OFFCURVE",
"238 197 CURVE SMOOTH",
"238 486 LINE"
);
}
);
width = 318;
}
);
},
{
glyphname = uni0719.SYRN;
lastChange = "2018-09-11 18:35:11 +0000";
layers = (
{
anchors = (
{
name = Anchor66;
position = "{219, -175}";
},
{
name = Anchor68;
position = "{209, 580}";
}
);
layerId = "5079F400-2279-4A14-BBD5-92ED0538B068";
paths = (
{
closed = 1;
nodes = (
"302 -95 LINE",
"316 48 LINE SMOOTH",
"323 123 OFFCURVE",
"327 197 OFFCURVE",
"327 277 CURVE SMOOTH",
"327 411 OFFCURVE",
"288 480 OFFCURVE",
"203 480 CURVE SMOOTH",
"123 480 OFFCURVE",
"70 394 OFFCURVE",
"70 256 CURVE SMOOTH",
"70 148 OFFCURVE",
"110 82 OFFCURVE",
"182 39 CURVE",
"177 -71 LINE"
);
}
);
width = 385;
}
);
},
{
glyphname = uni0719.Fina;
lastChange = "2018-09-11 18:35:11 +0000";
layers = (
{
anchors = (
{
name = Anchor6;
position = "{189, -137}";
},
{
name = Anchor8;
position = "{115, 601}";
}
);
layerId = "5079F400-2279-4A14-BBD5-92ED0538B068";
paths = (
{
closed = 1;
nodes = (
"360 0 LINE",
"360 185 LINE",
"340 185 LINE SMOOTH",
"283 185 OFFCURVE",
"257 211 OFFCURVE",
"253 238 CURVE SMOOTH",
"237 349 OFFCURVE",
"228 435 OFFCURVE",
"218 498 CURVE",
"51 476 LINE",
"69 377 OFFCURVE",
"117 109 OFFCURVE",
"136 -51 CURVE",
"290 -51 LINE",
"289 -38 OFFCURVE",
"282 8 OFFCURVE",
"279 27 CURVE",
"282 27 LINE",
"301 4 OFFCURVE",
"340 0 OFFCURVE",
"358 0 CURVE SMOOTH"
);
}
);
width = 360;
}
);
},
{
glyphname = uni0719.Fina.SYRJ;
lastChange = "2018-09-11 18:35:11 +0000";
layers = (
{
anchors = (
{
name = Anchor123;
position = "{144, -206}";
},
{
name = Anchor125;
position = "{167, 608}";
}
);
layerId = "5079F400-2279-4A14-BBD5-92ED0538B068";
paths = (
{
closed = 1;
nodes = (
"84 486 LINE",
"84 207 LINE SMOOTH",
"84 91 OFFCURVE",
"68 -4 OFFCURVE",
"44 -60 CURVE",
"170 -116 LINE",
"199 -73 OFFCURVE",
"216 -16 OFFCURVE",
"226 49 CURVE",
"230 49 LINE",
"252 13 OFFCURVE",
"300 0 OFFCURVE",
"335 0 CURVE",
"335 185 LINE",
"281 185 OFFCURVE",
"250 195 OFFCURVE",
"239 221 CURVE",
"239 229 OFFCURVE",
"239 238 OFFCURVE",
"239 246 CURVE",
"239 486 LINE"
);
}
);
width = 335;
}
);
},
{
glyphname = uni0719.Fina.SYRN;
lastChange = "2018-09-11 18:35:11 +0000";
layers = (
{
anchors = (
{
name = Anchor66;
position = "{218, -175}";
},
{
name = Anchor68;
position = "{209, 578}";
}
);
layerId = "5079F400-2279-4A14-BBD5-92ED0538B068";
paths = (
{
closed = 1;
nodes = (
"418 0 LINE",
"418 185 LINE",
"410 185 LINE SMOOTH",
"390 185 OFFCURVE",
"346 188 OFFCURVE",
"325 195 CURVE",
"327 232 OFFCURVE",
"327 266 OFFCURVE",
"327 276 CURVE SMOOTH",
"327 410 OFFCURVE",
"288 480 OFFCURVE",
"203 480 CURVE SMOOTH",
"123 480 OFFCURVE",
"70 394 OFFCURVE",
"70 256 CURVE SMOOTH",
"70 148 OFFCURVE",
"110 82 OFFCURVE",
"182 39 CURVE",
"177 -71 LINE",
"302 -95 LINE",
"313 10 LINE",
"346 4 OFFCURVE",
"388 0 OFFCURVE",
"412 0 CURVE SMOOTH"
);
}
);
width = 418;
}
);
},
{
glyphname = uni071A;
lastChange = "2018-09-11 18:35:11 +0000";
layers = (
{
anchors = (
{
name = Anchor6;
position = "{553, -98}";
},
{
name = Anchor8;
position = "{503, 552}";
}
);
layerId = "5079F400-2279-4A14-BBD5-92ED0538B068";
paths = (
{
closed = 1;
nodes = (
"717 -5 OFFCURVE",
"765 117 OFFCURVE",
"765 217 CURVE SMOOTH",
"765 251 OFFCURVE",
"765 306 OFFCURVE",
"748 369 CURVE SMOOTH",
"727 446 OFFCURVE",
"691 452 OFFCURVE",
"667 452 CURVE SMOOTH",
"627 452 OFFCURVE",
"578 433 OFFCURVE",
"578 366 CURVE SMOOTH",
"578 310 OFFCURVE",
"592 233 OFFCURVE",
"604 195 CURVE",
"592 185 OFFCURVE",
"571 181 OFFCURVE",
"552 181 CURVE SMOOTH",
"526 181 OFFCURVE",
"500 189 OFFCURVE",
"488 205 CURVE",
"488 255 OFFCURVE",
"484 322 OFFCURVE",
"469 371 CURVE SMOOTH",
"449 435 OFFCURVE",
"416 441 OFFCURVE",
"395 441 CURVE SMOOTH",
"345 441 OFFCURVE",
"305 422 OFFCURVE",
"305 349 CURVE SMOOTH",
"305 304 OFFCURVE",
"312 253 OFFCURVE",
"332 198 CURVE",
"320 185 OFFCURVE",
"287 180 OFFCURVE",
"271 180 CURVE SMOOTH",
"218 180 OFFCURVE",
"180 199 OFFCURVE",
"147 235 CURVE",
"38 120 LINE",
"71 46 OFFCURVE",
"156 -5 OFFCURVE",
"261 -5 CURVE SMOOTH",
"317 -5 OFFCURVE",
"378 11 OFFCURVE",
"418 42 CURVE",
"463 3 OFFCURVE",
"511 -5 OFFCURVE",
"562 -5 CURVE SMOOTH"
);
}
);
width = 833;
}
);
unicode = 071A;
},
{
glyphname = uni071A.SYRJ;
lastChange = "2018-09-11 18:35:11 +0000";
layers = (
{
anchors = (
{
name = Anchor123;
position = "{470, -98}";
},
{
name = Anchor125;
position = "{626, 469}";
}
);
layerId = "5079F400-2279-4A14-BBD5-92ED0538B068";
paths = (
{
closed = 1;
nodes = (
"837 269 OFFCURVE",
"819 332 OFFCURVE",
"753 332 CURVE SMOOTH",
"710 332 OFFCURVE",
"691 309 OFFCURVE",
"671 266 CURVE SMOOTH",
"637 192 OFFCURVE",
"631 185 OFFCURVE",
"625 185 CURVE SMOOTH",
"614 185 LINE SMOOTH",
"604 185 OFFCURVE",
"600 194 OFFCURVE",
"575 253 CURVE SMOOTH",
"554 303 OFFCURVE",
"538 329 OFFCURVE",
"494 329 CURVE SMOOTH",
"462 329 OFFCURVE",
"445 320 OFFCURVE",
"421 280 CURVE SMOOTH",
"392 232 LINE SMOOTH",
"365 187 OFFCURVE",
"337 174 OFFCURVE",
"298 174 CURVE SMOOTH",
"213 174 OFFCURVE",
"195 228 OFFCURVE",
"185 300 CURVE",
"47 297 LINE",
"45 282 OFFCURVE",
"45 261 OFFCURVE",
"45 255 CURVE SMOOTH",
"45 76 OFFCURVE",
"147 -5 OFFCURVE",
"292 -5 CURVE SMOOTH",
"347 -5 OFFCURVE",
"416 8 OFFCURVE",
"469 49 CURVE",
"511 11 OFFCURVE",
"559 0 OFFCURVE",
"613 0 CURVE SMOOTH",
"701 0 OFFCURVE",
"765 36 OFFCURVE",
"804 94 CURVE SMOOTH",
"825 126 OFFCURVE",
"837 165 OFFCURVE",
"837 212 CURVE SMOOTH"
);
}
);
width = 892;
}
);
},
{
glyphname = uni071A.SYRN;
lastChange = "2018-09-11 18:35:11 +0000";
layers = (
{
anchors = (
{
name = Anchor66;
position = "{499, -98}";
},
{
name = Anchor68;
position = "{611, 500}";
}
);
layerId = "5079F400-2279-4A14-BBD5-92ED0538B068";
paths = (
{
closed = 1;
nodes = (
"843 186 LINE",
"745 318 LINE",
"682 315 LINE",
"621 181 LINE",
"604 199 OFFCURVE",
"584 225 OFFCURVE",
"566 249 CURVE SMOOTH",
"515 318 LINE",
"452 315 LINE",
"390 191 LINE",
"368 185 OFFCURVE",
"343 185 OFFCURVE",
"321 185 CURVE SMOOTH",
"317 185 LINE SMOOTH",
"242 185 OFFCURVE",
"182 189 OFFCURVE",
"132 247 CURVE",
"37 130 LINE",
"61 45 OFFCURVE",
"156 0 OFFCURVE",
"300 0 CURVE SMOOTH",
"322 0 LINE SMOOTH",
"362 0 OFFCURVE",
"433 5 OFFCURVE",
"461 19 CURVE",
"495 84 LINE",
"499 84 LINE",
"511 68 LINE SMOOTH",
"543 25 OFFCURVE",
"582 -2 OFFCURVE",
"641 -2 CURVE SMOOTH",
"650 -2 OFFCURVE",
"665 -1 OFFCURVE",
"680 5 CURVE",
"723 84 LINE",
"727 84 LINE",
"739 67 LINE SMOOTH",
"778 12 OFFCURVE",
"812 0 OFFCURVE",
"833 0 CURVE SMOOTH",
"843 0 LINE"
);
}
);
width = 893;
}
);
},
{
glyphname = uni071A.Fina;
lastChange = "2018-09-11 18:35:11 +0000";
layers = (
{
anchors = (
{
name = Anchor6;
position = "{553, -99}";
},
{
name = Anchor8;
position = "{503, 552}";
}
);
layerId = "5079F400-2279-4A14-BBD5-92ED0538B068";
paths = (
{
closed = 1;
nodes = (
"317 -5 OFFCURVE",
"378 9 OFFCURVE",
"418 41 CURVE",
"463 2 OFFCURVE",
"511 -5 OFFCURVE",
"562 -5 CURVE SMOOTH",
"614 -5 OFFCURVE",
"667 8 OFFCURVE",
"704 41 CURVE",
"740 12 OFFCURVE",
"792 0 OFFCURVE",
"852 0 CURVE",
"852 185 LINE",
"819 185 OFFCURVE",
"778 192 OFFCURVE",
"765 208 CURVE",
"765 217 LINE SMOOTH",
"765 251 OFFCURVE",
"765 308 OFFCURVE",
"748 369 CURVE SMOOTH",
"727 446 OFFCURVE",
"691 452 OFFCURVE",
"667 452 CURVE SMOOTH",
"627 452 OFFCURVE",
"578 433 OFFCURVE",
"578 366 CURVE SMOOTH",
"578 310 OFFCURVE",
"592 233 OFFCURVE",
"604 195 CURVE",
"594 185 OFFCURVE",
"571 181 OFFCURVE",
"552 181 CURVE SMOOTH",
"526 181 OFFCURVE",
"500 189 OFFCURVE",
"488 205 CURVE",
"488 255 OFFCURVE",
"484 322 OFFCURVE",
"469 371 CURVE SMOOTH",
"449 435 OFFCURVE",
"416 441 OFFCURVE",
"395 441 CURVE SMOOTH",
"345 441 OFFCURVE",
"305 422 OFFCURVE",
"305 349 CURVE SMOOTH",
"305 304 OFFCURVE",
"312 253 OFFCURVE",
"332 198 CURVE",
"320 185 OFFCURVE",
"287 180 OFFCURVE",
"271 180 CURVE SMOOTH",
"218 180 OFFCURVE",
"180 199 OFFCURVE",
"147 235 CURVE",
"38 120 LINE",
"71 46 OFFCURVE",
"156 -5 OFFCURVE",
"261 -5 CURVE SMOOTH"
);
}
);
width = 852;
}
);
},
{
glyphname = uni071A.Fina.SYRJ;
lastChange = "2018-09-11 18:35:11 +0000";
layers = (
{
anchors = (
{
name = Anchor123;
position = "{469, -98}";
},
{
name = Anchor125;
position = "{627, 468}";
}
);
layerId = "5079F400-2279-4A14-BBD5-92ED0538B068";
paths = (
{
closed = 1;
nodes = (
"923 185 LINE",
"882 185 OFFCURVE",
"864 194 OFFCURVE",
"858 199 CURVE",
"850 214 OFFCURVE",
"835 245 OFFCURVE",
"827 263 CURVE SMOOTH",
"801 321 OFFCURVE",
"773 329 OFFCURVE",
"748 329 CURVE SMOOTH",
"713 329 OFFCURVE",
"695 306 OFFCURVE",
"679 278 CURVE SMOOTH",
"665 253 LINE SMOOTH",
"636 201 OFFCURVE",
"631 192 OFFCURVE",
"621 192 CURVE SMOOTH",
"612 192 LINE SMOOTH",
"603 192 OFFCURVE",
"596 201 OFFCURVE",
"573 253 CURVE SMOOTH",
"552 300 OFFCURVE",
"538 329 OFFCURVE",
"495 329 CURVE SMOOTH",
"463 329 OFFCURVE",
"444 319 OFFCURVE",
"422 279 CURVE SMOOTH",
"395 231 LINE SMOOTH",
"372 189 OFFCURVE",
"341 174 OFFCURVE",
"298 174 CURVE SMOOTH",
"213 174 OFFCURVE",
"195 228 OFFCURVE",
"185 300 CURVE",
"47 297 LINE",
"45 282 OFFCURVE",
"45 261 OFFCURVE",
"45 255 CURVE SMOOTH",
"45 76 OFFCURVE",
"147 -5 OFFCURVE",
"292 -5 CURVE SMOOTH",
"347 -5 OFFCURVE",
"420 8 OFFCURVE",
"473 49 CURVE",
"495 21 OFFCURVE",
"534 -3 OFFCURVE",
"588 -3 CURVE SMOOTH",
"628 -3 OFFCURVE",
"661 6 OFFCURVE",
"686 25 CURVE SMOOTH",
"695 32 OFFCURVE",
"704 40 OFFCURVE",
"711 49 CURVE",
"766 11 OFFCURVE",
"837 0 OFFCURVE",
"913 0 CURVE SMOOTH",
"923 0 LINE"
);
}
);
width = 923;
}
);
},
{
glyphname = uni071A.Fina.SYRN;
lastChange = "2018-09-11 18:35:11 +0000";
layers = (
{
anchors = (
{
name = Anchor66;
position = "{499, -98}";
},
{
name = Anchor68;
position = "{609, 500}";
}
);
layerId = "5079F400-2279-4A14-BBD5-92ED0538B068";
paths = (
{
closed = 1;
nodes = (
"677 315 LINE",
"621 181 LINE",
"615 183 OFFCURVE",
"603 199 OFFCURVE",
"586 222 CURVE SMOOTH",
"515 318 LINE",
"452 315 LINE",
"390 191 LINE",
"368 185 OFFCURVE",
"343 185 OFFCURVE",
"321 185 CURVE SMOOTH",
"317 185 LINE SMOOTH",
"242 185 OFFCURVE",
"182 189 OFFCURVE",
"132 247 CURVE",
"37 130 LINE",
"61 45 OFFCURVE",
"156 0 OFFCURVE",
"300 0 CURVE SMOOTH",
"322 0 LINE SMOOTH",
"362 0 OFFCURVE",
"433 5 OFFCURVE",
"461 19 CURVE",
"495 84 LINE",
"499 84 LINE",
"511 68 LINE SMOOTH",
"543 25 OFFCURVE",
"572 -2 OFFCURVE",
"636 -2 CURVE SMOOTH",
"651 -2 OFFCURVE",
"669 0 OFFCURVE",
"683 5 CURVE",
"720 84 LINE",
"724 84 LINE",
"738 67 LINE SMOOTH",
"785 7 OFFCURVE",
"825 0 OFFCURVE",
"881 0 CURVE",
"881 185 LINE",
"840 185 OFFCURVE",
"831 196 OFFCURVE",
"792 248 CURVE SMOOTH",
"740 318 LINE"
);
}
);
width = 881;
}
);
},
{
glyphname = uni071A.Medi;
lastChange = "2018-09-11 18:35:11 +0000";
layers = (
{
anchors = (
{
name = Anchor6;
position = "{345, -98}";
},
{
name = Anchor8;
position = "{303, 551}";
}
);
layerId = "5079F400-2279-4A14-BBD5-92ED0538B068";
paths = (
{
closed = 1;
nodes = (
"644 185 LINE",
"611 185 OFFCURVE",
"570 187 OFFCURVE",
"557 203 CURVE",
"557 217 LINE SMOOTH",
"557 251 OFFCURVE",
"557 307 OFFCURVE",
"540 369 CURVE SMOOTH",
"519 446 OFFCURVE",
"483 452 OFFCURVE",
"459 452 CURVE SMOOTH",
"419 452 OFFCURVE",
"370 433 OFFCURVE",
"370 366 CURVE SMOOTH",
"370 310 OFFCURVE",
"384 233 OFFCURVE",
"396 195 CURVE",
"384 185 OFFCURVE",
"363 181 OFFCURVE",
"344 181 CURVE SMOOTH",
"318 181 OFFCURVE",
"292 186 OFFCURVE",
"280 202 CURVE",
"280 252 OFFCURVE",
"276 322 OFFCURVE",
"261 371 CURVE SMOOTH",
"241 435 OFFCURVE",
"208 441 OFFCURVE",
"187 441 CURVE SMOOTH",
"137 441 OFFCURVE",
"97 422 OFFCURVE",
"97 349 CURVE SMOOTH",
"97 304 OFFCURVE",
"102 257 OFFCURVE",
"122 202 CURVE",
"110 190 OFFCURVE",
"54 185 OFFCURVE",
"14 185 CURVE SMOOTH",
"0 185 LINE SMOOTH",
"-24 185 OFFCURVE",
"-40 141 OFFCURVE",
"-40 92 CURVE SMOOTH",
"-40 42 OFFCURVE",
"-24 0 OFFCURVE",
"0 0 CURVE SMOOTH",
"13 0 LINE SMOOTH",
"93 0 OFFCURVE",
"147 9 OFFCURVE",
"206 41 CURVE",
"255 0 OFFCURVE",
"295 -5 OFFCURVE",
"346 -5 CURVE SMOOTH",
"406 -5 OFFCURVE",
"459 9 OFFCURVE",
"496 41 CURVE",
"532 12 OFFCURVE",
"584 0 OFFCURVE",
"644 0 CURVE"
);
}
);
width = 644;
}
);
},
{
glyphname = uni071A.Medi.SYRJ;
lastChange = "2018-09-11 18:35:11 +0000";
layers = (
{
anchors = (
{
name = Anchor123;
position = "{295, -98}";
},
{
name = Anchor125;
position = "{327, 476}";
}
);
layerId = "5079F400-2279-4A14-BBD5-92ED0538B068";
paths = (
{
closed = 1;
nodes = (
"633 185 LINE",
"592 185 OFFCURVE",
"574 194 OFFCURVE",
"568 199 CURVE",
"560 214 OFFCURVE",
"545 245 OFFCURVE",
"537 263 CURVE SMOOTH",
"511 321 OFFCURVE",
"483 329 OFFCURVE",
"458 329 CURVE SMOOTH",
"423 329 OFFCURVE",
"405 306 OFFCURVE",
"389 278 CURVE SMOOTH",
"375 253 LINE SMOOTH",
"346 201 OFFCURVE",
"341 192 OFFCURVE",
"331 192 CURVE SMOOTH",
"322 192 LINE SMOOTH",
"313 192 OFFCURVE",
"306 201 OFFCURVE",
"283 253 CURVE SMOOTH",
"262 300 OFFCURVE",
"248 329 OFFCURVE",
"205 329 CURVE SMOOTH",
"168 329 OFFCURVE",
"153 315 OFFCURVE",
"128 276 CURVE SMOOTH",
"109 247 LINE SMOOTH",
"80 204 OFFCURVE",
"58 185 OFFCURVE",
"-4 185 CURVE SMOOTH",
"-28 185 OFFCURVE",
"-44 141 OFFCURVE",
"-44 92 CURVE SMOOTH",
"-44 42 OFFCURVE",
"-28 0 OFFCURVE",
"-4 0 CURVE SMOOTH",
"51 0 OFFCURVE",
"102 7 OFFCURVE",
"141 25 CURVE SMOOTH",
"155 31 OFFCURVE",
"169 40 OFFCURVE",
"181 49 CURVE",
"203 21 OFFCURVE",
"244 -3 OFFCURVE",
"298 -3 CURVE SMOOTH",
"338 -3 OFFCURVE",
"371 7 OFFCURVE",
"396 25 CURVE SMOOTH",
"405 32 OFFCURVE",
"414 40 OFFCURVE",
"421 49 CURVE",
"476 11 OFFCURVE",
"547 0 OFFCURVE",
"623 0 CURVE SMOOTH",
"633 0 LINE"
);
}
);
width = 633;
}
);
},
{
glyphname = uni071A.Medi.SYRN;
lastChange = "2018-09-11 18:35:11 +0000";
layers = (
{
anchors = (
{
name = Anchor66;
position = "{279, -102}";
},
{
name = Anchor68;
position = "{279, 500}";
}
);
layerId = "5079F400-2279-4A14-BBD5-92ED0538B068";
paths = (
{
closed = 1;
nodes = (
"40 0 OFFCURVE",
"104 5 OFFCURVE",
"132 19 CURVE",
"166 84 LINE",
"170 84 LINE",
"182 68 LINE SMOOTH",
"214 25 OFFCURVE",
"243 -2 OFFCURVE",
"307 -2 CURVE SMOOTH",
"322 -2 OFFCURVE",
"340 0 OFFCURVE",
"354 5 CURVE",
"391 84 LINE",
"395 84 LINE",
"409 67 LINE SMOOTH",
"456 7 OFFCURVE",
"496 0 OFFCURVE",
"552 0 CURVE",
"552 185 LINE",
"511 185 OFFCURVE",
"502 196 OFFCURVE",
"463 248 CURVE SMOOTH",
"411 318 LINE",
"348 315 LINE",
"292 181 LINE",
"281 190 OFFCURVE",
"274 199 OFFCURVE",
"256 223 CURVE SMOOTH",
"186 318 LINE",
"123 315 LINE",
"61 191 LINE",
"47 185 OFFCURVE",
"19 185 OFFCURVE",
"0 185 CURVE SMOOTH",
"-24 185 OFFCURVE",
"-40 141 OFFCURVE",
"-40 92 CURVE SMOOTH",
"-40 42 OFFCURVE",
"-24 0 OFFCURVE",
"0 0 CURVE SMOOTH"
);
}
);
width = 552;
}
);
},
{
glyphname = uni071A.Init;
lastChange = "2018-09-11 18:35:11 +0000";
layers = (
{
anchors = (
{
name = Anchor6;
position = "{346, -98}";
},
{
name = Anchor8;
position = "{303, 552}";
}
);
layerId = "5079F400-2279-4A14-BBD5-92ED0538B068";
paths = (
{
closed = 1;
nodes = (
"11 0 LINE SMOOTH",
"92 0 OFFCURVE",
"147 9 OFFCURVE",
"206 41 CURVE",
"255 -1 OFFCURVE",
"303 -5 OFFCURVE",
"354 -5 CURVE SMOOTH",
"509 -5 OFFCURVE",
"557 117 OFFCURVE",
"557 217 CURVE SMOOTH",
"557 251 OFFCURVE",
"557 306 OFFCURVE",
"540 369 CURVE SMOOTH",
"519 446 OFFCURVE",
"483 452 OFFCURVE",
"459 452 CURVE SMOOTH",
"419 452 OFFCURVE",
"370 433 OFFCURVE",
"370 366 CURVE SMOOTH",
"370 310 OFFCURVE",
"384 233 OFFCURVE",
"396 195 CURVE",
"384 185 OFFCURVE",
"363 181 OFFCURVE",
"344 181 CURVE SMOOTH",
"318 181 OFFCURVE",
"292 186 OFFCURVE",
"280 202 CURVE",
"280 252 OFFCURVE",
"276 322 OFFCURVE",
"261 371 CURVE SMOOTH",
"241 435 OFFCURVE",
"208 441 OFFCURVE",
"187 441 CURVE SMOOTH",
"137 441 OFFCURVE",
"97 422 OFFCURVE",
"97 349 CURVE SMOOTH",
"97 304 OFFCURVE",
"102 257 OFFCURVE",
"122 202 CURVE",
"110 190 OFFCURVE",
"54 185 OFFCURVE",
"14 185 CURVE SMOOTH",
"0 185 LINE SMOOTH",
"-24 185 OFFCURVE",
"-40 141 OFFCURVE",
"-40 92 CURVE SMOOTH",
"-40 42 OFFCURVE",
"-24 0 OFFCURVE",
"0 0 CURVE SMOOTH"
);
}
);
width = 625;
}
);
},
{
glyphname = uni071A.Init.SYRJ;
lastChange = "2018-09-11 18:35:11 +0000";
layers = (
{
anchors = (
{
name = Anchor123;
position = "{293, -98}";
},
{
name = Anchor125;
position = "{326, 476}";
}
);
layerId = "5079F400-2279-4A14-BBD5-92ED0538B068";
paths = (
{
closed = 1;
nodes = (
"549 269 OFFCURVE",
"531 332 OFFCURVE",
"465 332 CURVE SMOOTH",
"422 332 OFFCURVE",
"403 309 OFFCURVE",
"383 266 CURVE SMOOTH",
"349 192 OFFCURVE",
"343 185 OFFCURVE",
"337 185 CURVE SMOOTH",
"326 185 LINE SMOOTH",
"316 185 OFFCURVE",
"312 194 OFFCURVE",
"287 253 CURVE SMOOTH",
"266 303 OFFCURVE",
"248 329 OFFCURVE",
"207 329 CURVE SMOOTH",
"175 329 OFFCURVE",
"159 318 OFFCURVE",
"132 275 CURVE SMOOTH",
"114 247 LINE SMOOTH",
"85 202 OFFCURVE",
"60 185 OFFCURVE",
"0 185 CURVE SMOOTH",
"-24 185 OFFCURVE",
"-40 141 OFFCURVE",
"-40 92 CURVE SMOOTH",
"-40 42 OFFCURVE",
"-24 0 OFFCURVE",
"0 0 CURVE SMOOTH",
"52 0 OFFCURVE",
"103 7 OFFCURVE",
"146 27 CURVE SMOOTH",
"158 33 OFFCURVE",
"170 40 OFFCURVE",
"181 49 CURVE",
"223 11 OFFCURVE",
"271 0 OFFCURVE",
"325 0 CURVE SMOOTH",
"413 0 OFFCURVE",
"477 36 OFFCURVE",
"516 94 CURVE SMOOTH",
"537 126 OFFCURVE",
"549 165 OFFCURVE",
"549 212 CURVE SMOOTH"
);
}
);
width = 604;
}
);
},
{
glyphname = uni071A.Init.SYRN;
lastChange = "2018-09-11 18:35:11 +0000";
layers = (
{
anchors = (
{
name = Anchor66;
position = "{289, -100}";
},
{
name = Anchor68;
position = "{279, 500}";
}
);
layerId = "5079F400-2279-4A14-BBD5-92ED0538B068";
paths = (
{
closed = 1;
nodes = (
"394 84 LINE",
"398 84 LINE",
"408 70 LINE SMOOTH",
"447 16 OFFCURVE",
"482 0 OFFCURVE",
"504 0 CURVE SMOOTH",
"514 0 LINE",
"514 181 LINE",
"416 318 LINE",
"353 315 LINE",
"292 181 LINE",
"286 182 OFFCURVE",
"265 210 OFFCURVE",
"248 234 CURVE SMOOTH",
"186 318 LINE",
"123 315 LINE",
"61 191 LINE",
"47 185 OFFCURVE",
"15 185 OFFCURVE",
"0 185 CURVE SMOOTH",
"-24 185 OFFCURVE",
"-40 141 OFFCURVE",
"-40 92 CURVE SMOOTH",
"-40 42 OFFCURVE",
"-24 0 OFFCURVE",
"0 0 CURVE SMOOTH",
"40 0 OFFCURVE",
"104 5 OFFCURVE",
"132 19 CURVE",
"166 84 LINE",
"170 84 LINE",
"182 68 LINE SMOOTH",
"214 25 OFFCURVE",
"253 -2 OFFCURVE",
"312 -2 CURVE SMOOTH",
"321 -2 OFFCURVE",
"336 -1 OFFCURVE",
"351 5 CURVE"
);
}
);
width = 564;
}
);
},
{
glyphname = uni071B;
lastChange = "2018-09-11 18:35:11 +0000";
layers = (
{
anchors = (
{
name = Anchor6;
position = "{563, -418}";
},
{
name = Anchor8;
position = "{640, 795}";
}
);
layerId = "5079F400-2279-4A14-BBD5-92ED0538B068";
paths = (
{
closed = 1;
nodes = (
"618 -193 LINE SMOOTH",
"645 -263 OFFCURVE",
"670 -319 OFFCURVE",
"712 -347 CURVE SMOOTH",
"732 -360 OFFCURVE",
"754 -367 OFFCURVE",
"788 -367 CURVE SMOOTH",
"835 -367 OFFCURVE",
"860 -355 OFFCURVE",
"895 -320 CURVE SMOOTH",
"973 -242 OFFCURVE",
"1059 -62 OFFCURVE",
"1059 155 CURVE SMOOTH",
"1059 185 LINE",
"664 185 LINE",
"459 763 LINE",
"284 704 LINE",
"484 185 LINE",
"390 185 LINE SMOOTH",
"278 185 OFFCURVE",
"190 204 OFFCURVE",
"152 256 CURVE",
"38 143 LINE",
"78 49 OFFCURVE",
"168 0 OFFCURVE",
"331 0 CURVE SMOOTH",
"542 0 LINE"
);
},
{
closed = 1;
nodes = (
"806 -209 LINE",
"800 -199 OFFCURVE",
"785 -166 OFFCURVE",
"771 -128 CURVE SMOOTH",
"724 0 LINE",
"893 0 LINE",
"887 -50 OFFCURVE",
"839 -167 OFFCURVE",
"809 -209 CURVE"
);
}
);
width = 1095;
}
);
unicode = 071B;
},
{
glyphname = uni071B.SYRJ;
lastChange = "2018-09-11 18:35:11 +0000";
layers = (
{
anchors = (
{
name = Anchor123;
position = "{322, -421}";
},
{
name = Anchor125;
position = "{252, 710}";
}
);
layerId = "5079F400-2279-4A14-BBD5-92ED0538B068";
paths = (
{
closed = 1;
nodes = (
"566 27 OFFCURVE",
"481 94 OFFCURVE",
"389 146 CURVE",
"402 164 OFFCURVE",
"415 181 OFFCURVE",
"432 206 CURVE SMOOTH",
"489 291 OFFCURVE",
"528 371 OFFCURVE",
"528 462 CURVE SMOOTH",
"528 562 OFFCURVE",
"494 638 OFFCURVE",
"415 695 CURVE",
"410 695 LINE",
"300 570 LINE",
"345 525 OFFCURVE",
"362 492 OFFCURVE",
"362 435 CURVE SMOOTH",
"362 388 OFFCURVE",
"346 344 OFFCURVE",
"312 294 CURVE SMOOTH",
"295 268 OFFCURVE",
"277 243 OFFCURVE",
"260 217 CURVE",
"213 246 OFFCURVE",
"175 278 OFFCURVE",
"135 319 CURVE",
"126 319 LINE",
"37 186 LINE",
"62 147 OFFCURVE",
"112 108 OFFCURVE",
"163 74 CURVE",
"122 8 OFFCURVE",
"103 -47 OFFCURVE",
"103 -113 CURVE SMOOTH",
"103 -251 OFFCURVE",
"205 -335 OFFCURVE",
"325 -335 CURVE SMOOTH",
"440 -335 OFFCURVE",
"566 -259 OFFCURVE",
"566 -96 CURVE SMOOTH"
);
},
{
closed = 1;
nodes = (
"414 -154 OFFCURVE",
"376 -175 OFFCURVE",
"335 -175 CURVE SMOOTH",
"278 -175 OFFCURVE",
"255 -137 OFFCURVE",
"255 -95 CURVE SMOOTH",
"255 -57 OFFCURVE",
"272 -21 OFFCURVE",
"298 7 CURVE",
"369 -21 OFFCURVE",
"414 -50 OFFCURVE",
"414 -102 CURVE SMOOTH"
);
}
);
width = 613;
}
);
},
{
glyphname = uni071B.SYRN;
lastChange = "2018-09-11 18:35:11 +0000";
layers = (
{
anchors = (
{
name = Anchor66;
position = "{441, -98}";
},
{
name = Anchor68;
position = "{416, 798}";
}
);
layerId = "5079F400-2279-4A14-BBD5-92ED0538B068";
paths = (
{
closed = 1;
nodes = (
"933 -285 LINE",
"1125 5 LINE",
"1125 185 LINE",
"797 185 LINE",
"515 743 LINE",
"360 661 LINE",
"604 185 LINE",
"320 185 LINE SMOOTH",
"245 185 OFFCURVE",
"177 188 OFFCURVE",
"132 247 CURVE",
"37 130 LINE",
"61 45 OFFCURVE",
"163 0 OFFCURVE",
"307 0 CURVE SMOOTH",
"691 0 LINE",
"833 -285 LINE"
);
},
{
closed = 1;
nodes = (
"940 -123 LINE",
"884 0 LINE",
"1018 0 LINE"
);
}
);
width = 1175;
}
);
},
{
glyphname = uni071B.Fina;
lastChange = "2018-09-11 18:35:11 +0000";
layers = (
{
anchors = (
{
name = Anchor6;
position = "{563, -418}";
},
{
name = Anchor8;
position = "{641, 794}";
}
);
layerId = "5079F400-2279-4A14-BBD5-92ED0538B068";
paths = (
{
closed = 1;
nodes = (
"618 -193 LINE SMOOTH",
"645 -263 OFFCURVE",
"670 -319 OFFCURVE",
"712 -347 CURVE SMOOTH",
"732 -360 OFFCURVE",
"754 -367 OFFCURVE",
"788 -367 CURVE SMOOTH",
"835 -367 OFFCURVE",
"860 -355 OFFCURVE",
"895 -320 CURVE SMOOTH",
"973 -242 OFFCURVE",
"1059 -62 OFFCURVE",
"1059 155 CURVE SMOOTH",
"1059 185 LINE",
"664 185 LINE",
"459 763 LINE",
"284 704 LINE",
"484 185 LINE",
"390 185 LINE SMOOTH",
"278 185 OFFCURVE",
"190 204 OFFCURVE",
"152 256 CURVE",
"38 143 LINE",
"78 49 OFFCURVE",
"168 0 OFFCURVE",
"331 0 CURVE SMOOTH",
"542 0 LINE"
);
},
{
closed = 1;
nodes = (
"806 -209 LINE",
"800 -199 OFFCURVE",
"785 -166 OFFCURVE",
"771 -128 CURVE SMOOTH",
"724 0 LINE",
"893 0 LINE",
"887 -50 OFFCURVE",
"839 -167 OFFCURVE",
"809 -209 CURVE"
);
}
);
width = 1017;
}
);
},
{
glyphname = uni071B.Fina.SYRJ;
lastChange = "2018-09-11 18:35:11 +0000";
layers = (
{
anchors = (
{
name = Anchor123;
position = "{357, -420}";
},
{
name = Anchor125;
position = "{350, 700}";
}
);
layerId = "5079F400-2279-4A14-BBD5-92ED0538B068";
paths = (
{
closed = 1;
nodes = (
"598 41 OFFCURVE",
"497 108 OFFCURVE",
"377 169 CURVE",
"385 201 OFFCURVE",
"391 233 OFFCURVE",
"395 264 CURVE SMOOTH",
"399 299 OFFCURVE",
"401 334 OFFCURVE",
"402 368 CURVE SMOOTH",
"402 383 OFFCURVE",
"403 398 OFFCURVE",
"403 412 CURVE",
"408 412 LINE",
"466 318 OFFCURVE",
"531 217 OFFCURVE",
"591 133 CURVE SMOOTH",
"645 58 OFFCURVE",
"705 0 OFFCURVE",
"807 0 CURVE",
"807 185 LINE",
"772 185 OFFCURVE",
"742 196 OFFCURVE",
"713 231 CURVE SMOOTH",
"645 314 OFFCURVE",
"493 554 OFFCURVE",
"440 639 CURVE",
"274 590 LINE",
"276 561 OFFCURVE",
"276 520 OFFCURVE",
"276 502 CURVE SMOOTH",
"276 444 OFFCURVE",
"274 386 OFFCURVE",
"266 324 CURVE SMOOTH",
"262 293 OFFCURVE",
"257 261 OFFCURVE",
"249 227 CURVE",
"204 251 OFFCURVE",
"157 283 OFFCURVE",
"124 315 CURVE",
"115 315 LINE",
"39 180 LINE",
"68 142 OFFCURVE",
"135 101 OFFCURVE",
"194 66 CURVE",
"162 -5 OFFCURVE",
"147 -60 OFFCURVE",
"147 -121 CURVE SMOOTH",
"147 -251 OFFCURVE",
"238 -336 OFFCURVE",
"358 -336 CURVE SMOOTH",
"471 -336 OFFCURVE",
"598 -265 OFFCURVE",
"598 -99 CURVE SMOOTH"
);
},
{
closed = 1;
nodes = (
"451 -145 OFFCURVE",
"419 -176 OFFCURVE",
"371 -176 CURVE SMOOTH",
"314 -176 OFFCURVE",
"295 -136 OFFCURVE",
"295 -93 CURVE SMOOTH",
"295 -60 OFFCURVE",
"306 -24 OFFCURVE",
"326 16 CURVE",
"416 -25 OFFCURVE",
"451 -49 OFFCURVE",
"451 -108 CURVE SMOOTH"
);
}
);
width = 807;
}
);
},
{
glyphname = uni071B.Fina.SYRN;
lastChange = "2018-09-11 18:35:11 +0000";
layers = (
{
anchors = (
{
name = Anchor66;
position = "{441, -98}";
},
{
name = Anchor68;
position = "{418, 799}";
}
);
layerId = "5079F400-2279-4A14-BBD5-92ED0538B068";
paths = (
{
closed = 1;
nodes = (
"933 -285 LINE",
"1125 5 LINE",
"1125 185 LINE",
"797 185 LINE",
"515 743 LINE",
"360 661 LINE",
"604 185 LINE",
"320 185 LINE SMOOTH",
"245 185 OFFCURVE",
"177 188 OFFCURVE",
"132 247 CURVE",
"37 130 LINE",
"61 45 OFFCURVE",
"163 0 OFFCURVE",
"307 0 CURVE SMOOTH",
"691 0 LINE",
"833 -285 LINE"
);
},
{
closed = 1;
nodes = (
"940 -123 LINE",
"884 0 LINE",
"1018 0 LINE"
);
}
);
width = 1061;
}
);
},
{
glyphname = uni071B.Medi;
lastChange = "2018-09-11 18:35:11 +0000";
layers = (
{
anchors = (
{
name = Anchor6;
position = "{254, -418}";
},
{
name = Anchor8;
position = "{322, 795}";
}
);
layerId = "5079F400-2279-4A14-BBD5-92ED0538B068";
paths = (
{
closed = 1;
nodes = (
"301 -193 LINE SMOOTH",
"328 -263 OFFCURVE",
"352 -316 OFFCURVE",
"394 -347 CURVE SMOOTH",
"414 -361 OFFCURVE",
"437 -367 OFFCURVE",
"471 -367 CURVE SMOOTH",
"516 -367 OFFCURVE",
"543 -355 OFFCURVE",
"578 -320 CURVE SMOOTH",
"656 -242 OFFCURVE",
"742 -62 OFFCURVE",
"742 155 CURVE SMOOTH",
"742 185 LINE",
"347 185 LINE",
"141 763 LINE",
"-34 704 LINE",
"167 185 LINE",
"0 185 LINE SMOOTH",
"-24 185 OFFCURVE",
"-40 141 OFFCURVE",
"-40 92 CURVE SMOOTH",
"-40 42 OFFCURVE",
"-24 0 OFFCURVE",
"0 0 CURVE SMOOTH",
"225 0 LINE"
);
},
{
closed = 1;
nodes = (
"489 -209 LINE",
"483 -199 OFFCURVE",
"468 -166 OFFCURVE",
"454 -128 CURVE SMOOTH",
"407 0 LINE",
"576 0 LINE",
"570 -50 OFFCURVE",
"522 -167 OFFCURVE",
"492 -209 CURVE"
);
}
);
width = 700;
}
);
},
{
glyphname = uni071B.Medi.SYRJ;
lastChange = "2018-09-11 18:35:11 +0000";
layers = (
{
anchors = (
{
name = Anchor123;
position = "{233, -421}";
},
{
name = Anchor125;
position = "{221, 700}";
}
);
layerId = "5079F400-2279-4A14-BBD5-92ED0538B068";
paths = (
{
closed = 1;
nodes = (
"476 31 OFFCURVE",
"405 141 OFFCURVE",
"275 174 CURVE SMOOTH",
"268 176 OFFCURVE",
"258 178 OFFCURVE",
"251 179 CURVE",
"256 203 OFFCURVE",
"261 233 OFFCURVE",
"264 259 CURVE SMOOTH",
"269 297 OFFCURVE",
"272 329 OFFCURVE",
"274 364 CURVE SMOOTH",
"275 380 OFFCURVE",
"275 396 OFFCURVE",
"275 412 CURVE",
"280 412 LINE",
"338 318 OFFCURVE",
"403 217 OFFCURVE",
"463 133 CURVE SMOOTH",
"517 57 OFFCURVE",
"577 0 OFFCURVE",
"679 0 CURVE",
"679 185 LINE",
"644 185 OFFCURVE",
"614 196 OFFCURVE",
"585 231 CURVE SMOOTH",
"517 314 OFFCURVE",
"365 554 OFFCURVE",
"312 639 CURVE",
"146 590 LINE",
"148 561 OFFCURVE",
"148 529 OFFCURVE",
"148 511 CURVE SMOOTH",
"148 437 OFFCURVE",
"138 354 OFFCURVE",
"122 271 CURVE SMOOTH",
"116 242 OFFCURVE",
"110 213 OFFCURVE",
"103 185 CURVE",
"0 185 LINE SMOOTH",
"-24 185 OFFCURVE",
"-40 141 OFFCURVE",
"-40 92 CURVE SMOOTH",
"-40 42 OFFCURVE",
"-24 0 OFFCURVE",
"0 0 CURVE SMOOTH",
"39 0 LINE",
"24 -43 OFFCURVE",
"19 -76 OFFCURVE",
"19 -122 CURVE SMOOTH",
"19 -248 OFFCURVE",
"109 -335 OFFCURVE",
"234 -335 CURVE SMOOTH",
"348 -335 OFFCURVE",
"476 -272 OFFCURVE",
"476 -78 CURVE SMOOTH"
);
},
{
closed = 1;
nodes = (
"331 -157 OFFCURVE",
"288 -175 OFFCURVE",
"247 -175 CURVE SMOOTH",
"200 -175 OFFCURVE",
"168 -143 OFFCURVE",
"168 -87 CURVE SMOOTH",
"168 -61 OFFCURVE",
"178 -28 OFFCURVE",
"194 0 CURVE",
"202 0 OFFCURVE",
"210 -1 OFFCURVE",
"217 -2 CURVE SMOOTH",
"299 -13 OFFCURVE",
"331 -46 OFFCURVE",
"331 -99 CURVE SMOOTH"
);
}
);
width = 679;
}
);
},
{
glyphname = uni071B.Medi.SYRN;
lastChange = "2018-09-11 18:35:11 +0000";
layers = (
{
anchors = (
{
name = Anchor66;
position = "{192, -98}";
},
{
name = Anchor68;
position = "{50, 800}";
}
);
layerId = "5079F400-2279-4A14-BBD5-92ED0538B068";
paths = (
{
closed = 1;
nodes = (
"568 -285 LINE",
"760 5 LINE",
"760 185 LINE",
"432 185 LINE",
"150 743 LINE",
"-5 661 LINE",
"239 185 LINE",
"0 185 LINE SMOOTH",
"-24 185 OFFCURVE",
"-40 141 OFFCURVE",
"-40 92 CURVE SMOOTH",
"-40 42 OFFCURVE",
"-24 0 OFFCURVE",
"0 0 CURVE SMOOTH",
"326 0 LINE",
"468 -285 LINE"
);
},
{
closed = 1;
nodes = (
"575 -123 LINE",
"519 0 LINE",
"653 0 LINE"
);
}
);
width = 696;
}
);
},
{
glyphname = uni071B.Init;
lastChange = "2018-09-11 18:35:11 +0000";
layers = (
{
anchors = (
{
name = Anchor6;
position = "{255, -419}";
},
{
name = Anchor8;
position = "{322, 795}";
}
);
layerId = "5079F400-2279-4A14-BBD5-92ED0538B068";
paths = (
{
closed = 1;
nodes = (
"301 -193 LINE SMOOTH",
"328 -263 OFFCURVE",
"352 -316 OFFCURVE",
"394 -347 CURVE SMOOTH",
"414 -361 OFFCURVE",
"437 -367 OFFCURVE",
"471 -367 CURVE SMOOTH",
"516 -367 OFFCURVE",
"543 -355 OFFCURVE",
"578 -320 CURVE SMOOTH",
"656 -242 OFFCURVE",
"742 -62 OFFCURVE",
"742 155 CURVE SMOOTH",
"742 185 LINE",
"347 185 LINE",
"141 763 LINE",
"-34 704 LINE",
"167 185 LINE",
"0 185 LINE SMOOTH",
"-24 185 OFFCURVE",
"-40 141 OFFCURVE",
"-40 92 CURVE SMOOTH",
"-40 42 OFFCURVE",
"-24 0 OFFCURVE",
"0 0 CURVE SMOOTH",
"225 0 LINE"
);
},
{
closed = 1;
nodes = (
"489 -209 LINE",
"483 -199 OFFCURVE",
"468 -166 OFFCURVE",
"454 -128 CURVE SMOOTH",
"407 0 LINE",
"576 0 LINE",
"570 -50 OFFCURVE",
"522 -167 OFFCURVE",
"492 -209 CURVE"
);
}
);
width = 778;
}
);
},
{
glyphname = uni071B.Init.SYRJ;
lastChange = "2018-09-11 18:35:11 +0000";
layers = (
{
anchors = (
{
name = Anchor123;
position = "{209, -421}";
},
{
name = Anchor125;
position = "{129, 709}";
}
);
layerId = "5079F400-2279-4A14-BBD5-92ED0538B068";
paths = (
{
closed = 1;
nodes = (
"457 44 OFFCURVE",
"391 112 OFFCURVE",
"301 154 CURVE SMOOTH",
"293 158 OFFCURVE",
"286 161 OFFCURVE",
"280 163 CURVE",
"290 177 OFFCURVE",
"301 192 OFFCURVE",
"311 206 CURVE SMOOTH",
"371 288 OFFCURVE",
"405 366 OFFCURVE",
"405 462 CURVE SMOOTH",
"405 562 OFFCURVE",
"370 638 OFFCURVE",
"291 695 CURVE",
"286 695 LINE",
"178 571 LINE",
"223 526 OFFCURVE",
"239 490 OFFCURVE",
"239 435 CURVE SMOOTH",
"239 388 OFFCURVE",
"224 345 OFFCURVE",
"190 294 CURVE SMOOTH",
"163 253 OFFCURVE",
"145 226 OFFCURVE",
"116 185 CURVE",
"0 185 LINE SMOOTH",
"-24 185 OFFCURVE",
"-40 141 OFFCURVE",
"-40 92 CURVE SMOOTH",
"-40 42 OFFCURVE",
"-24 0 OFFCURVE",
"0 0 CURVE SMOOTH",
"17 0 LINE",
"4 -38 OFFCURVE",
"-4 -73 OFFCURVE",
"-4 -115 CURVE SMOOTH",
"-4 -244 OFFCURVE",
"91 -335 OFFCURVE",
"209 -335 CURVE SMOOTH",
"328 -335 OFFCURVE",
"457 -273 OFFCURVE",
"457 -77 CURVE SMOOTH"
);
},
{
closed = 1;
nodes = (
"310 -153 OFFCURVE",
"265 -175 OFFCURVE",
"224 -175 CURVE SMOOTH",
"172 -175 OFFCURVE",
"147 -136 OFFCURVE",
"147 -91 CURVE SMOOTH",
"147 -53 OFFCURVE",
"159 -21 OFFCURVE",
"177 0 CURVE",
"184 0 OFFCURVE",
"193 -1 OFFCURVE",
"199 -2 CURVE SMOOTH",
"279 -12 OFFCURVE",
"310 -49 OFFCURVE",
"310 -99 CURVE SMOOTH"
);
}
);
width = 501;
}
);
},
{
glyphname = uni071B.Init.SYRN;
lastChange = "2018-09-11 18:35:11 +0000";
layers = (
{
anchors = (
{
name = Anchor66;
position = "{192, -98}";
},
{
name = Anchor68;
position = "{51, 799}";
}
);
layerId = "5079F400-2279-4A14-BBD5-92ED0538B068";
paths = (
{
closed = 1;
nodes = (
"568 -285 LINE",
"760 5 LINE",
"760 185 LINE",
"432 185 LINE",
"150 743 LINE",
"-5 661 LINE",
"239 185 LINE",
"0 185 LINE SMOOTH",
"-24 185 OFFCURVE",
"-40 141 OFFCURVE",
"-40 92 CURVE SMOOTH",
"-40 42 OFFCURVE",
"-24 0 OFFCURVE",
"0 0 CURVE SMOOTH",
"326 0 LINE",
"468 -285 LINE"
);
},
{
closed = 1;
nodes = (
"575 -123 LINE",
"519 0 LINE",
"653 0 LINE"
);
}
);
width = 810;
}
);
},
{
glyphname = uni071C;
lastChange = "2018-09-11 18:35:11 +0000";
layers = (
{
anchors = (
{
name = Anchor6;
position = "{563, -418}";
},
{
name = Anchor8;
position = "{641, 795}";
}
);
layerId = "5079F400-2279-4A14-BBD5-92ED0538B068";
paths = (
{
closed = 1;
nodes = (
"858 -147 OFFCURVE",
"876 -116 OFFCURVE",
"876 -81 CURVE SMOOTH",
"876 -47 OFFCURVE",
"859 -14 OFFCURVE",
"818 -14 CURVE SMOOTH",
"776 -14 OFFCURVE",
"757 -47 OFFCURVE",
"757 -81 CURVE SMOOTH",
"757 -116 OFFCURVE",
"775 -147 OFFCURVE",
"817 -147 CURVE SMOOTH"
);
},
{
closed = 1;
nodes = (
"614 -190 LINE SMOOTH",
"640 -260 OFFCURVE",
"670 -314 OFFCURVE",
"712 -345 CURVE SMOOTH",
"732 -359 OFFCURVE",
"764 -367 OFFCURVE",
"798 -367 CURVE SMOOTH",
"839 -367 OFFCURVE",
"879 -355 OFFCURVE",
"916 -322 CURVE SMOOTH",
"1001 -248 OFFCURVE",
"1069 -101 OFFCURVE",
"1069 146 CURVE SMOOTH",
"1069 185 LINE",
"664 185 LINE",
"458 763 LINE",
"283 704 LINE",
"484 185 LINE",
"390 185 LINE SMOOTH",
"278 185 OFFCURVE",
"190 204 OFFCURVE",
"152 256 CURVE",
"38 143 LINE",
"78 49 OFFCURVE",
"168 0 OFFCURVE",
"331 0 CURVE SMOOTH",
"542 0 LINE"
);
},
{
closed = 1;
nodes = (
"805 -232 LINE",
"785 -229 OFFCURVE",
"764 -212 OFFCURVE",
"745 -173 CURVE SMOOTH",
"727 -135 OFFCURVE",
"709 -75 OFFCURVE",
"694 16 CURVE",
"935 16 LINE",
"935 -56 OFFCURVE",
"897 -214 OFFCURVE",
"819 -232 CURVE"
);
}
);
width = 1105;
}
);
unicode = 071C;
},
{
glyphname = uni071C.SYRJ;
lastChange = "2018-09-11 18:35:11 +0000";
layers = (
{
anchors = (
{
name = Anchor123;
position = "{336, -421}";
},
{
name = Anchor125;
position = "{252, 708}";
}
);
layerId = "5079F400-2279-4A14-BBD5-92ED0538B068";
paths = (
{
closed = 1;
nodes = (
"586 39 OFFCURVE",
"514 105 OFFCURVE",
"416 169 CURVE",
"424 181 OFFCURVE",
"433 194 OFFCURVE",
"441 206 CURVE SMOOTH",
"499 291 OFFCURVE",
"537 371 OFFCURVE",
"537 462 CURVE SMOOTH",
"537 562 OFFCURVE",
"503 638 OFFCURVE",
"424 695 CURVE",
"419 695 LINE",
"307 567 LINE",
"352 522 OFFCURVE",
"367 488 OFFCURVE",
"367 437 CURVE SMOOTH",
"367 386 OFFCURVE",
"354 344 OFFCURVE",
"321 294 CURVE SMOOTH",
"310 276 OFFCURVE",
"298 258 OFFCURVE",
"287 240 CURVE",
"240 269 OFFCURVE",
"198 298 OFFCURVE",
"158 339 CURVE",
"149 339 LINE",
"56 202 LINE",
"81 163 OFFCURVE",
"126 129 OFFCURVE",
"177 95 CURVE",
"125 23 OFFCURVE",
"102 -41 OFFCURVE",
"102 -107 CURVE SMOOTH",
"102 -261 OFFCURVE",
"215 -335 OFFCURVE",
"335 -335 CURVE SMOOTH",
"449 -335 OFFCURVE",
"586 -271 OFFCURVE",
"586 -84 CURVE SMOOTH"
);
},
{
closed = 1;
nodes = (
"452 -188 OFFCURVE",
"401 -227 OFFCURVE",
"343 -227 CURVE SMOOTH",
"269 -227 OFFCURVE",
"232 -174 OFFCURVE",
"232 -117 CURVE SMOOTH",
"232 -56 OFFCURVE",
"264 -11 OFFCURVE",
"306 34 CURVE",
"419 -18 OFFCURVE",
"452 -52 OFFCURVE",
"452 -122 CURVE SMOOTH"
);
},
{
closed = 1;
nodes = (
"275 -161 OFFCURVE",
"306 -179 OFFCURVE",
"341 -179 CURVE SMOOTH",
"375 -179 OFFCURVE",
"408 -161 OFFCURVE",
"408 -118 CURVE SMOOTH",
"408 -74 OFFCURVE",
"375 -56 OFFCURVE",
"341 -56 CURVE SMOOTH",
"306 -56 OFFCURVE",
"275 -74 OFFCURVE",
"275 -118 CURVE SMOOTH"
);
}
);
width = 613;
}
);
},
{
glyphname = uni071C.SYRN;
lastChange = "2018-09-11 18:35:11 +0000";
layers = (
{
anchors = (
{
name = Anchor66;
position = "{439, -98}";
},
{
name = Anchor68;
position = "{418, 795}";
}
);
layerId = "5079F400-2279-4A14-BBD5-92ED0538B068";
paths = (
{
closed = 1;
nodes = (
"957 -306 LINE",
"1148 -10 LINE",
"1148 185 LINE",
"797 185 LINE",
"515 743 LINE",
"360 661 LINE",
"604 185 LINE",
"320 185 LINE SMOOTH",
"245 185 OFFCURVE",
"177 188 OFFCURVE",
"132 247 CURVE",
"37 130 LINE",
"61 45 OFFCURVE",
"163 0 OFFCURVE",
"307 0 CURVE SMOOTH",
"691 0 LINE",
"848 -306 LINE"
);
},
{
closed = 1;
nodes = (
"897 -222 OFFCURVE",
"866 -177 OFFCURVE",
"844 -124 CURVE SMOOTH",
"828 -85 OFFCURVE",
"816 -40 OFFCURVE",
"816 0 CURVE",
"1063 0 LINE",
"1056 -36 OFFCURVE",
"1034 -85 OFFCURVE",
"1006 -130 CURVE SMOOTH",
"978 -175 OFFCURVE",
"946 -216 OFFCURVE",
"921 -236 CURVE"
);
},
{
closed = 1;
nodes = (
"967 -120 LINE",
"967 -41 LINE",
"890 -41 LINE",
"890 -120 LINE"
);
}
);
width = 1198;
}
);
},
{
glyphname = uni071C.Fina;
lastChange = "2018-09-11 18:35:11 +0000";
layers = (
{
anchors = (
{
name = Anchor6;
position = "{563, -418}";
},
{
name = Anchor8;
position = "{641, 795}";
}
);
layerId = "5079F400-2279-4A14-BBD5-92ED0538B068";
paths = (
{
closed = 1;
nodes = (
"614 -190 LINE SMOOTH",
"640 -260 OFFCURVE",
"670 -314 OFFCURVE",
"712 -345 CURVE SMOOTH",
"732 -359 OFFCURVE",
"764 -367 OFFCURVE",
"798 -367 CURVE SMOOTH",
"839 -367 OFFCURVE",
"873 -354 OFFCURVE",
"910 -321 CURVE SMOOTH",
"995 -247 OFFCURVE",
"1069 -81 OFFCURVE",
"1069 146 CURVE SMOOTH",
"1069 185 LINE",
"664 185 LINE",
"458 763 LINE",
"283 704 LINE",
"484 185 LINE",
"390 185 LINE SMOOTH",
"278 185 OFFCURVE",
"190 204 OFFCURVE",
"152 256 CURVE",
"38 143 LINE",
"78 49 OFFCURVE",
"168 0 OFFCURVE",
"331 0 CURVE SMOOTH",
"542 0 LINE"
);
},
{
closed = 1;
nodes = (
"805 -232 LINE",
"785 -229 OFFCURVE",
"764 -212 OFFCURVE",
"745 -173 CURVE SMOOTH",
"727 -135 OFFCURVE",
"709 -75 OFFCURVE",
"694 16 CURVE",
"935 16 LINE",
"935 -56 OFFCURVE",
"897 -214 OFFCURVE",
"819 -232 CURVE"
);
},
{
closed = 1;
nodes = (
"858 -147 OFFCURVE",
"876 -116 OFFCURVE",
"876 -81 CURVE SMOOTH",
"876 -47 OFFCURVE",
"859 -14 OFFCURVE",
"818 -14 CURVE SMOOTH",
"776 -14 OFFCURVE",
"757 -47 OFFCURVE",
"757 -81 CURVE SMOOTH",
"757 -116 OFFCURVE",
"775 -147 OFFCURVE",
"817 -147 CURVE SMOOTH"
);
}
);
width = 1027;
}
);
},
{
glyphname = uni071C.Fina.SYRJ;
lastChange = "2018-09-11 18:35:11 +0000";
layers = (
{
anchors = (
{
name = Anchor123;
position = "{356, -427}";
},
{
name = Anchor125;
position = "{349, 699}";
}
);
layerId = "5079F400-2279-4A14-BBD5-92ED0538B068";
paths = (
{
closed = 1;
nodes = (
"604 45 OFFCURVE",
"491 116 OFFCURVE",
"374 170 CURVE",
"383 203 OFFCURVE",
"389 234 OFFCURVE",
"394 265 CURVE SMOOTH",
"399 299 OFFCURVE",
"401 322 OFFCURVE",
"402 357 CURVE SMOOTH",
"403 382 OFFCURVE",
"403 397 OFFCURVE",
"403 412 CURVE",
"408 412 LINE",
"466 318 OFFCURVE",
"531 217 OFFCURVE",
"591 133 CURVE SMOOTH",
"645 57 OFFCURVE",
"705 0 OFFCURVE",
"807 0 CURVE",
"807 185 LINE",
"772 185 OFFCURVE",
"742 196 OFFCURVE",
"713 231 CURVE SMOOTH",
"645 314 OFFCURVE",
"493 554 OFFCURVE",
"440 639 CURVE",
"274 590 LINE",
"276 561 OFFCURVE",
"276 520 OFFCURVE",
"276 502 CURVE SMOOTH",
"276 445 OFFCURVE",
"274 385 OFFCURVE",
"266 323 CURVE SMOOTH",
"262 289 OFFCURVE",
"256 254 OFFCURVE",
"248 219 CURVE",
"203 243 OFFCURVE",
"155 273 OFFCURVE",
"122 305 CURVE",
"113 305 LINE",
"37 170 LINE",
"68 129 OFFCURVE",
"131 88 OFFCURVE",
"190 56 CURVE",
"158 -8 OFFCURVE",
"138 -63 OFFCURVE",
"138 -124 CURVE SMOOTH",
"138 -262 OFFCURVE",
"237 -342 OFFCURVE",
"358 -342 CURVE SMOOTH",
"471 -342 OFFCURVE",
"604 -274 OFFCURVE",
"604 -109 CURVE SMOOTH"
);
},
{
closed = 1;
nodes = (
"481 -193 OFFCURVE",
"428 -234 OFFCURVE",
"370 -234 CURVE SMOOTH",
"296 -234 OFFCURVE",
"258 -184 OFFCURVE",
"258 -121 CURVE SMOOTH",
"258 -70 OFFCURVE",
"291 -21 OFFCURVE",
"320 18 CURVE",
"463 -30 OFFCURVE",
"481 -65 OFFCURVE",
"481 -129 CURVE SMOOTH"
);
},
{
closed = 1;
nodes = (
"302 -161 OFFCURVE",
"333 -179 OFFCURVE",
"368 -179 CURVE SMOOTH",
"402 -179 OFFCURVE",
"435 -161 OFFCURVE",
"435 -118 CURVE SMOOTH",
"435 -74 OFFCURVE",
"402 -56 OFFCURVE",
"368 -56 CURVE SMOOTH",
"333 -56 OFFCURVE",
"302 -74 OFFCURVE",
"302 -118 CURVE SMOOTH"
);
}
);
width = 807;
}
);
},
{
glyphname = uni071C.Fina.SYRN;
lastChange = "2018-09-11 18:35:11 +0000";
layers = (
{
anchors = (
{
name = Anchor66;
position = "{442, -98}";
},
{
name = Anchor68;
position = "{417, 797}";
}
);
layerId = "5079F400-2279-4A14-BBD5-92ED0538B068";
paths = (
{
closed = 1;
nodes = (
"957 -306 LINE",
"1148 -10 LINE",
"1148 185 LINE",
"797 185 LINE",
"515 743 LINE",
"360 661 LINE",
"604 185 LINE",
"320 185 LINE SMOOTH",
"245 185 OFFCURVE",
"177 188 OFFCURVE",
"132 247 CURVE",
"37 130 LINE",
"61 45 OFFCURVE",
"163 0 OFFCURVE",
"307 0 CURVE SMOOTH",
"691 0 LINE",
"848 -306 LINE"
);
},
{
closed = 1;
nodes = (
"897 -222 OFFCURVE",
"865 -176 OFFCURVE",
"843 -122 CURVE SMOOTH",
"827 -83 OFFCURVE",
"816 -39 OFFCURVE",
"816 0 CURVE",
"1063 0 LINE",
"1056 -36 OFFCURVE",
"1034 -85 OFFCURVE",
"1006 -130 CURVE SMOOTH",
"978 -175 OFFCURVE",
"946 -216 OFFCURVE",
"921 -236 CURVE"
);
},
{
closed = 1;
nodes = (
"967 -120 LINE",
"967 -41 LINE",
"890 -41 LINE",
"890 -120 LINE"
);
}
);
width = 1084;
}
);
},
{
glyphname = uni071C.Medi;
lastChange = "2018-09-11 18:35:11 +0000";
layers = (
{
anchors = (
{
name = Anchor6;
position = "{254, -418}";
},
{
name = Anchor8;
position = "{322, 795}";
}
);
layerId = "5079F400-2279-4A14-BBD5-92ED0538B068";
paths = (
{
closed = 1;
nodes = (
"297 -190 LINE SMOOTH",
"323 -260 OFFCURVE",
"354 -317 OFFCURVE",
"396 -345 CURVE SMOOTH",
"416 -358 OFFCURVE",
"447 -367 OFFCURVE",
"481 -367 CURVE SMOOTH",
"522 -367 OFFCURVE",
"556 -354 OFFCURVE",
"593 -321 CURVE SMOOTH",
"678 -247 OFFCURVE",
"752 -81 OFFCURVE",
"752 146 CURVE SMOOTH",
"752 185 LINE",
"347 185 LINE",
"141 763 LINE",
"-34 704 LINE",
"167 185 LINE",
"0 185 LINE SMOOTH",
"-24 185 OFFCURVE",
"-40 141 OFFCURVE",
"-40 92 CURVE SMOOTH",
"-40 42 OFFCURVE",
"-24 0 OFFCURVE",
"0 0 CURVE SMOOTH",
"225 0 LINE"
);
},
{
closed = 1;
nodes = (
"488 -232 LINE",
"468 -229 OFFCURVE",
"447 -212 OFFCURVE",
"428 -173 CURVE SMOOTH",
"410 -135 OFFCURVE",
"392 -75 OFFCURVE",
"377 16 CURVE",
"618 16 LINE",
"618 -56 OFFCURVE",
"580 -214 OFFCURVE",
"502 -232 CURVE"
);
},
{
closed = 1;
nodes = (
"541 -147 OFFCURVE",
"559 -116 OFFCURVE",
"559 -81 CURVE SMOOTH",
"559 -47 OFFCURVE",
"542 -14 OFFCURVE",
"501 -14 CURVE SMOOTH",
"459 -14 OFFCURVE",
"440 -47 OFFCURVE",
"440 -81 CURVE SMOOTH",
"440 -116 OFFCURVE",
"458 -147 OFFCURVE",
"500 -147 CURVE SMOOTH"
);
}
);
width = 710;
}
);
},
{
glyphname = uni071C.Medi.SYRJ;
lastChange = "2018-09-11 18:35:11 +0000";
layers = (
{
anchors = (
{
name = Anchor123;
position = "{229, -428}";
},
{
name = Anchor125;
position = "{214, 699}";
}
);
layerId = "5079F400-2279-4A14-BBD5-92ED0538B068";
paths = (
{
closed = 1;
nodes = (
"469 24 OFFCURVE",
"395 140 OFFCURVE",
"262 175 CURVE SMOOTH",
"254 177 OFFCURVE",
"246 179 OFFCURVE",
"238 180 CURVE",
"245 208 OFFCURVE",
"251 232 OFFCURVE",
"255 260 CURVE SMOOTH",
"260 293 OFFCURVE",
"264 331 OFFCURVE",
"266 357 CURVE SMOOTH",
"267 375 OFFCURVE",
"268 395 OFFCURVE",
"268 412 CURVE",
"273 412 LINE",
"331 318 OFFCURVE",
"396 217 OFFCURVE",
"456 133 CURVE SMOOTH",
"510 57 OFFCURVE",
"570 0 OFFCURVE",
"672 0 CURVE",
"672 185 LINE",
"637 185 OFFCURVE",
"607 196 OFFCURVE",
"578 231 CURVE SMOOTH",
"510 314 OFFCURVE",
"358 554 OFFCURVE",
"305 639 CURVE",
"139 590 LINE",
"141 561 OFFCURVE",
"141 520 OFFCURVE",
"141 502 CURVE SMOOTH",
"141 430 OFFCURVE",
"135 347 OFFCURVE",
"121 270 CURVE SMOOTH",
"116 241 OFFCURVE",
"110 212 OFFCURVE",
"102 185 CURVE",
"0 185 LINE SMOOTH",
"-24 185 OFFCURVE",
"-40 141 OFFCURVE",
"-40 92 CURVE SMOOTH",
"-40 42 OFFCURVE",
"-24 0 OFFCURVE",
"0 0 CURVE SMOOTH",
"38 0 LINE",
"24 -44 OFFCURVE",
"15 -84 OFFCURVE",
"15 -130 CURVE SMOOTH",
"15 -256 OFFCURVE",
"111 -342 OFFCURVE",
"229 -342 CURVE SMOOTH",
"343 -342 OFFCURVE",
"469 -285 OFFCURVE",
"469 -85 CURVE SMOOTH"
);
},
{
closed = 1;
nodes = (
"352 -189 OFFCURVE",
"311 -234 OFFCURVE",
"241 -234 CURVE SMOOTH",
"172 -234 OFFCURVE",
"129 -193 OFFCURVE",
"129 -126 CURVE SMOOTH",
"129 -71 OFFCURVE",
"153 -28 OFFCURVE",
"173 0 CURVE",
"193 0 LINE SMOOTH",
"314 0 OFFCURVE",
"352 -69 OFFCURVE",
"352 -129 CURVE SMOOTH"
);
},
{
closed = 1;
nodes = (
"173 -161 OFFCURVE",
"204 -179 OFFCURVE",
"239 -179 CURVE SMOOTH",
"273 -179 OFFCURVE",
"306 -161 OFFCURVE",
"306 -118 CURVE SMOOTH",
"306 -74 OFFCURVE",
"273 -56 OFFCURVE",
"239 -56 CURVE SMOOTH",
"204 -56 OFFCURVE",
"173 -74 OFFCURVE",
"173 -118 CURVE SMOOTH"
);
}
);
width = 672;
}
);
},
{
glyphname = uni071C.Medi.SYRN;
lastChange = "2018-09-11 18:35:11 +0000";
layers = (
{
anchors = (
{
name = Anchor66;
position = "{175, -98}";
},
{
name = Anchor68;
position = "{33, 799}";
}
);
layerId = "5079F400-2279-4A14-BBD5-92ED0538B068";
paths = (
{
closed = 1;
nodes = (
"575 -306 LINE",
"766 -10 LINE",
"766 185 LINE",
"415 185 LINE",
"133 743 LINE",
"-22 661 LINE",
"222 185 LINE",
"0 185 LINE SMOOTH",
"-24 185 OFFCURVE",
"-40 141 OFFCURVE",
"-40 92 CURVE SMOOTH",
"-40 42 OFFCURVE",
"-24 0 OFFCURVE",
"0 0 CURVE SMOOTH",
"309 0 LINE",
"466 -306 LINE"
);
},
{
closed = 1;
nodes = (
"516 -222 OFFCURVE",
"487 -181 OFFCURVE",
"465 -132 CURVE SMOOTH",
"446 -91 OFFCURVE",
"434 -43 OFFCURVE",
"434 0 CURVE",
"681 0 LINE",
"674 -36 OFFCURVE",
"651 -85 OFFCURVE",
"624 -130 CURVE SMOOTH",
"597 -175 OFFCURVE",
"564 -216 OFFCURVE",
"539 -236 CURVE"
);
},
{
closed = 1;
nodes = (
"585 -120 LINE",
"585 -41 LINE",
"508 -41 LINE",
"508 -120 LINE"
);
}
);
width = 702;
}
);
},
{
glyphname = uni071C.Init;
lastChange = "2018-09-11 18:35:11 +0000";
layers = (
{
anchors = (
{
name = Anchor6;
position = "{254, -418}";
},
{
name = Anchor8;
position = "{322, 795}";
}
);
layerId = "5079F400-2279-4A14-BBD5-92ED0538B068";
paths = (
{
closed = 1;
nodes = (
"297 -190 LINE SMOOTH",
"323 -260 OFFCURVE",
"354 -317 OFFCURVE",
"396 -345 CURVE SMOOTH",
"416 -358 OFFCURVE",
"447 -367 OFFCURVE",
"481 -367 CURVE SMOOTH",
"522 -367 OFFCURVE",
"562 -355 OFFCURVE",
"599 -322 CURVE SMOOTH",
"684 -248 OFFCURVE",
"752 -101 OFFCURVE",
"752 146 CURVE SMOOTH",
"752 185 LINE",
"347 185 LINE",
"141 763 LINE",
"-34 704 LINE",
"167 185 LINE",
"0 185 LINE SMOOTH",
"-24 185 OFFCURVE",
"-40 141 OFFCURVE",
"-40 92 CURVE SMOOTH",
"-40 42 OFFCURVE",
"-24 0 OFFCURVE",
"0 0 CURVE SMOOTH",
"225 0 LINE"
);
},
{
closed = 1;
nodes = (
"488 -232 LINE",
"468 -229 OFFCURVE",
"447 -212 OFFCURVE",
"428 -173 CURVE SMOOTH",
"410 -135 OFFCURVE",
"392 -75 OFFCURVE",
"377 16 CURVE",
"618 16 LINE",
"618 -56 OFFCURVE",
"580 -214 OFFCURVE",
"502 -232 CURVE"
);
},
{
closed = 1;
nodes = (
"541 -147 OFFCURVE",
"559 -116 OFFCURVE",
"559 -81 CURVE SMOOTH",
"559 -47 OFFCURVE",
"542 -14 OFFCURVE",
"501 -14 CURVE SMOOTH",
"459 -14 OFFCURVE",
"440 -47 OFFCURVE",
"440 -81 CURVE SMOOTH",
"440 -116 OFFCURVE",
"458 -147 OFFCURVE",
"500 -147 CURVE SMOOTH"
);
}
);
width = 788;
}
);
},
{
glyphname = uni071C.Init.SYRJ;
lastChange = "2018-09-11 18:35:11 +0000";
layers = (
{
anchors = (
{
name = Anchor123;
position = "{233, -429}";
},
{
name = Anchor125;
position = "{147, 707}";
}
);
layerId = "5079F400-2279-4A14-BBD5-92ED0538B068";
paths = (
{
closed = 1;
nodes = (
"495 45 OFFCURVE",
"426 113 OFFCURVE",
"330 154 CURVE SMOOTH",
"316 160 OFFCURVE",
"308 163 OFFCURVE",
"301 165 CURVE",
"310 179 OFFCURVE",
"320 192 OFFCURVE",
"329 206 CURVE SMOOTH",
"386 290 OFFCURVE",
"423 366 OFFCURVE",
"423 462 CURVE SMOOTH",
"423 562 OFFCURVE",
"388 638 OFFCURVE",
"309 695 CURVE",
"304 695 LINE",
"191 565 LINE",
"236 520 OFFCURVE",
"257 487 OFFCURVE",
"257 435 CURVE SMOOTH",
"257 388 OFFCURVE",
"242 345 OFFCURVE",
"208 294 CURVE SMOOTH",
"184 258 OFFCURVE",
"159 221 OFFCURVE",
"135 185 CURVE",
"0 185 LINE SMOOTH",
"-24 185 OFFCURVE",
"-40 141 OFFCURVE",
"-40 92 CURVE SMOOTH",
"-40 42 OFFCURVE",
"-24 0 OFFCURVE",
"0 0 CURVE SMOOTH",
"21 0 LINE",
"8 -38 OFFCURVE",
"-1 -80 OFFCURVE",
"-1 -122 CURVE SMOOTH",
"-1 -257 OFFCURVE",
"104 -342 OFFCURVE",
"233 -342 CURVE SMOOTH",
"352 -342 OFFCURVE",
"495 -273 OFFCURVE",
"495 -83 CURVE SMOOTH"
);
},
{
closed = 1;
nodes = (
"355 -189 OFFCURVE",
"314 -234 OFFCURVE",
"244 -234 CURVE SMOOTH",
"173 -234 OFFCURVE",
"132 -188 OFFCURVE",
"132 -121 CURVE SMOOTH",
"132 -78 OFFCURVE",
"148 -38 OFFCURVE",
"183 0 CURVE",
"196 0 LINE SMOOTH",
"317 0 OFFCURVE",
"355 -69 OFFCURVE",
"355 -129 CURVE SMOOTH"
);
},
{
closed = 1;
nodes = (
"176 -161 OFFCURVE",
"207 -179 OFFCURVE",
"242 -179 CURVE SMOOTH",
"276 -179 OFFCURVE",
"309 -161 OFFCURVE",
"309 -118 CURVE SMOOTH",
"309 -74 OFFCURVE",
"276 -56 OFFCURVE",
"242 -56 CURVE SMOOTH",
"207 -56 OFFCURVE",
"176 -74 OFFCURVE",
"176 -118 CURVE SMOOTH"
);
}
);
width = 519;
}
);
},
{
glyphname = uni071C.Init.SYRN;
lastChange = "2018-09-11 18:35:11 +0000";
layers = (
{
anchors = (
{
name = Anchor66;
position = "{175, -98}";
},
{
name = Anchor68;
position = "{31, 799}";
}
);
layerId = "5079F400-2279-4A14-BBD5-92ED0538B068";
paths = (
{
closed = 1;
nodes = (
"575 -306 LINE",
"766 -10 LINE",
"766 185 LINE",
"415 185 LINE",
"133 743 LINE",
"-22 661 LINE",
"222 185 LINE",
"0 185 LINE SMOOTH",
"-24 185 OFFCURVE",
"-40 141 OFFCURVE",
"-40 92 CURVE SMOOTH",
"-40 42 OFFCURVE",
"-24 0 OFFCURVE",
"0 0 CURVE SMOOTH",
"309 0 LINE",
"466 -306 LINE"
);
},
{
closed = 1;
nodes = (
"516 -222 OFFCURVE",
"486 -180 OFFCURVE",
"464 -130 CURVE SMOOTH",
"446 -89 OFFCURVE",
"434 -42 OFFCURVE",
"434 0 CURVE",
"681 0 LINE",
"674 -36 OFFCURVE",
"652 -85 OFFCURVE",
"624 -130 CURVE SMOOTH",
"596 -175 OFFCURVE",
"564 -216 OFFCURVE",
"539 -236 CURVE"
);
},
{
closed = 1;
nodes = (
"585 -120 LINE",
"585 -41 LINE",
"508 -41 LINE",
"508 -120 LINE"
);
}
);
width = 816;
}
);
},
{
glyphname = uni071D;
lastChange = "2018-09-11 18:35:11 +0000";
layers = (
{
anchors = (
{
name = Anchor6;
position = "{149, -158}";
},
{
name = Anchor8;
position = "{111, 465}";
}
);
layerId = "5079F400-2279-4A14-BBD5-92ED0538B068";
paths = (
{
closed = 1;
nodes = (
"266 228 OFFCURVE",
"237 281 OFFCURVE",
"214 303 CURVE SMOOTH",
"193 323 OFFCURVE",
"178 335 OFFCURVE",
"136 335 CURVE SMOOTH",
"102 335 OFFCURVE",
"59 310 OFFCURVE",
"59 267 CURVE SMOOTH",
"59 239 OFFCURVE",
"69 219 OFFCURVE",
"96 179 CURVE SMOOTH",
"108 161 OFFCURVE",
"111 148 OFFCURVE",
"115 127 CURVE",
"114 107 OFFCURVE",
"108 82 OFFCURVE",
"90 58 CURVE SMOOTH",
"71 32 OFFCURVE",
"61 13 OFFCURVE",
"61 -10 CURVE SMOOTH",
"61 -48 OFFCURVE",
"95 -72 OFFCURVE",
"128 -72 CURVE SMOOTH",
"156 -72 OFFCURVE",
"182 -65 OFFCURVE",
"203 -42 CURVE SMOOTH",
"239 -2 OFFCURVE",
"266 60 OFFCURVE",
"266 131 CURVE SMOOTH"
);
}
);
width = 301;
}
);
unicode = 071D;
},
{
glyphname = uni071D.SYRJ;
lastChange = "2018-09-11 18:35:11 +0000";
layers = (
{
anchors = (
{
name = Anchor123;
position = "{322, -98}";
},
{
name = Anchor125;
position = "{374, 447}";
}
);
layerId = "5079F400-2279-4A14-BBD5-92ED0538B068";
paths = (
{
closed = 1;
nodes = (
"374 174 OFFCURVE",
"363 174 OFFCURVE",
"352 174 CURVE SMOOTH",
"264 174 OFFCURVE",
"198 198 OFFCURVE",
"185 300 CURVE",
"47 297 LINE",
"45 282 OFFCURVE",
"45 261 OFFCURVE",
"45 255 CURVE SMOOTH",
"45 57 OFFCURVE",
"191 -6 OFFCURVE",
"342 -6 CURVE SMOOTH",
"414 -6 OFFCURVE",
"455 -2 OFFCURVE",
"492 10 CURVE SMOOTH",
"575 37 OFFCURVE",
"615 113 OFFCURVE",
"615 192 CURVE SMOOTH",
"615 265 OFFCURVE",
"585 333 OFFCURVE",
"519 333 CURVE SMOOTH",
"473 333 OFFCURVE",
"448 306 OFFCURVE",
"432 262 CURVE SMOOTH",
"422 234 OFFCURVE",
"412 205 OFFCURVE",
"402 177 CURVE"
);
}
);
width = 670;
}
);
},
{
glyphname = uni071D.SYRN;
lastChange = "2018-09-11 18:35:11 +0000";
layers = (
{
anchors = (
{
name = Anchor66;
position = "{459, -96}";
},
{
name = Anchor68;
position = "{489, 500}";
}
);
layerId = "5079F400-2279-4A14-BBD5-92ED0538B068";
paths = (
{
closed = 1;
nodes = (
"517 318 LINE",
"454 315 LINE",
"392 191 LINE",
"370 185 OFFCURVE",
"343 185 OFFCURVE",
"321 185 CURVE SMOOTH",
"317 185 LINE SMOOTH",
"242 185 OFFCURVE",
"182 189 OFFCURVE",
"132 247 CURVE",
"37 130 LINE",
"61 45 OFFCURVE",
"156 0 OFFCURVE",
"300 0 CURVE SMOOTH",
"322 0 LINE SMOOTH",
"362 0 OFFCURVE",
"430 5 OFFCURVE",
"458 19 CURVE",
"495 84 LINE",
"499 84 LINE",
"508 71 LINE SMOOTH",
"547 16 OFFCURVE",
"583 0 OFFCURVE",
"605 0 CURVE SMOOTH",
"615 0 LINE",
"615 186 LINE"
);
}
);
width = 665;
}
);
},
{
glyphname = uni071D.Fina;
lastChange = "2018-09-11 18:35:11 +0000";
layers = (
{
anchors = (
{
name = Anchor6;
position = "{131, -176}";
},
{
name = Anchor8;
position = "{94, 459}";
}
);
layerId = "5079F400-2279-4A14-BBD5-92ED0538B068";
paths = (
{
closed = 1;
nodes = (
"282 185 LINE",
"278 185 OFFCURVE",
"258 185 OFFCURVE",
"243 188 CURVE",
"232 247 OFFCURVE",
"208 282 OFFCURVE",
"192 300 CURVE SMOOTH",
"172 323 OFFCURVE",
"147 330 OFFCURVE",
"117 330 CURVE SMOOTH",
"84 330 OFFCURVE",
"41 307 OFFCURVE",
"41 262 CURVE SMOOTH",
"41 234 OFFCURVE",
"50 215 OFFCURVE",
"78 174 CURVE SMOOTH",
"89 157 OFFCURVE",
"94 143 OFFCURVE",
"98 122 CURVE",
"98 105 OFFCURVE",
"96 84 OFFCURVE",
"69 44 CURVE SMOOTH",
"51 17 OFFCURVE",
"42 -2 OFFCURVE",
"42 -26 CURVE SMOOTH",
"42 -66 OFFCURVE",
"78 -88 OFFCURVE",
"112 -88 CURVE SMOOTH",
"138 -88 OFFCURVE",
"162 -81 OFFCURVE",
"184 -58 CURVE SMOOTH",
"198 -43 OFFCURVE",
"211 -22 OFFCURVE",
"221 0 CURVE",
"241 0 OFFCURVE",
"262 0 OFFCURVE",
"282 0 CURVE"
);
}
);
width = 282;
}
);
},
{
glyphname = uni071D.Fina.SYRJ;
lastChange = "2018-09-11 18:35:11 +0000";
layers = (
{
anchors = (
{
name = Anchor123;
position = "{334, -98}";
},
{
name = Anchor125;
position = "{390, 448}";
}
);
layerId = "5079F400-2279-4A14-BBD5-92ED0538B068";
paths = (
{
closed = 1;
nodes = (
"721 185 LINE",
"676 185 OFFCURVE",
"657 195 OFFCURVE",
"651 199 CURVE",
"643 210 OFFCURVE",
"630 237 OFFCURVE",
"623 253 CURVE SMOOTH",
"603 297 OFFCURVE",
"584 331 OFFCURVE",
"536 331 CURVE SMOOTH",
"496 331 OFFCURVE",
"476 314 OFFCURVE",
"454 276 CURVE SMOOTH",
"441 253 LINE SMOOTH",
"414 204 OFFCURVE",
"387 174 OFFCURVE",
"322 174 CURVE SMOOTH",
"224 174 OFFCURVE",
"193 235 OFFCURVE",
"185 300 CURVE",
"47 297 LINE",
"45 282 OFFCURVE",
"45 261 OFFCURVE",
"45 255 CURVE SMOOTH",
"45 72 OFFCURVE",
"157 -5 OFFCURVE",
"303 -5 CURVE SMOOTH",
"378 -5 OFFCURVE",
"457 9 OFFCURVE",
"515 49 CURVE",
"576 7 OFFCURVE",
"633 0 OFFCURVE",
"705 0 CURVE SMOOTH",
"721 0 LINE"
);
}
);
width = 721;
}
);
},
{
glyphname = uni071D.Fina.SYRN;
lastChange = "2018-09-11 18:35:11 +0000";
layers = (
{
anchors = (
{
name = Anchor66;
position = "{459, -100}";
},
{
name = Anchor68;
position = "{491, 500}";
}
);
layerId = "5079F400-2279-4A14-BBD5-92ED0538B068";
paths = (
{
closed = 1;
nodes = (
"497 84 LINE",
"501 84 LINE",
"515 67 LINE SMOOTH",
"562 7 OFFCURVE",
"602 0 OFFCURVE",
"658 0 CURVE",
"658 185 LINE",
"617 185 OFFCURVE",
"608 196 OFFCURVE",
"569 248 CURVE SMOOTH",
"517 318 LINE",
"454 315 LINE",
"392 191 LINE",
"370 185 OFFCURVE",
"343 185 OFFCURVE",
"321 185 CURVE SMOOTH",
"317 185 LINE SMOOTH",
"242 185 OFFCURVE",
"182 189 OFFCURVE",
"132 247 CURVE",
"37 130 LINE",
"61 45 OFFCURVE",
"156 0 OFFCURVE",
"300 0 CURVE SMOOTH",
"322 0 LINE SMOOTH",
"362 0 OFFCURVE",
"430 5 OFFCURVE",
"458 19 CURVE"
);
}
);
width = 658;
}
);
},
{
glyphname = uni071D.Medi;
lastChange = "2018-09-11 18:35:11 +0000";
layers = (
{
anchors = (
{
name = Anchor6;
position = "{182, -98}";
},
{
name = Anchor8;
position = "{155, 544}";
}
);
layerId = "5079F400-2279-4A14-BBD5-92ED0538B068";
paths = (
{
closed = 1;
nodes = (
"353 185 LINE",
"327 185 OFFCURVE",
"293 189 OFFCURVE",
"273 199 CURVE",
"273 208 OFFCURVE",
"274 217 OFFCURVE",
"274 226 CURVE SMOOTH",
"274 254 OFFCURVE",
"272 291 OFFCURVE",
"262 327 CURVE SMOOTH",
"244 393 OFFCURVE",
"215 399 OFFCURVE",
"184 399 CURVE SMOOTH",
"121 399 OFFCURVE",
"93 363 OFFCURVE",
"93 310 CURVE SMOOTH",
"93 278 OFFCURVE",
"98 231 OFFCURVE",
"109 198 CURVE",
"102 190 OFFCURVE",
"59 185 OFFCURVE",
"29 185 CURVE SMOOTH",
"0 185 LINE SMOOTH",
"-24 185 OFFCURVE",
"-40 141 OFFCURVE",
"-40 92 CURVE SMOOTH",
"-40 42 OFFCURVE",
"-24 0 OFFCURVE",
"0 0 CURVE SMOOTH",
"6 0 LINE SMOOTH",
"85 0 OFFCURVE",
"158 11 OFFCURVE",
"200 41 CURVE",
"236 10 OFFCURVE",
"297 0 OFFCURVE",
"353 0 CURVE"
);
}
);
width = 353;
}
);
},
{
glyphname = uni071D.Medi.SYRJ;
lastChange = "2018-09-11 18:35:11 +0000";
layers = (
{
anchors = (
{
name = Anchor123;
position = "{179, -98}";
},
{
name = Anchor125;
position = "{195, 470}";
}
);
layerId = "5079F400-2279-4A14-BBD5-92ED0538B068";
paths = (
{
closed = 1;
nodes = (
"370 0 LINE",
"370 185 LINE",
"337 185 OFFCURVE",
"316 195 OFFCURVE",
"310 199 CURVE",
"302 210 OFFCURVE",
"289 237 OFFCURVE",
"282 253 CURVE SMOOTH",
"262 297 OFFCURVE",
"243 331 OFFCURVE",
"195 331 CURVE SMOOTH",
"155 331 OFFCURVE",
"135 314 OFFCURVE",
"113 276 CURVE SMOOTH",
"100 253 LINE SMOOTH",
"69 198 OFFCURVE",
"56 185 OFFCURVE",
"0 185 CURVE SMOOTH",
"-24 185 OFFCURVE",
"-40 141 OFFCURVE",
"-40 92 CURVE SMOOTH",
"-40 42 OFFCURVE",
"-24 0 OFFCURVE",
"0 0 CURVE SMOOTH",
"41 0 OFFCURVE",
"95 7 OFFCURVE",
"145 32 CURVE SMOOTH",
"155 37 OFFCURVE",
"164 42 OFFCURVE",
"174 49 CURVE",
"235 7 OFFCURVE",
"284 0 OFFCURVE",
"355 0 CURVE SMOOTH"
);
}
);
width = 370;
}
);
},
{
glyphname = uni071D.Medi.SYRN;
lastChange = "2018-09-11 18:35:11 +0000";
layers = (
{
anchors = (
{
name = Anchor66;
position = "{161, -100}";
},
{
name = Anchor68;
position = "{151, 500}";
}
);
layerId = "5079F400-2279-4A14-BBD5-92ED0538B068";
paths = (
{
closed = 1;
nodes = (
"40 0 OFFCURVE",
"104 5 OFFCURVE",
"132 19 CURVE",
"166 84 LINE",
"170 84 LINE",
"184 67 LINE SMOOTH",
"231 7 OFFCURVE",
"271 0 OFFCURVE",
"327 0 CURVE",
"327 185 LINE",
"286 185 OFFCURVE",
"277 196 OFFCURVE",
"238 248 CURVE SMOOTH",
"186 318 LINE",
"123 315 LINE",
"58 185 LINE",
"39 185 OFFCURVE",
"19 185 OFFCURVE",
"0 185 CURVE SMOOTH",
"-24 185 OFFCURVE",
"-40 141 OFFCURVE",
"-40 92 CURVE SMOOTH",
"-40 42 OFFCURVE",
"-24 0 OFFCURVE",
"0 0 CURVE SMOOTH"
);
}
);
width = 327;
}
);
},
{
glyphname = uni071D.Init;
lastChange = "2018-09-11 18:35:11 +0000";
layers = (
{
anchors = (
{
name = Anchor6;
position = "{164, -97}";
},
{
name = Anchor8;
position = "{134, 544}";
}
);
layerId = "5079F400-2279-4A14-BBD5-92ED0538B068";
paths = (
{
closed = 1;
nodes = (
"28 0 LINE SMOOTH",
"128 0 OFFCURVE",
"191 25 OFFCURVE",
"228 64 CURVE SMOOTH",
"265 103 OFFCURVE",
"278 153 OFFCURVE",
"278 205 CURVE SMOOTH",
"278 233 OFFCURVE",
"276 281 OFFCURVE",
"261 327 CURVE SMOOTH",
"240 393 OFFCURVE",
"211 399 OFFCURVE",
"180 399 CURVE SMOOTH",
"140 399 OFFCURVE",
"93 380 OFFCURVE",
"93 320 CURVE SMOOTH",
"93 286 OFFCURVE",
"99 236 OFFCURVE",
"113 197 CURVE",
"107 189 OFFCURVE",
"63 185 OFFCURVE",
"33 185 CURVE SMOOTH",
"0 185 LINE SMOOTH",
"-24 185 OFFCURVE",
"-40 141 OFFCURVE",
"-40 92 CURVE SMOOTH",
"-40 42 OFFCURVE",
"-24 0 OFFCURVE",
"0 0 CURVE SMOOTH"
);
}
);
width = 346;
}
);
},
{
glyphname = uni071D.Init.SYRJ;
lastChange = "2018-09-11 18:35:11 +0000";
layers = (
{
anchors = (
{
name = Anchor123;
position = "{176, -98}";
},
{
name = Anchor125;
position = "{190, 471}";
}
);
layerId = "5079F400-2279-4A14-BBD5-92ED0538B068";
paths = (
{
closed = 1;
nodes = (
"11 0 LINE SMOOTH",
"95 0 OFFCURVE",
"136 4 OFFCURVE",
"173 16 CURVE SMOOTH",
"256 43 OFFCURVE",
"296 119 OFFCURVE",
"296 198 CURVE SMOOTH",
"296 271 OFFCURVE",
"266 339 OFFCURVE",
"200 339 CURVE SMOOTH",
"154 339 OFFCURVE",
"129 311 OFFCURVE",
"113 268 CURVE SMOOTH",
"103 241 OFFCURVE",
"94 215 OFFCURVE",
"84 188 CURVE",
"56 185 OFFCURVE",
"53 185 OFFCURVE",
"0 185 CURVE SMOOTH",
"-24 185 OFFCURVE",
"-40 141 OFFCURVE",
"-40 92 CURVE SMOOTH",
"-40 42 OFFCURVE",
"-24 0 OFFCURVE",
"0 0 CURVE SMOOTH"
);
}
);
width = 351;
}
);
},
{
glyphname = uni071D.Init.SYRN;
lastChange = "2018-09-11 18:35:11 +0000";
layers = (
{
anchors = (
{
name = Anchor66;
position = "{168, -98}";
},
{
name = Anchor68;
position = "{155, 500}";
}
);
layerId = "5079F400-2279-4A14-BBD5-92ED0538B068";
paths = (
{
closed = 1;
nodes = (
"56 185 LINE",
"37 185 OFFCURVE",
"19 185 OFFCURVE",
"0 185 CURVE SMOOTH",
"-24 185 OFFCURVE",
"-40 141 OFFCURVE",
"-40 92 CURVE SMOOTH",
"-40 42 OFFCURVE",
"-24 0 OFFCURVE",
"0 0 CURVE SMOOTH",
"40 0 OFFCURVE",
"96 5 OFFCURVE",
"124 19 CURVE",
"161 84 LINE",
"165 84 LINE",
"173 72 LINE SMOOTH",
"213 17 OFFCURVE",
"248 0 OFFCURVE",
"271 0 CURVE SMOOTH",
"281 0 LINE",
"281 186 LINE",
"183 318 LINE",
"120 315 LINE"
);
}
);
width = 331;
}
);
},
{
glyphname = uni071E;
lastChange = "2018-09-11 18:35:11 +0000";
layers = (
{
layerId = "5079F400-2279-4A14-BBD5-92ED0538B068";
paths = (
{
closed = 1;
nodes = (
"1041 0 LINE SMOOTH",
"1141 0 OFFCURVE",
"1203 25 OFFCURVE",
"1241 64 CURVE SMOOTH",
"1278 102 OFFCURVE",
"1291 153 OFFCURVE",
"1291 205 CURVE SMOOTH",
"1291 233 OFFCURVE",
"1289 281 OFFCURVE",
"1274 327 CURVE SMOOTH",
"1253 393 OFFCURVE",
"1224 399 OFFCURVE",
"1193 399 CURVE SMOOTH",
"1153 399 OFFCURVE",
"1106 380 OFFCURVE",
"1106 320 CURVE SMOOTH",
"1106 286 OFFCURVE",
"1112 236 OFFCURVE",
"1126 197 CURVE",
"1120 189 OFFCURVE",
"1076 185 OFFCURVE",
"1046 185 CURVE SMOOTH",
"937 185 LINE",
"937 187 LINE",
"943 203 OFFCURVE",
"946 230 OFFCURVE",
"946 246 CURVE SMOOTH",
"946 387 OFFCURVE",
"905 513 OFFCURVE",
"717 513 CURVE SMOOTH",
"662 513 OFFCURVE",
"593 502 OFFCURVE",
"554 502 CURVE SMOOTH",
"495 502 OFFCURVE",
"441 513 OFFCURVE",
"346 513 CURVE SMOOTH",
"202 513 OFFCURVE",
"68 430 OFFCURVE",
"68 244 CURVE SMOOTH",
"68 118 OFFCURVE",
"146 28 OFFCURVE",
"277 -9 CURVE",
"334 148 LINE",
"273 165 OFFCURVE",
"229 200 OFFCURVE",
"229 258 CURVE SMOOTH",
"229 313 OFFCURVE",
"273 347 OFFCURVE",
"342 347 CURVE SMOOTH",
"372 347 OFFCURVE",
"423 342 OFFCURVE",
"456 333 CURVE",
"370 19 LINE",
"518 -5 LINE",
"621 333 LINE",
"646 344 OFFCURVE",
"682 347 OFFCURVE",
"702 347 CURVE SMOOTH",
"770 347 OFFCURVE",
"786 304 OFFCURVE",
"786 246 CURVE SMOOTH",
"786 187 OFFCURVE",
"753 160 OFFCURVE",
"697 160 CURVE SMOOTH",
"687 160 OFFCURVE",
"677 161 OFFCURVE",
"665 163 CURVE",
"654 6 LINE",
"674 1 OFFCURVE",
"747 0 OFFCURVE",
"756 0 CURVE SMOOTH"
);
},
{
closed = 1;
nodes = (
"541 -244 OFFCURVE",
"588 -220 OFFCURVE",
"588 -160 CURVE SMOOTH",
"588 -98 OFFCURVE",
"541 -75 OFFCURVE",
"494 -75 CURVE SMOOTH",
"446 -75 OFFCURVE",
"401 -98 OFFCURVE",
"401 -160 CURVE SMOOTH",
"401 -220 OFFCURVE",
"446 -244 OFFCURVE",
"494 -244 CURVE SMOOTH"
);
},
{
closed = 1;
nodes = (
"577 739 OFFCURVE",
"612 756 OFFCURVE",
"612 800 CURVE SMOOTH",
"612 845 OFFCURVE",
"577 862 OFFCURVE",
"543 862 CURVE SMOOTH",
"508 862 OFFCURVE",
"475 845 OFFCURVE",
"475 800 CURVE SMOOTH",
"475 756 OFFCURVE",
"508 739 OFFCURVE",
"543 739 CURVE SMOOTH"
);
},
{
closed = 1;
nodes = (
"482 578 OFFCURVE",
"523 599 OFFCURVE",
"523 654 CURVE SMOOTH",
"523 711 OFFCURVE",
"482 731 OFFCURVE",
"440 731 CURVE SMOOTH",
"397 731 OFFCURVE",
"358 711 OFFCURVE",
"358 654 CURVE SMOOTH",
"358 599 OFFCURVE",
"397 578 OFFCURVE",
"440 578 CURVE SMOOTH"
);
},
{
closed = 1;
nodes = (
"687 578 OFFCURVE",
"728 599 OFFCURVE",
"728 654 CURVE SMOOTH",
"728 711 OFFCURVE",
"687 731 OFFCURVE",
"645 731 CURVE SMOOTH",
"602 731 OFFCURVE",
"563 711 OFFCURVE",
"563 654 CURVE SMOOTH",
"563 599 OFFCURVE",
"602 578 OFFCURVE",
"645 578 CURVE SMOOTH"
);
}
);
width = 1359;
}
);
unicode = 071E;
},
{
glyphname = uni071E.SYRJ;
lastChange = "2018-09-11 18:35:11 +0000";
layers = (
{
layerId = "5079F400-2279-4A14-BBD5-92ED0538B068";
paths = (
{
closed = 1;
nodes = (
"155 500 OFFCURVE",
"30 419 OFFCURVE",
"30 254 CURVE SMOOTH",
"30 84 OFFCURVE",
"155 -5 OFFCURVE",
"287 -5 CURVE SMOOTH",
"418 -5 OFFCURVE",
"497 61 OFFCURVE",
"537 157 CURVE",
"573 207 OFFCURVE",
"609 257 OFFCURVE",
"622 294 CURVE",
"626 293 LINE",
"626 261 OFFCURVE",
"623 197 OFFCURVE",
"619 148 CURVE SMOOTH",
"615 98 OFFCURVE",
"609 47 OFFCURVE",
"601 11 CURVE",
"745 -12 LINE",
"750 10 OFFCURVE",
"755 33 OFFCURVE",
"759 57 CURVE",
"763 57 LINE",
"779 23 OFFCURVE",
"818 0 OFFCURVE",
"881 0 CURVE SMOOTH",
"902 0 OFFCURVE",
"921 0 OFFCURVE",
"937 1 CURVE SMOOTH",
"986 3 OFFCURVE",
"1015 7 OFFCURVE",
"1043 16 CURVE SMOOTH",
"1126 43 OFFCURVE",
"1166 119 OFFCURVE",
"1166 198 CURVE SMOOTH",
"1166 271 OFFCURVE",
"1136 339 OFFCURVE",
"1070 339 CURVE SMOOTH",
"1024 339 OFFCURVE",
"999 311 OFFCURVE",
"983 268 CURVE SMOOTH",
"973 241 OFFCURVE",
"964 215 OFFCURVE",
"954 188 CURVE",
"926 185 OFFCURVE",
"923 185 OFFCURVE",
"870 185 CURVE SMOOTH",
"825 185 OFFCURVE",
"787 191 OFFCURVE",
"774 220 CURVE",
"776 243 OFFCURVE",
"776 246 OFFCURVE",
"776 265 CURVE SMOOTH",
"776 323 OFFCURVE",
"767 422 OFFCURVE",
"738 491 CURVE",
"602 473 LINE",
"597 456 OFFCURVE",
"560 391 OFFCURVE",
"532 350 CURVE",
"528 350 LINE",
"483 456 OFFCURVE",
"383 500 OFFCURVE",
"274 500 CURVE SMOOTH"
);
},
{
closed = 1;
nodes = (
"230 175 OFFCURVE",
"188 214 OFFCURVE",
"188 260 CURVE SMOOTH",
"188 306 OFFCURVE",
"228 330 OFFCURVE",
"282 330 CURVE SMOOTH",
"360 330 OFFCURVE",
"405 289 OFFCURVE",
"405 251 CURVE SMOOTH",
"405 204 OFFCURVE",
"359 175 OFFCURVE",
"302 175 CURVE SMOOTH"
);
},
{
closed = 1;
nodes = (
"238 593 OFFCURVE",
"277 572 OFFCURVE",
"320 572 CURVE SMOOTH",
"362 572 OFFCURVE",
"403 593 OFFCURVE",
"403 648 CURVE SMOOTH",
"403 705 OFFCURVE",
"362 725 OFFCURVE",
"320 725 CURVE SMOOTH",
"277 725 OFFCURVE",
"238 705 OFFCURVE",
"238 648 CURVE SMOOTH"
);
},
{
closed = 1;
nodes = (
"443 593 OFFCURVE",
"482 572 OFFCURVE",
"525 572 CURVE SMOOTH",
"567 572 OFFCURVE",
"608 593 OFFCURVE",
"608 648 CURVE SMOOTH",
"608 705 OFFCURVE",
"567 725 OFFCURVE",
"525 725 CURVE SMOOTH",
"482 725 OFFCURVE",
"443 705 OFFCURVE",
"443 648 CURVE SMOOTH"
);
},
{
closed = 1;
nodes = (
"311 -235 OFFCURVE",
"356 -259 OFFCURVE",
"404 -259 CURVE SMOOTH",
"451 -259 OFFCURVE",
"498 -235 OFFCURVE",
"498 -175 CURVE SMOOTH",
"498 -113 OFFCURVE",
"451 -90 OFFCURVE",
"404 -90 CURVE SMOOTH",
"356 -90 OFFCURVE",
"311 -113 OFFCURVE",
"311 -175 CURVE SMOOTH"
);
},
{
closed = 1;
nodes = (
"355 750 OFFCURVE",
"388 733 OFFCURVE",
"423 733 CURVE SMOOTH",
"457 733 OFFCURVE",
"492 750 OFFCURVE",
"492 794 CURVE SMOOTH",
"492 839 OFFCURVE",
"457 856 OFFCURVE",
"423 856 CURVE SMOOTH",
"388 856 OFFCURVE",
"355 839 OFFCURVE",
"355 794 CURVE SMOOTH"
);
}
);
width = 1221;
}
);
},
{
glyphname = uni071E.SYRN;
lastChange = "2018-09-11 18:35:11 +0000";
layers = (
{
layerId = "5079F400-2279-4A14-BBD5-92ED0538B068";
paths = (
{
closed = 1;
nodes = (
"923 185 LINE",
"904 185 OFFCURVE",
"886 185 OFFCURVE",
"867 185 CURVE",
"780 185 LINE",
"780 510 LINE",
"741 505 OFFCURVE",
"703 503 OFFCURVE",
"664 502 CURVE SMOOTH",
"624 501 OFFCURVE",
"577 500 OFFCURVE",
"525 500 CURVE SMOOTH",
"280 500 LINE SMOOTH",
"193 500 OFFCURVE",
"132 464 OFFCURVE",
"97 411 CURVE SMOOTH",
"69 368 OFFCURVE",
"56 315 OFFCURVE",
"56 261 CURVE SMOOTH",
"56 196 OFFCURVE",
"75 128 OFFCURVE",
"116 78 CURVE SMOOTH",
"155 30 OFFCURVE",
"212 -3 OFFCURVE",
"290 -3 CURVE SMOOTH",
"480 -3 OFFCURVE",
"549 132 OFFCURVE",
"549 303 CURVE SMOOTH",
"549 306 OFFCURVE",
"549 328 OFFCURVE",
"548 340 CURVE",
"572 340 OFFCURVE",
"597 340 OFFCURVE",
"621 340 CURVE",
"621 0 LINE",
"867 0 LINE SMOOTH",
"907 0 OFFCURVE",
"963 5 OFFCURVE",
"991 19 CURVE",
"1028 84 LINE",
"1032 84 LINE",
"1040 72 LINE SMOOTH",
"1080 17 OFFCURVE",
"1115 0 OFFCURVE",
"1138 0 CURVE SMOOTH",
"1148 0 LINE",
"1148 186 LINE",
"1050 318 LINE",
"987 315 LINE"
);
},
{
closed = 1;
nodes = (
"398 340 LINE",
"401 324 OFFCURVE",
"401 312 OFFCURVE",
"401 310 CURVE SMOOTH",
"401 235 OFFCURVE",
"386 167 OFFCURVE",
"300 167 CURVE SMOOTH",
"253 167 OFFCURVE",
"214 194 OFFCURVE",
"214 255 CURVE SMOOTH",
"214 296 OFFCURVE",
"234 340 OFFCURVE",
"290 340 CURVE SMOOTH"
);
},
{
closed = 1;
nodes = (
"530 -196 LINE",
"530 -57 LINE",
"389 -57 LINE",
"389 -196 LINE"
);
},
{
closed = 1;
nodes = (
"517 755 LINE",
"517 894 LINE",
"376 894 LINE",
"376 755 LINE"
);
},
{
closed = 1;
nodes = (
"405 564 LINE",
"405 703 LINE",
"264 703 LINE",
"264 564 LINE"
);
},
{
closed = 1;
nodes = (
"626 564 LINE",
"626 703 LINE",
"485 703 LINE",
"485 564 LINE"
);
}
);
width = 1188;
}
);
},
{
glyphname = uni071F;
lastChange = "2018-09-11 18:35:11 +0000";
layers = (
{
anchors = (
{
name = Anchor2;
position = "{755, 502}";
},
{
name = Anchor4;
position = "{667, -156}";
},
{
name = Anchor6;
position = "{365, -117}";
},
{
name = Anchor8;
position = "{370, 524}";
}
);
layerId = "5079F400-2279-4A14-BBD5-92ED0538B068";
paths = (
{
closed = 1;
nodes = (
"1045 -324 LINE",
"947 -52 OFFCURVE",
"848 202 OFFCURVE",
"795 297 CURVE SMOOTH",
"727 419 OFFCURVE",
"662 449 OFFCURVE",
"587 449 CURVE SMOOTH",
"477 449 OFFCURVE",
"413 381 OFFCURVE",
"392 232 CURVE SMOOTH",
"382 158 OFFCURVE",
"346 152 OFFCURVE",
"321 152 CURVE SMOOTH",
"245 152 OFFCURVE",
"225 244 OFFCURVE",
"225 303 CURVE SMOOTH",
"225 342 OFFCURVE",
"235 389 OFFCURVE",
"248 421 CURVE",
"97 480 LINE",
"75 443 OFFCURVE",
"54 366 OFFCURVE",
"54 302 CURVE SMOOTH",
"54 137 OFFCURVE",
"144 -24 OFFCURVE",
"305 -24 CURVE SMOOTH",
"451 -24 OFFCURVE",
"516 45 OFFCURVE",
"545 200 CURVE SMOOTH",
"554 249 OFFCURVE",
"563 266 OFFCURVE",
"586 266 CURVE SMOOTH",
"610 266 OFFCURVE",
"623 244 OFFCURVE",
"649 198 CURVE SMOOTH",
"690 125 OFFCURVE",
"798 -131 OFFCURVE",
"894 -375 CURVE"
);
}
);
width = 981;
}
);
unicode = 071F;
},
{
glyphname = uni071F.SYRJ;
lastChange = "2018-09-11 18:35:11 +0000";
layers = (
{
anchors = (
{
name = Anchor119;
position = "{598, 411}";
},
{
name = Anchor121;
position = "{570, -76}";
},
{
name = Anchor123;
position = "{495, -280}";
},
{
name = Anchor125;
position = "{320, 510}";
}
);
layerId = "5079F400-2279-4A14-BBD5-92ED0538B068";
paths = (
{
closed = 1;
nodes = (
"47 308 LINE",
"45 293 OFFCURVE",
"45 280 OFFCURVE",
"45 275 CURVE SMOOTH",
"45 126 OFFCURVE",
"122 48 OFFCURVE",
"233 14 CURVE SMOOTH",
"249 9 OFFCURVE",
"266 5 OFFCURVE",
"283 2 CURVE",
"102 -349 LINE",
"245 -410 LINE",
"454 0 LINE",
"565 12 OFFCURVE",
"620 78 OFFCURVE",
"620 177 CURVE SMOOTH",
"620 251 OFFCURVE",
"578 335 OFFCURVE",
"505 335 CURVE SMOOTH",
"447 335 OFFCURVE",
"421 306 OFFCURVE",
"363 198 CURVE SMOOTH",
"356 185 LINE",
"353 185 OFFCURVE",
"350 185 OFFCURVE",
"347 185 CURVE SMOOTH",
"252 185 OFFCURVE",
"193 246 OFFCURVE",
"185 311 CURVE"
);
}
);
width = 677;
}
);
},
{
glyphname = uni071F.SYRN;
lastChange = "2018-09-11 18:35:11 +0000";
layers = (
{
anchors = (
{
name = Anchor62;
position = "{623, 527}";
},
{
name = Anchor64;
position = "{606, -333}";
},
{
name = Anchor66;
position = "{248, -394}";
},
{
name = Anchor68;
position = "{312, 615}";
}
);
layerId = "5079F400-2279-4A14-BBD5-92ED0538B068";
paths = (
{
closed = 1;
nodes = (
"443 -358 LINE",
"594 -203 OFFCURVE",
"701 -49 OFFCURVE",
"701 90 CURVE SMOOTH",
"701 222 OFFCURVE",
"621 297 OFFCURVE",
"497 297 CURVE SMOOTH",
"435 297 OFFCURVE",
"356 272 OFFCURVE",
"303 199 CURVE",
"299 199 LINE",
"250 304 LINE SMOOTH",
"242 321 OFFCURVE",
"240 327 OFFCURVE",
"240 334 CURVE SMOOTH",
"240 337 OFFCURVE",
"241 341 OFFCURVE",
"243 345 CURVE SMOOTH",
"245 349 LINE",
"497 349 LINE",
"497 515 LINE",
"122 515 LINE",
"56 355 LINE",
"79 300 OFFCURVE",
"125 196 OFFCURVE",
"142 162 CURVE SMOOTH",
"170 105 OFFCURVE",
"203 33 OFFCURVE",
"222 0 CURVE",
"332 0 LINE",
"376 125 OFFCURVE",
"429 145 OFFCURVE",
"472 145 CURVE SMOOTH",
"508 145 OFFCURVE",
"529 123 OFFCURVE",
"529 89 CURVE SMOOTH",
"529 51 OFFCURVE",
"513 7 OFFCURVE",
"488 -39 CURVE SMOOTH",
"449 -112 OFFCURVE",
"383 -196 OFFCURVE",
"330 -262 CURVE"
);
}
);
width = 757;
}
);
},
{
glyphname = uni071F.Fina;
lastChange = "2018-09-11 18:35:11 +0000";
layers = (
{
anchors = (
{
name = Anchor2;
position = "{755, 502}";
},
{
name = Anchor4;
position = "{667, -160}";
},
{
name = Anchor6;
position = "{365, -117}";
},
{
name = Anchor8;
position = "{370, 524}";
}
);
layerId = "5079F400-2279-4A14-BBD5-92ED0538B068";
paths = (
{
closed = 1;
nodes = (
"1045 -324 LINE",
"1003 -209 OFFCURVE",
"962 -98 OFFCURVE",
"924 0 CURVE",
"965 0 LINE",
"965 185 LINE",
"848 185 LINE",
"828 232 OFFCURVE",
"809 271 OFFCURVE",
"795 297 CURVE SMOOTH",
"727 419 OFFCURVE",
"662 449 OFFCURVE",
"587 449 CURVE SMOOTH",
"477 449 OFFCURVE",
"413 381 OFFCURVE",
"392 232 CURVE SMOOTH",
"382 158 OFFCURVE",
"346 152 OFFCURVE",
"321 152 CURVE SMOOTH",
"245 152 OFFCURVE",
"225 244 OFFCURVE",
"225 303 CURVE SMOOTH",
"225 342 OFFCURVE",
"235 389 OFFCURVE",
"248 421 CURVE",
"97 480 LINE",
"75 443 OFFCURVE",
"54 366 OFFCURVE",
"54 302 CURVE SMOOTH",
"54 137 OFFCURVE",
"144 -24 OFFCURVE",
"305 -24 CURVE SMOOTH",
"451 -24 OFFCURVE",
"516 45 OFFCURVE",
"545 200 CURVE SMOOTH",
"554 249 OFFCURVE",
"563 266 OFFCURVE",
"586 266 CURVE SMOOTH",
"610 266 OFFCURVE",
"623 244 OFFCURVE",
"649 198 CURVE SMOOTH",
"690 125 OFFCURVE",
"798 -131 OFFCURVE",
"894 -375 CURVE"
);
}
);
width = 965;
}
);
},
{
glyphname = uni071F.Fina.SYRJ;
lastChange = "2018-09-11 18:35:11 +0000";
layers = (
{
anchors = (
{
name = Anchor119;
position = "{600, 411}";
},
{
name = Anchor121;
position = "{570, -76}";
},
{
name = Anchor123;
position = "{495, -281}";
},
{
name = Anchor125;
position = "{321, 510}";
}
);
layerId = "5079F400-2279-4A14-BBD5-92ED0538B068";
paths = (
{
closed = 1;
nodes = (
"47 308 LINE",
"45 293 OFFCURVE",
"45 280 OFFCURVE",
"45 275 CURVE SMOOTH",
"45 104 OFFCURVE",
"173 25 OFFCURVE",
"283 2 CURVE",
"102 -349 LINE",
"245 -410 LINE",
"454 0 LINE",
"684 0 LINE",
"684 185 LINE",
"620 185 LINE",
"620 194 OFFCURVE",
"619 203 OFFCURVE",
"617 212 CURVE SMOOTH",
"606 275 OFFCURVE",
"566 335 OFFCURVE",
"505 335 CURVE SMOOTH",
"447 335 OFFCURVE",
"421 306 OFFCURVE",
"363 198 CURVE SMOOTH",
"356 185 LINE",
"347 185 LINE SMOOTH",
"252 185 OFFCURVE",
"193 246 OFFCURVE",
"185 311 CURVE"
);
}
);
width = 684;
}
);
},
{
glyphname = uni071F.Fina.SYRN;
lastChange = "2018-09-11 18:35:11 +0000";
layers = (
{
anchors = (
{
name = Anchor62;
position = "{525, 571}";
},
{
name = Anchor64;
position = "{584, -425}";
},
{
name = Anchor66;
position = "{234, -334}";
},
{
name = Anchor68;
position = "{263, 517}";
}
);
layerId = "5079F400-2279-4A14-BBD5-92ED0538B068";
paths = (
{
closed = 1;
nodes = (
"696 -221 LINE",
"688 -224 OFFCURVE",
"671 -226 OFFCURVE",
"661 -226 CURVE SMOOTH",
"617 -226 OFFCURVE",
"590 -205 OFFCURVE",
"559 -176 CURVE SMOOTH",
"519 -138 OFFCURVE",
"462 -63 OFFCURVE",
"411 5 CURVE SMOOTH",
"360 73 OFFCURVE",
"312 145 OFFCURVE",
"271 212 CURVE SMOOTH",
"261 228 OFFCURVE",
"256 236 OFFCURVE",
"256 246 CURVE SMOOTH",
"256 247 OFFCURVE",
"256 249 OFFCURVE",
"257 250 CURVE",
"307 251 LINE SMOOTH",
"403 253 OFFCURVE",
"436 255 OFFCURVE",
"450 257 CURVE",
"450 176 LINE SMOOTH",
"450 47 OFFCURVE",
"530 0 OFFCURVE",
"615 0 CURVE SMOOTH",
"689 0 LINE",
"689 185 LINE",
"637 185 LINE SMOOTH",
"614 185 OFFCURVE",
"594 189 OFFCURVE",
"594 223 CURVE SMOOTH",
"594 471 LINE",
"450 471 LINE",
"450 420 LINE",
"411 415 OFFCURVE",
"332 414 OFFCURVE",
"265 414 CURVE SMOOTH",
"231 414 OFFCURVE",
"181 414 OFFCURVE",
"125 415 CURVE",
"56 240 LINE",
"115 141 OFFCURVE",
"182 29 OFFCURVE",
"249 -66 CURVE SMOOTH",
"331 -182 OFFCURVE",
"392 -258 OFFCURVE",
"430 -294 CURVE SMOOTH",
"477 -339 OFFCURVE",
"535 -373 OFFCURVE",
"603 -373 CURVE SMOOTH",
"637 -373 OFFCURVE",
"668 -369 OFFCURVE",
"703 -355 CURVE"
);
}
);
width = 689;
}
);
},
{
glyphname = uni071F.Medi;
lastChange = "2018-09-11 18:35:11 +0000";
layers = (
{
anchors = (
{
name = Anchor2;
position = "{589, 493}";
},
{
name = Anchor4;
position = "{571, -95}";
},
{
name = Anchor6;
position = "{301, -98}";
},
{
name = Anchor8;
position = "{294, 606}";
}
);
layerId = "5079F400-2279-4A14-BBD5-92ED0538B068";
paths = (
{
closed = 1;
nodes = (
"716 0 LINE",
"716 185 LINE",
"684 185 LINE",
"667 215 OFFCURVE",
"612 294 OFFCURVE",
"600 311 CURVE SMOOTH",
"508 442 OFFCURVE",
"413 513 OFFCURVE",
"286 513 CURVE SMOOTH",
"217 513 OFFCURVE",
"135 490 OFFCURVE",
"67 407 CURVE",
"167 297 LINE",
"202 328 OFFCURVE",
"236 344 OFFCURVE",
"274 344 CURVE SMOOTH",
"338 344 OFFCURVE",
"390 300 OFFCURVE",
"443 233 CURVE SMOOTH",
"456 217 OFFCURVE",
"468 201 OFFCURVE",
"481 185 CURVE",
"0 185 LINE SMOOTH",
"-24 185 OFFCURVE",
"-40 141 OFFCURVE",
"-40 92 CURVE SMOOTH",
"-40 42 OFFCURVE",
"-24 0 OFFCURVE",
"0 0 CURVE SMOOTH"
);
}
);
width = 716;
}
);
},
{
glyphname = uni071F.Medi.SYRJ;
lastChange = "2018-09-11 18:35:11 +0000";
layers = (
{
anchors = (
{
name = Anchor119;
position = "{544, 522}";
},
{
name = Anchor121;
position = "{493, -100}";
},
{
name = Anchor123;
position = "{249, -98}";
},
{
name = Anchor125;
position = "{275, 613}";
}
);
layerId = "5079F400-2279-4A14-BBD5-92ED0538B068";
paths = (
{
closed = 1;
nodes = (
"610 0 LINE",
"610 185 LINE",
"583 185 LINE SMOOTH",
"578 185 OFFCURVE",
"555 185 OFFCURVE",
"546 183 CURVE",
"546 185 LINE SMOOTH",
"547 190 OFFCURVE",
"548 218 OFFCURVE",
"548 221 CURVE SMOOTH",
"548 421 OFFCURVE",
"427 511 OFFCURVE",
"291 511 CURVE SMOOTH",
"183 511 OFFCURVE",
"68 444 OFFCURVE",
"41 308 CURVE",
"180 278 LINE",
"201 328 OFFCURVE",
"242 341 OFFCURVE",
"286 341 CURVE SMOOTH",
"346 341 OFFCURVE",
"393 297 OFFCURVE",
"393 221 CURVE SMOOTH",
"393 188 OFFCURVE",
"377 185 OFFCURVE",
"353 185 CURVE SMOOTH",
"0 185 LINE SMOOTH",
"-24 185 OFFCURVE",
"-40 141 OFFCURVE",
"-40 92 CURVE SMOOTH",
"-40 42 OFFCURVE",
"-24 0 OFFCURVE",
"0 0 CURVE SMOOTH"
);
}
);
width = 610;
}
);
},
{
glyphname = uni071F.Medi.SYRN;
lastChange = "2018-09-11 18:35:11 +0000";
layers = (
{
anchors = (
{
name = Anchor62;
position = "{578, 478}";
},
{
name = Anchor64;
position = "{517, -93}";
},
{
name = Anchor66;
position = "{204, -96}";
},
{
name = Anchor68;
position = "{294, 606}";
}
);
layerId = "5079F400-2279-4A14-BBD5-92ED0538B068";
paths = (
{
closed = 1;
nodes = (
"652 0 LINE",
"652 185 LINE",
"620 185 OFFCURVE",
"613 199 OFFCURVE",
"598 234 CURVE SMOOTH",
"580 275 LINE SMOOTH",
"508 440 OFFCURVE",
"423 509 OFFCURVE",
"297 509 CURVE SMOOTH",
"169 509 OFFCURVE",
"66 446 OFFCURVE",
"58 296 CURVE",
"207 296 LINE",
"213 328 OFFCURVE",
"242 339 OFFCURVE",
"281 339 CURVE SMOOTH",
"322 339 OFFCURVE",
"351 324 OFFCURVE",
"373 301 CURVE SMOOTH",
"395 279 OFFCURVE",
"411 249 OFFCURVE",
"425 219 CURVE SMOOTH",
"441 185 LINE",
"0 185 LINE SMOOTH",
"-24 185 OFFCURVE",
"-40 141 OFFCURVE",
"-40 92 CURVE SMOOTH",
"-40 42 OFFCURVE",
"-24 0 OFFCURVE",
"0 0 CURVE SMOOTH",
"448 0 LINE",
"487 81 LINE",
"491 81 LINE",
"523 20 OFFCURVE",
"562 0 OFFCURVE",
"636 0 CURVE SMOOTH"
);
}
);
width = 652;
}
);
},
{
glyphname = uni071F.Init;
lastChange = "2018-09-11 18:35:11 +0000";
layers = (
{
anchors = (
{
name = Anchor2;
position = "{589, 493}";
},
{
name = Anchor4;
position = "{571, -95}";
},
{
name = Anchor6;
position = "{301, -98}";
},
{
name = Anchor8;
position = "{294, 606}";
}
);
layerId = "5079F400-2279-4A14-BBD5-92ED0538B068";
paths = (
{
closed = 1;
nodes = (
"595 0 LINE SMOOTH",
"670 0 OFFCURVE",
"690 81 OFFCURVE",
"690 135 CURVE SMOOTH",
"690 159 OFFCURVE",
"684 183 OFFCURVE",
"668 211 CURVE SMOOTH",
"653 237 OFFCURVE",
"613 294 OFFCURVE",
"600 312 CURVE SMOOTH",
"506 442 OFFCURVE",
"417 513 OFFCURVE",
"286 513 CURVE SMOOTH",
"217 513 OFFCURVE",
"135 490 OFFCURVE",
"67 407 CURVE",
"167 297 LINE",
"202 328 OFFCURVE",
"236 344 OFFCURVE",
"274 344 CURVE SMOOTH",
"342 344 OFFCURVE",
"396 297 OFFCURVE",
"453 222 CURVE SMOOTH",
"462 210 OFFCURVE",
"472 197 OFFCURVE",
"481 185 CURVE",
"0 185 LINE SMOOTH",
"-24 185 OFFCURVE",
"-40 141 OFFCURVE",
"-40 92 CURVE SMOOTH",
"-40 42 OFFCURVE",
"-24 0 OFFCURVE",
"0 0 CURVE SMOOTH"
);
}
);
width = 726;
}
);
},
{
glyphname = uni071F.Init.SYRJ;
lastChange = "2018-09-11 18:35:11 +0000";
layers = (
{
anchors = (
{
name = Anchor119;
position = "{544, 522}";
},
{
name = Anchor121;
position = "{492, -75}";
},
{
name = Anchor123;
position = "{249, -98}";
},
{
name = Anchor125;
position = "{275, 613}";
}
);
layerId = "5079F400-2279-4A14-BBD5-92ED0538B068";
paths = (
{
closed = 1;
nodes = (
"344 0 LINE SMOOTH",
"477 0 OFFCURVE",
"549 82 OFFCURVE",
"549 209 CURVE SMOOTH",
"549 414 OFFCURVE",
"428 511 OFFCURVE",
"291 511 CURVE SMOOTH",
"183 511 OFFCURVE",
"68 444 OFFCURVE",
"41 308 CURVE",
"180 278 LINE",
"201 328 OFFCURVE",
"242 341 OFFCURVE",
"286 341 CURVE SMOOTH",
"346 341 OFFCURVE",
"393 297 OFFCURVE",
"393 221 CURVE SMOOTH",
"393 188 OFFCURVE",
"377 185 OFFCURVE",
"353 185 CURVE SMOOTH",
"0 185 LINE SMOOTH",
"-24 185 OFFCURVE",
"-40 141 OFFCURVE",
"-40 92 CURVE SMOOTH",
"-40 42 OFFCURVE",
"-24 0 OFFCURVE",
"0 0 CURVE SMOOTH"
);
}
);
width = 609;
}
);
},
{
glyphname = uni071F.Init.SYRN;
lastChange = "2018-09-11 18:35:11 +0000";
layers = (
{
anchors = (
{
name = Anchor62;
position = "{578, 482}";
},
{
name = Anchor64;
position = "{544, -96}";
},
{
name = Anchor66;
position = "{207, -98}";
},
{
name = Anchor68;
position = "{291, 606}";
}
);
layerId = "5079F400-2279-4A14-BBD5-92ED0538B068";
paths = (
{
closed = 1;
nodes = (
"556 0 LINE",
"636 145 LINE",
"617 188 OFFCURVE",
"599 232 OFFCURVE",
"580 275 CURVE SMOOTH",
"509 440 OFFCURVE",
"423 509 OFFCURVE",
"297 509 CURVE SMOOTH",
"169 509 OFFCURVE",
"66 446 OFFCURVE",
"58 296 CURVE",
"207 296 LINE",
"213 328 OFFCURVE",
"242 339 OFFCURVE",
"281 339 CURVE SMOOTH",
"322 339 OFFCURVE",
"351 324 OFFCURVE",
"373 301 CURVE SMOOTH",
"395 279 OFFCURVE",
"411 249 OFFCURVE",
"425 219 CURVE SMOOTH",
"441 185 LINE",
"0 185 LINE SMOOTH",
"-24 185 OFFCURVE",
"-40 141 OFFCURVE",
"-40 92 CURVE SMOOTH",
"-40 42 OFFCURVE",
"-24 0 OFFCURVE",
"0 0 CURVE SMOOTH"
);
}
);
width = 676;
}
);
},
{
glyphname = uni0720;
lastChange = "2018-09-11 18:35:11 +0000";
layers = (
{
anchors = (
{
name = Anchor6;
position = "{352, -98}";
},
{
name = Anchor8;
position = "{350, 861}";
}
);
layerId = "5079F400-2279-4A14-BBD5-92ED0538B068";
paths = (
{
closed = 1;
nodes = (
"587 0 LINE SMOOTH",
"677 0 OFFCURVE",
"690 92 OFFCURVE",
"690 131 CURVE SMOOTH",
"690 148 OFFCURVE",
"687 170 OFFCURVE",
"679 199 CURVE SMOOTH",
"647 321 OFFCURVE",
"547 632 OFFCURVE",
"483 803 CURVE",
"302 743 LINE",
"367 575 OFFCURVE",
"474 292 OFFCURVE",
"510 185 CURVE",
"369 185 LINE SMOOTH",
"257 185 OFFCURVE",
"188 201 OFFCURVE",
"148 249 CURVE",
"38 140 LINE",
"75 47 OFFCURVE",
"156 0 OFFCURVE",
"309 0 CURVE SMOOTH"
);
}
);
width = 750;
}
);
unicode = 0720;
},
{
glyphname = uni0720.SYRJ;
lastChange = "2018-09-11 18:35:11 +0000";
layers = (
{
anchors = (
{
name = Anchor123;
position = "{423, -98}";
},
{
name = Anchor125;
position = "{208, 786}";
}
);
layerId = "5079F400-2279-4A14-BBD5-92ED0538B068";
paths = (
{
closed = 1;
nodes = (
"523 -21 OFFCURVE",
"563 42 OFFCURVE",
"573 78 CURVE",
"577 78 LINE",
"659 -16 LINE",
"786 82 LINE",
"207 744 LINE",
"86 642 LINE",
"451 224 LINE SMOOTH",
"470 203 OFFCURVE",
"472 194 OFFCURVE",
"472 184 CURVE SMOOTH",
"472 166 OFFCURVE",
"455 151 OFFCURVE",
"432 151 CURVE SMOOTH",
"410 151 OFFCURVE",
"392 162 OFFCURVE",
"370 186 CURVE SMOOTH",
"-104 706 LINE",
"-226 606 LINE",
"254 76 LINE SMOOTH",
"321 2 OFFCURVE",
"368 -21 OFFCURVE",
"432 -21 CURVE SMOOTH"
);
}
);
width = 820;
}
);
},
{
glyphname = uni0720.SYRN;
lastChange = "2018-09-11 18:35:11 +0000";
layers = (
{
anchors = (
{
name = Anchor66;
position = "{407, -98}";
},
{
name = Anchor68;
position = "{417, 798}";
}
);
layerId = "5079F400-2279-4A14-BBD5-92ED0538B068";
paths = (
{
closed = 1;
nodes = (
"733 0 LINE",
"823 144 LINE",
"515 743 LINE",
"360 661 LINE",
"604 185 LINE",
"320 185 LINE SMOOTH",
"245 185 OFFCURVE",
"177 188 OFFCURVE",
"132 247 CURVE",
"37 130 LINE",
"61 45 OFFCURVE",
"163 0 OFFCURVE",
"307 0 CURVE SMOOTH"
);
}
);
width = 863;
}
);
},
{
glyphname = uni0720.Fina;
lastChange = "2018-09-11 18:35:11 +0000";
layers = (
{
anchors = (
{
name = Anchor6;
position = "{352, -98}";
},
{
name = Anchor8;
position = "{350, 861}";
}
);
layerId = "5079F400-2279-4A14-BBD5-92ED0538B068";
paths = (
{
closed = 1;
nodes = (
"777 185 LINE",
"699 185 LINE",
"653 341 OFFCURVE",
"559 634 OFFCURVE",
"493 803 CURVE",
"312 743 LINE",
"362 622 OFFCURVE",
"470 334 OFFCURVE",
"524 185 CURVE",
"379 185 LINE SMOOTH",
"267 185 OFFCURVE",
"198 201 OFFCURVE",
"158 249 CURVE",
"48 140 LINE",
"85 47 OFFCURVE",
"166 0 OFFCURVE",
"319 0 CURVE SMOOTH",
"777 0 LINE"
);
}
);
width = 777;
}
);
},
{
glyphname = uni0720.Fina.SYRJ;
lastChange = "2018-09-11 18:35:11 +0000";
layers = (
{
anchors = (
{
name = Anchor123;
position = "{424, -102}";
},
{
name = Anchor125;
position = "{208, 785}";
}
);
layerId = "5079F400-2279-4A14-BBD5-92ED0538B068";
paths = (
{
closed = 1;
nodes = (
"522 -21 OFFCURVE",
"565 42 OFFCURVE",
"574 83 CURVE",
"578 83 LINE",
"636 23 OFFCURVE",
"703 0 OFFCURVE",
"751 0 CURVE",
"751 185 LINE",
"711 185 OFFCURVE",
"683 200 OFFCURVE",
"657 230 CURVE SMOOTH",
"207 744 LINE",
"86 642 LINE",
"450 224 LINE SMOOTH",
"469 203 OFFCURVE",
"471 194 OFFCURVE",
"471 184 CURVE SMOOTH",
"471 166 OFFCURVE",
"454 151 OFFCURVE",
"431 151 CURVE SMOOTH",
"409 151 OFFCURVE",
"391 162 OFFCURVE",
"369 186 CURVE SMOOTH",
"-104 706 LINE",
"-226 606 LINE",
"253 76 LINE SMOOTH",
"320 2 OFFCURVE",
"367 -21 OFFCURVE",
"431 -21 CURVE SMOOTH"
);
}
);
width = 751;
}
);
},
{
glyphname = uni0720.Fina.SYRN;
lastChange = "2018-09-11 18:35:11 +0000";
layers = (
{
anchors = (
{
name = Anchor66;
position = "{411, -98}";
},
{
name = Anchor68;
position = "{417, 799}";
}
);
layerId = "5079F400-2279-4A14-BBD5-92ED0538B068";
paths = (
{
closed = 1;
nodes = (
"821 0 LINE",
"821 185 LINE",
"810 185 OFFCURVE",
"798 195 OFFCURVE",
"774 241 CURVE SMOOTH",
"515 743 LINE",
"360 661 LINE",
"604 185 LINE",
"320 185 LINE SMOOTH",
"245 185 OFFCURVE",
"177 188 OFFCURVE",
"132 247 CURVE",
"37 130 LINE",
"61 45 OFFCURVE",
"163 0 OFFCURVE",
"307 0 CURVE SMOOTH",
"622 0 LINE",
"660 81 LINE",
"664 81 LINE",
"700 30 OFFCURVE",
"743 0 OFFCURVE",
"816 0 CURVE SMOOTH"
);
}
);
width = 821;
}
);
},
{
glyphname = uni0720.Medi;
lastChange = "2018-09-11 18:35:11 +0000";
layers = (
{
anchors = (
{
name = Anchor6;
position = "{192, -98}";
},
{
name = Anchor8;
position = "{20, 861}";
}
);
layerId = "5079F400-2279-4A14-BBD5-92ED0538B068";
paths = (
{
closed = 1;
nodes = (
"420 185 LINE",
"341 185 LINE",
"296 341 OFFCURVE",
"202 634 OFFCURVE",
"136 803 CURVE",
"-45 743 LINE",
"5 622 OFFCURVE",
"113 334 OFFCURVE",
"167 185 CURVE",
"0 185 LINE SMOOTH",
"-24 185 OFFCURVE",
"-40 141 OFFCURVE",
"-40 92 CURVE SMOOTH",
"-40 42 OFFCURVE",
"-24 0 OFFCURVE",
"0 0 CURVE SMOOTH",
"420 0 LINE"
);
}
);
width = 420;
}
);
},
{
glyphname = uni0720.Medi.SYRJ;
lastChange = "2018-09-11 18:35:11 +0000";
layers = (
{
anchors = (
{
name = Anchor123;
position = "{203, -98}";
},
{
name = Anchor125;
position = "{47, 786}";
}
);
layerId = "5079F400-2279-4A14-BBD5-92ED0538B068";
paths = (
{
closed = 1;
nodes = (
"0 185 LINE SMOOTH",
"-24 185 OFFCURVE",
"-40 141 OFFCURVE",
"-40 92 CURVE SMOOTH",
"-40 42 OFFCURVE",
"-24 0 OFFCURVE",
"0 0 CURVE SMOOTH",
"230 0 LINE SMOOTH",
"321 0 OFFCURVE",
"384 18 OFFCURVE",
"433 68 CURVE",
"481 20 OFFCURVE",
"547 0 OFFCURVE",
"591 0 CURVE",
"591 185 LINE",
"560 185 OFFCURVE",
"525 197 OFFCURVE",
"490 237 CURVE SMOOTH",
"47 744 LINE",
"-78 642 LINE",
"311 200 LINE",
"304 192 OFFCURVE",
"260 185 OFFCURVE",
"216 185 CURVE SMOOTH"
);
}
);
width = 591;
}
);
},
{
glyphname = uni0720.Medi.SYRN;
lastChange = "2018-09-11 18:35:11 +0000";
layers = (
{
anchors = (
{
name = Anchor66;
position = "{191, -100}";
},
{
name = Anchor68;
position = "{50, 796}";
}
);
layerId = "5079F400-2279-4A14-BBD5-92ED0538B068";
paths = (
{
closed = 1;
nodes = (
"456 0 LINE",
"456 185 LINE",
"445 185 OFFCURVE",
"433 195 OFFCURVE",
"409 241 CURVE SMOOTH",
"150 743 LINE",
"-5 661 LINE",
"239 185 LINE",
"0 185 LINE SMOOTH",
"-24 185 OFFCURVE",
"-40 141 OFFCURVE",
"-40 92 CURVE SMOOTH",
"-40 42 OFFCURVE",
"-24 0 OFFCURVE",
"0 0 CURVE SMOOTH",
"257 0 LINE",
"295 81 LINE",
"299 81 LINE",
"335 30 OFFCURVE",
"378 0 OFFCURVE",
"451 0 CURVE SMOOTH"
);
}
);
width = 456;
}
);
},
{
glyphname = uni0720.Init;
lastChange = "2018-09-11 18:35:11 +0000";
layers = (
{
anchors = (
{
name = Anchor6;
position = "{169, -98}";
},
{
name = Anchor8;
position = "{-8, 846}";
}
);
layerId = "5079F400-2279-4A14-BBD5-92ED0538B068";
paths = (
{
closed = 1;
nodes = (
"243 0 LINE SMOOTH",
"333 0 OFFCURVE",
"346 92 OFFCURVE",
"346 131 CURVE SMOOTH",
"346 148 OFFCURVE",
"343 170 OFFCURVE",
"335 199 CURVE SMOOTH",
"303 321 OFFCURVE",
"203 632 OFFCURVE",
"139 803 CURVE",
"-42 743 LINE",
"23 575 OFFCURVE",
"130 292 OFFCURVE",
"166 185 CURVE",
"0 185 LINE SMOOTH",
"-24 185 OFFCURVE",
"-40 141 OFFCURVE",
"-40 92 CURVE SMOOTH",
"-40 42 OFFCURVE",
"-24 0 OFFCURVE",
"0 0 CURVE SMOOTH"
);
}
);
width = 406;
}
);
},
{
glyphname = uni0720.Init.SYRJ;
lastChange = "2018-09-11 18:35:11 +0000";
layers = (
{
anchors = (
{
name = Anchor123;
position = "{192, -98}";
},
{
name = Anchor125;
position = "{47, 786}";
}
);
layerId = "5079F400-2279-4A14-BBD5-92ED0538B068";
paths = (
{
closed = 1;
nodes = (
"47 744 LINE",
"-78 642 LINE",
"311 200 LINE",
"304 192 OFFCURVE",
"260 185 OFFCURVE",
"216 185 CURVE SMOOTH",
"0 185 LINE SMOOTH",
"-24 185 OFFCURVE",
"-40 141 OFFCURVE",
"-40 92 CURVE SMOOTH",
"-40 42 OFFCURVE",
"-24 0 OFFCURVE",
"0 0 CURVE SMOOTH",
"212 0 LINE SMOOTH",
"303 0 OFFCURVE",
"374 18 OFFCURVE",
"423 68 CURVE",
"494 -7 LINE",
"619 91 LINE"
);
}
);
width = 655;
}
);
},
{
glyphname = uni0720.Init.SYRN;
lastChange = "2018-09-11 18:35:11 +0000";
layers = (
{
anchors = (
{
name = Anchor66;
position = "{191, -98}";
},
{
name = Anchor68;
position = "{52, 798}";
}
);
layerId = "5079F400-2279-4A14-BBD5-92ED0538B068";
paths = (
{
closed = 1;
nodes = (
"368 0 LINE",
"458 144 LINE",
"150 743 LINE",
"-5 661 LINE",
"239 185 LINE",
"0 185 LINE SMOOTH",
"-24 185 OFFCURVE",
"-40 141 OFFCURVE",
"-40 92 CURVE SMOOTH",
"-40 42 OFFCURVE",
"-24 0 OFFCURVE",
"0 0 CURVE SMOOTH"
);
}
);
width = 498;
}
);
},
{
glyphname = uni0721;
lastChange = "2018-09-11 18:35:11 +0000";
layers = (
{
anchors = (
{
name = Anchor6;
position = "{655, -98}";
},
{
name = Anchor8;
position = "{535, 613}";
}
);
layerId = "5079F400-2279-4A14-BBD5-92ED0538B068";
paths = (
{
closed = 1;
nodes = (
"697 0 LINE SMOOTH",
"839 0 OFFCURVE",
"912 99 OFFCURVE",
"912 227 CURVE SMOOTH",
"912 294 OFFCURVE",
"894 385 OFFCURVE",
"866 428 CURVE SMOOTH",
"822 494 OFFCURVE",
"752 507 OFFCURVE",
"674 507 CURVE SMOOTH",
"638 507 OFFCURVE",
"504 491 OFFCURVE",
"442 491 CURVE SMOOTH",
"293 491 OFFCURVE",
"176 525 OFFCURVE",
"104 557 CURVE",
"46 391 LINE",
"110 354 OFFCURVE",
"239 327 OFFCURVE",
"413 324 CURVE",
"408 277 OFFCURVE",
"401 233 OFFCURVE",
"392 193 CURVE SMOOTH",
"366 82 OFFCURVE",
"319 -9 OFFCURVE",
"235 -106 CURVE",
"350 -206 LINE",
"432 -130 OFFCURVE",
"505 5 OFFCURVE",
"524 68 CURVE",
"530 68 LINE",
"549 29 OFFCURVE",
"600 0 OFFCURVE",
"672 0 CURVE SMOOTH"
);
},
{
closed = 1;
nodes = (
"659 177 LINE SMOOTH",
"623 177 OFFCURVE",
"599 190 OFFCURVE",
"584 211 CURVE SMOOTH",
"569 232 OFFCURVE",
"563 261 OFFCURVE",
"563 291 CURVE SMOOTH",
"563 295 OFFCURVE",
"564 318 OFFCURVE",
"566 333 CURVE",
"602 340 OFFCURVE",
"644 342 OFFCURVE",
"674 342 CURVE SMOOTH",
"729 342 OFFCURVE",
"754 307 OFFCURVE",
"754 240 CURVE SMOOTH",
"754 203 OFFCURVE",
"738 177 OFFCURVE",
"688 177 CURVE SMOOTH"
);
}
);
width = 970;
}
);
unicode = 0721;
},
{
glyphname = uni0721.SYRJ;
lastChange = "2018-09-11 18:35:11 +0000";
layers = (
{
anchors = (
{
name = Anchor123;
position = "{529, -98}";
},
{
name = Anchor125;
position = "{411, 588}";
}
);
layerId = "5079F400-2279-4A14-BBD5-92ED0538B068";
paths = (
{
closed = 1;
nodes = (
"366 490 OFFCURVE",
"288 455 OFFCURVE",
"254 390 CURVE",
"250 390 LINE",
"231 434 OFFCURVE",
"210 467 OFFCURVE",
"173 518 CURVE",
"30 433 LINE",
"119 295 OFFCURVE",
"172 170 OFFCURVE",
"172 4 CURVE SMOOTH",
"172 -163 OFFCURVE",
"135 -287 OFFCURVE",
"105 -369 CURVE",
"263 -410 LINE",
"294 -337 OFFCURVE",
"328 -191 OFFCURVE",
"328 -56 CURVE SMOOTH",
"328 -28 OFFCURVE",
"328 4 OFFCURVE",
"324 37 CURVE",
"328 39 LINE",
"350 17 OFFCURVE",
"391 -4 OFFCURVE",
"452 -4 CURVE SMOOTH",
"564 -4 OFFCURVE",
"680 72 OFFCURVE",
"680 237 CURVE SMOOTH",
"680 379 OFFCURVE",
"593 490 OFFCURVE",
"426 490 CURVE SMOOTH"
);
},
{
closed = 1;
nodes = (
"349 167 OFFCURVE",
"303 214 OFFCURVE",
"303 254 CURVE SMOOTH",
"303 298 OFFCURVE",
"343 331 OFFCURVE",
"413 331 CURVE SMOOTH",
"481 331 OFFCURVE",
"525 298 OFFCURVE",
"525 247 CURVE SMOOTH",
"525 193 OFFCURVE",
"488 167 OFFCURVE",
"430 167 CURVE SMOOTH"
);
}
);
width = 735;
}
);
},
{
glyphname = uni0721.SYRN;
lastChange = "2018-09-11 18:35:11 +0000";
layers = (
{
anchors = (
{
name = Anchor66;
position = "{529, -99}";
},
{
name = Anchor68;
position = "{480, 595}";
}
);
layerId = "5079F400-2279-4A14-BBD5-92ED0538B068";
paths = (
{
closed = 1;
nodes = (
"655 0 LINE",
"736 126 LINE",
"736 500 LINE",
"259 500 LINE SMOOTH",
"161 500 OFFCURVE",
"64 507 OFFCURVE",
"40 512 CURVE",
"40 343 LINE",
"69 333 OFFCURVE",
"165 325 OFFCURVE",
"258 325 CURVE SMOOTH",
"269 325 LINE",
"109 -143 LINE",
"271 -190 LINE",
"351 51 LINE",
"381 14 OFFCURVE",
"437 0 OFFCURVE",
"504 0 CURVE SMOOTH"
);
},
{
closed = 1;
nodes = (
"496 185 LINE SMOOTH",
"469 185 OFFCURVE",
"416 188 OFFCURVE",
"408 225 CURVE",
"439 325 LINE",
"575 325 LINE",
"575 185 LINE"
);
}
);
width = 793;
}
);
},
{
glyphname = uni0721.Fina;
lastChange = "2018-09-11 18:35:11 +0000";
layers = (
{
anchors = (
{
name = Anchor6;
position = "{655, -98}";
},
{
name = Anchor8;
position = "{535, 613}";
}
);
layerId = "5079F400-2279-4A14-BBD5-92ED0538B068";
paths = (
{
closed = 1;
nodes = (
"985 185 LINE",
"903 185 LINE",
"903 187 LINE",
"910 203 OFFCURVE",
"912 225 OFFCURVE",
"912 237 CURVE SMOOTH",
"912 307 OFFCURVE",
"893 391 OFFCURVE",
"862 434 CURVE SMOOTH",
"817 495 OFFCURVE",
"749 507 OFFCURVE",
"674 507 CURVE SMOOTH",
"638 507 OFFCURVE",
"504 491 OFFCURVE",
"442 491 CURVE SMOOTH",
"293 491 OFFCURVE",
"176 525 OFFCURVE",
"104 557 CURVE",
"46 391 LINE",
"110 354 OFFCURVE",
"239 327 OFFCURVE",
"413 324 CURVE",
"408 274 OFFCURVE",
"401 229 OFFCURVE",
"390 187 CURVE SMOOTH",
"363 80 OFFCURVE",
"315 -7 OFFCURVE",
"235 -106 CURVE",
"350 -206 LINE",
"432 -130 OFFCURVE",
"505 5 OFFCURVE",
"524 68 CURVE",
"530 68 LINE",
"549 29 OFFCURVE",
"600 0 OFFCURVE",
"672 0 CURVE SMOOTH",
"985 0 LINE"
);
},
{
closed = 1;
nodes = (
"659 177 LINE SMOOTH",
"623 177 OFFCURVE",
"599 190 OFFCURVE",
"584 211 CURVE SMOOTH",
"569 232 OFFCURVE",
"563 261 OFFCURVE",
"563 291 CURVE SMOOTH",
"563 295 OFFCURVE",
"564 318 OFFCURVE",
"566 333 CURVE",
"602 340 OFFCURVE",
"644 342 OFFCURVE",
"674 342 CURVE SMOOTH",
"729 342 OFFCURVE",
"754 307 OFFCURVE",
"754 240 CURVE SMOOTH",
"754 203 OFFCURVE",
"738 177 OFFCURVE",
"688 177 CURVE SMOOTH"
);
}
);
width = 985;
}
);
},
{
glyphname = uni0721.Fina.SYRJ;
lastChange = "2018-09-11 18:35:11 +0000";
layers = (
{
anchors = (
{
name = Anchor123;
position = "{531, -98}";
},
{
name = Anchor125;
position = "{412, 587}";
}
);
layerId = "5079F400-2279-4A14-BBD5-92ED0538B068";
paths = (
{
closed = 1;
nodes = (
"721 185 LINE SMOOTH",
"702 185 OFFCURVE",
"684 185 OFFCURVE",
"657 183 CURVE",
"657 185 LINE",
"670 204 OFFCURVE",
"679 242 OFFCURVE",
"679 272 CURVE SMOOTH",
"679 378 OFFCURVE",
"598 490 OFFCURVE",
"431 490 CURVE SMOOTH",
"364 490 OFFCURVE",
"287 455 OFFCURVE",
"253 390 CURVE",
"249 390 LINE",
"230 434 OFFCURVE",
"209 467 OFFCURVE",
"172 518 CURVE",
"29 433 LINE",
"118 295 OFFCURVE",
"171 170 OFFCURVE",
"171 4 CURVE SMOOTH",
"171 -163 OFFCURVE",
"134 -287 OFFCURVE",
"104 -369 CURVE",
"262 -410 LINE",
"293 -337 OFFCURVE",
"327 -191 OFFCURVE",
"327 -56 CURVE SMOOTH",
"327 -28 OFFCURVE",
"327 14 OFFCURVE",
"323 47 CURVE",
"327 49 LINE",
"378 18 OFFCURVE",
"444 0 OFFCURVE",
"569 0 CURVE SMOOTH",
"735 0 LINE",
"735 185 LINE"
);
},
{
closed = 1;
nodes = (
"348 167 OFFCURVE",
"302 214 OFFCURVE",
"302 254 CURVE SMOOTH",
"302 298 OFFCURVE",
"342 331 OFFCURVE",
"412 331 CURVE SMOOTH",
"480 331 OFFCURVE",
"524 296 OFFCURVE",
"524 251 CURVE SMOOTH",
"524 197 OFFCURVE",
"487 167 OFFCURVE",
"429 167 CURVE SMOOTH"
);
}
);
width = 735;
}
);
},
{
glyphname = uni0721.Fina.SYRN;
lastChange = "2018-09-11 18:35:11 +0000";
layers = (
{
anchors = (
{
name = Anchor66;
position = "{529, -99}";
},
{
name = Anchor68;
position = "{479, 597}";
}
);
layerId = "5079F400-2279-4A14-BBD5-92ED0538B068";
paths = (
{
closed = 1;
nodes = (
"818 0 LINE",
"818 185 LINE",
"808 185 LINE SMOOTH",
"749 185 OFFCURVE",
"736 206 OFFCURVE",
"736 293 CURVE SMOOTH",
"736 500 LINE",
"259 500 LINE SMOOTH",
"161 500 OFFCURVE",
"64 507 OFFCURVE",
"40 512 CURVE",
"40 343 LINE",
"69 333 OFFCURVE",
"165 325 OFFCURVE",
"258 325 CURVE SMOOTH",
"269 325 LINE",
"109 -143 LINE",
"271 -190 LINE",
"351 51 LINE",
"381 14 OFFCURVE",
"437 0 OFFCURVE",
"504 0 CURVE SMOOTH",
"579 0 LINE",
"617 81 LINE",
"619 81 LINE",
"661 5 OFFCURVE",
"741 0 OFFCURVE",
"814 0 CURVE SMOOTH"
);
},
{
closed = 1;
nodes = (
"575 261 LINE SMOOTH",
"575 240 OFFCURVE",
"578 201 OFFCURVE",
"582 185 CURVE",
"496 185 LINE SMOOTH",
"469 185 OFFCURVE",
"416 188 OFFCURVE",
"408 225 CURVE",
"439 325 LINE",
"575 325 LINE"
);
}
);
width = 818;
}
);
},
{
glyphname = uni0721.Medi;
lastChange = "2018-09-11 18:35:11 +0000";
layers = (
{
anchors = (
{
name = Anchor6;
position = "{575, -97}";
},
{
name = Anchor8;
position = "{593, 590}";
}
);
layerId = "5079F400-2279-4A14-BBD5-92ED0538B068";
paths = (
{
closed = 1;
nodes = (
"1056 185 LINE",
"977 185 LINE",
"977 187 LINE SMOOTH",
"979 202 OFFCURVE",
"979 214 OFFCURVE",
"979 224 CURVE SMOOTH",
"979 272 OFFCURVE",
"969 318 OFFCURVE",
"962 345 CURVE SMOOTH",
"932 457 OFFCURVE",
"849 493 OFFCURVE",
"755 493 CURVE SMOOTH",
"654 493 OFFCURVE",
"573 472 OFFCURVE",
"448 472 CURVE SMOOTH",
"349 472 OFFCURVE",
"242 493 OFFCURVE",
"145 537 CURVE",
"82 372 LINE",
"138 340 OFFCURVE",
"262 303 OFFCURVE",
"404 303 CURVE SMOOTH",
"436 303 OFFCURVE",
"481 305 OFFCURVE",
"507 308 CURVE",
"476 242 OFFCURVE",
"430 185 OFFCURVE",
"298 185 CURVE SMOOTH",
"0 185 LINE SMOOTH",
"-24 185 OFFCURVE",
"-40 141 OFFCURVE",
"-40 92 CURVE SMOOTH",
"-40 42 OFFCURVE",
"-24 0 OFFCURVE",
"0 0 CURVE SMOOTH",
"290 0 LINE SMOOTH",
"544 0 OFFCURVE",
"615 146 OFFCURVE",
"666 321 CURVE",
"704 328 OFFCURVE",
"719 329 OFFCURVE",
"734 329 CURVE SMOOTH",
"770 329 OFFCURVE",
"790 313 OFFCURVE",
"801 297 CURVE SMOOTH",
"818 272 OFFCURVE",
"822 234 OFFCURVE",
"822 201 CURVE SMOOTH",
"822 171 OFFCURVE",
"805 147 OFFCURVE",
"769 147 CURVE SMOOTH",
"746 147 OFFCURVE",
"726 150 OFFCURVE",
"688 165 CURVE",
"621 33 LINE",
"674 -3 OFFCURVE",
"724 -18 OFFCURVE",
"775 -18 CURVE SMOOTH",
"803 -18 OFFCURVE",
"836 -15 OFFCURVE",
"869 0 CURVE",
"1056 0 LINE"
);
}
);
width = 1056;
}
);
},
{
glyphname = uni0721.Medi.SYRJ;
lastChange = "2018-09-11 18:35:11 +0000";
layers = (
{
anchors = (
{
name = Anchor123;
position = "{420, -98}";
},
{
name = Anchor125;
position = "{440, 603}";
}
);
layerId = "5079F400-2279-4A14-BBD5-92ED0538B068";
paths = (
{
closed = 1;
nodes = (
"11 453 LINE",
"240 195 LINE",
"236 186 OFFCURVE",
"188 185 OFFCURVE",
"160 185 CURVE SMOOTH",
"0 185 LINE SMOOTH",
"-24 185 OFFCURVE",
"-38 141 OFFCURVE",
"-38 92 CURVE SMOOTH",
"-38 42 OFFCURVE",
"-24 0 OFFCURVE",
"0 0 CURVE SMOOTH",
"91 0 LINE SMOOTH",
"196 0 OFFCURVE",
"296 13 OFFCURVE",
"356 57 CURVE",
"360 57 LINE",
"427 11 OFFCURVE",
"512 0 OFFCURVE",
"571 0 CURVE SMOOTH",
"828 0 LINE",
"828 185 LINE",
"800 185 LINE SMOOTH",
"784 185 OFFCURVE",
"774 185 OFFCURVE",
"745 183 CURVE",
"745 185 LINE",
"758 200 OFFCURVE",
"768 240 OFFCURVE",
"768 276 CURVE SMOOTH",
"768 399 OFFCURVE",
"682 500 OFFCURVE",
"522 500 CURVE SMOOTH",
"415 500 OFFCURVE",
"343 439 OFFCURVE",
"317 372 CURVE SMOOTH",
"315 367 OFFCURVE",
"312 358 OFFCURVE",
"311 352 CURVE",
"306 352 LINE",
"291 370 OFFCURVE",
"272 393 OFFCURVE",
"255 412 CURVE SMOOTH",
"132 555 LINE"
);
},
{
closed = 1;
nodes = (
"466 185 OFFCURVE",
"411 223 OFFCURVE",
"411 267 CURVE SMOOTH",
"411 317 OFFCURVE",
"461 342 OFFCURVE",
"510 342 CURVE SMOOTH",
"582 342 OFFCURVE",
"618 299 OFFCURVE",
"618 258 CURVE SMOOTH",
"618 206 OFFCURVE",
"577 185 OFFCURVE",
"527 185 CURVE SMOOTH"
);
}
);
width = 826;
}
);
},
{
glyphname = uni0721.Medi.SYRN;
lastChange = "2018-09-11 18:35:11 +0000";
layers = (
{
anchors = (
{
name = Anchor66;
position = "{355, -98}";
},
{
name = Anchor68;
position = "{557, 610}";
}
);
layerId = "5079F400-2279-4A14-BBD5-92ED0538B068";
paths = (
{
closed = 1;
nodes = (
"849 0 LINE",
"849 185 LINE",
"845 185 LINE SMOOTH",
"819 185 OFFCURVE",
"796 191 OFFCURVE",
"789 209 CURVE",
"790 214 OFFCURVE",
"791 238 OFFCURVE",
"791 247 CURVE SMOOTH",
"791 324 OFFCURVE",
"764 387 OFFCURVE",
"721 430 CURVE SMOOTH",
"677 474 OFFCURVE",
"618 499 OFFCURVE",
"552 499 CURVE SMOOTH",
"510 499 OFFCURVE",
"473 489 OFFCURVE",
"441 473 CURVE SMOOTH",
"409 457 OFFCURVE",
"382 434 OFFCURVE",
"362 407 CURVE",
"252 497 LINE SMOOTH",
"219 524 OFFCURVE",
"161 574 OFFCURVE",
"135 598 CURVE",
"27 462 LINE",
"81 406 OFFCURVE",
"168 340 OFFCURVE",
"238 289 CURVE SMOOTH",
"299 244 LINE",
"297 234 OFFCURVE",
"297 225 OFFCURVE",
"297 221 CURVE SMOOTH",
"297 214 OFFCURVE",
"298 198 OFFCURVE",
"302 185 CURVE",
"0 185 LINE SMOOTH",
"-24 185 OFFCURVE",
"-40 141 OFFCURVE",
"-40 92 CURVE SMOOTH",
"-40 42 OFFCURVE",
"-24 0 OFFCURVE",
"0 0 CURVE SMOOTH",
"299 0 LINE",
"339 81 LINE",
"341 81 LINE",
"383 17 OFFCURVE",
"454 -5 OFFCURVE",
"537 -5 CURVE SMOOTH",
"626 -5 OFFCURVE",
"695 27 OFFCURVE",
"726 72 CURVE",
"730 72 LINE",
"760 16 OFFCURVE",
"810 0 OFFCURVE",
"844 0 CURVE SMOOTH"
);
},
{
closed = 1;
nodes = (
"641 199 OFFCURVE",
"610 161 OFFCURVE",
"544 161 CURVE SMOOTH",
"482 161 OFFCURVE",
"450 197 OFFCURVE",
"450 243 CURVE SMOOTH",
"450 294 OFFCURVE",
"485 341 OFFCURVE",
"546 341 CURVE SMOOTH",
"596 341 OFFCURVE",
"641 305 OFFCURVE",
"641 244 CURVE SMOOTH"
);
}
);
width = 849;
}
);
},
{
glyphname = uni0721.Init;
lastChange = "2018-09-11 18:35:11 +0000";
layers = (
{
anchors = (
{
name = Anchor6;
position = "{576, -97}";
},
{
name = Anchor8;
position = "{593, 588}";
}
);
layerId = "5079F400-2279-4A14-BBD5-92ED0538B068";
paths = (
{
closed = 1;
nodes = (
"621 33 LINE",
"674 -3 OFFCURVE",
"724 -18 OFFCURVE",
"775 -18 CURVE SMOOTH",
"840 -18 OFFCURVE",
"981 6 OFFCURVE",
"981 204 CURVE SMOOTH",
"981 263 OFFCURVE",
"971 312 OFFCURVE",
"962 345 CURVE SMOOTH",
"931 457 OFFCURVE",
"849 493 OFFCURVE",
"755 493 CURVE SMOOTH",
"654 493 OFFCURVE",
"573 472 OFFCURVE",
"448 472 CURVE SMOOTH",
"349 472 OFFCURVE",
"240 495 OFFCURVE",
"145 537 CURVE",
"82 372 LINE",
"138 340 OFFCURVE",
"262 303 OFFCURVE",
"404 303 CURVE SMOOTH",
"436 303 OFFCURVE",
"481 305 OFFCURVE",
"507 308 CURVE",
"476 242 OFFCURVE",
"430 185 OFFCURVE",
"298 185 CURVE SMOOTH",
"0 185 LINE SMOOTH",
"-24 185 OFFCURVE",
"-40 141 OFFCURVE",
"-40 92 CURVE SMOOTH",
"-40 42 OFFCURVE",
"-24 0 OFFCURVE",
"0 0 CURVE SMOOTH",
"290 0 LINE SMOOTH",
"544 0 OFFCURVE",
"615 147 OFFCURVE",
"666 322 CURVE",
"704 329 OFFCURVE",
"719 329 OFFCURVE",
"734 329 CURVE SMOOTH",
"770 329 OFFCURVE",
"790 313 OFFCURVE",
"801 297 CURVE SMOOTH",
"818 272 OFFCURVE",
"822 234 OFFCURVE",
"822 201 CURVE SMOOTH",
"822 171 OFFCURVE",
"805 147 OFFCURVE",
"769 147 CURVE SMOOTH",
"746 147 OFFCURVE",
"726 150 OFFCURVE",
"688 165 CURVE"
);
}
);
width = 1035;
}
);
},
{
glyphname = uni0721.Init.SYRJ;
lastChange = "2018-09-11 18:35:11 +0000";
layers = (
{
anchors = (
{
name = Anchor123;
position = "{421, -98}";
},
{
name = Anchor125;
position = "{438, 603}";
}
);
layerId = "5079F400-2279-4A14-BBD5-92ED0538B068";
paths = (
{
closed = 1;
nodes = (
"11 453 LINE",
"240 195 LINE",
"236 186 OFFCURVE",
"189 185 OFFCURVE",
"160 185 CURVE SMOOTH",
"0 185 LINE SMOOTH",
"-24 185 OFFCURVE",
"-38 141 OFFCURVE",
"-38 92 CURVE SMOOTH",
"-38 42 OFFCURVE",
"-24 0 OFFCURVE",
"0 0 CURVE SMOOTH",
"91 0 LINE SMOOTH",
"196 0 OFFCURVE",
"296 13 OFFCURVE",
"356 57 CURVE",
"360 57 LINE",
"414 11 OFFCURVE",
"479 -4 OFFCURVE",
"538 -4 CURVE SMOOTH",
"668 -4 OFFCURVE",
"770 100 OFFCURVE",
"770 236 CURVE SMOOTH",
"770 378 OFFCURVE",
"662 500 OFFCURVE",
"509 500 CURVE SMOOTH",
"411 500 OFFCURVE",
"341 437 OFFCURVE",
"317 372 CURVE SMOOTH",
"315 367 OFFCURVE",
"312 358 OFFCURVE",
"311 352 CURVE",
"306 352 LINE",
"286 374 OFFCURVE",
"272 391 OFFCURVE",
"255 411 CURVE SMOOTH",
"132 555 LINE"
);
},
{
closed = 1;
nodes = (
"477 185 OFFCURVE",
"411 217 OFFCURVE",
"411 268 CURVE SMOOTH",
"411 318 OFFCURVE",
"461 342 OFFCURVE",
"510 342 CURVE SMOOTH",
"582 342 OFFCURVE",
"618 299 OFFCURVE",
"618 258 CURVE SMOOTH",
"618 206 OFFCURVE",
"577 185 OFFCURVE",
"526 185 CURVE SMOOTH"
);
}
);
width = 820;
}
);
},
{
glyphname = uni0721.Init.SYRN;
lastChange = "2018-09-11 18:35:11 +0000";
layers = (
{
anchors = (
{
name = Anchor66;
position = "{355, -98}";
},
{
name = Anchor68;
position = "{554, 610}";
}
);
layerId = "5079F400-2279-4A14-BBD5-92ED0538B068";
paths = (
{
closed = 1;
nodes = (
"299 0 LINE",
"339 81 LINE",
"341 81 LINE",
"383 17 OFFCURVE",
"454 -5 OFFCURVE",
"537 -5 CURVE SMOOTH",
"713 -5 OFFCURVE",
"800 105 OFFCURVE",
"800 241 CURVE SMOOTH",
"800 322 OFFCURVE",
"774 386 OFFCURVE",
"731 430 CURVE SMOOTH",
"688 475 OFFCURVE",
"630 499 OFFCURVE",
"564 499 CURVE SMOOTH",
"515 499 OFFCURVE",
"475 489 OFFCURVE",
"441 473 CURVE SMOOTH",
"408 457 OFFCURVE",
"382 434 OFFCURVE",
"362 407 CURVE",
"252 497 LINE SMOOTH",
"219 524 OFFCURVE",
"161 574 OFFCURVE",
"135 598 CURVE",
"27 462 LINE",
"81 406 OFFCURVE",
"168 340 OFFCURVE",
"238 289 CURVE SMOOTH",
"299 244 LINE",
"297 234 OFFCURVE",
"297 226 OFFCURVE",
"297 222 CURVE SMOOTH",
"297 215 OFFCURVE",
"298 198 OFFCURVE",
"302 185 CURVE",
"0 185 LINE SMOOTH",
"-24 185 OFFCURVE",
"-40 141 OFFCURVE",
"-40 92 CURVE SMOOTH",
"-40 42 OFFCURVE",
"-24 0 OFFCURVE",
"0 0 CURVE SMOOTH"
);
},
{
closed = 1;
nodes = (
"641 199 OFFCURVE",
"610 161 OFFCURVE",
"544 161 CURVE SMOOTH",
"482 161 OFFCURVE",
"450 197 OFFCURVE",
"450 243 CURVE SMOOTH",
"450 294 OFFCURVE",
"485 341 OFFCURVE",
"546 341 CURVE SMOOTH",
"596 341 OFFCURVE",
"641 305 OFFCURVE",
"641 244 CURVE SMOOTH"
);
}
);
width = 858;
}
);
},
{
glyphname = uni0722;
lastChange = "2018-09-11 18:35:11 +0000";
layers = (
{
anchors = (
{
name = Anchor6;
position = "{175, -170}";
},
{
name = Anchor8;
position = "{215, 434}";
}
);
layerId = "5079F400-2279-4A14-BBD5-92ED0538B068";
paths = (
{
closed = 1;
nodes = (
"1314 -183 LINE",
"978 -92 OFFCURVE",
"653 21 OFFCURVE",
"468 96 CURVE SMOOTH",
"413 118 OFFCURVE",
"371 136 OFFCURVE",
"300 170 CURVE SMOOTH",
"233 202 OFFCURVE",
"186 223 OFFCURVE",
"136 223 CURVE SMOOTH",
"91 223 OFFCURVE",
"49 186 OFFCURVE",
"49 125 CURVE SMOOTH",
"49 80 OFFCURVE",
"74 55 OFFCURVE",
"113 32 CURVE SMOOTH",
"175 -5 OFFCURVE",
"332 -54 OFFCURVE",
"458 -89 CURVE SMOOTH",
"649 -142 OFFCURVE",
"892 -218 OFFCURVE",
"1274 -321 CURVE"
);
}
);
width = 895;
}
);
unicode = 0722;
},
{
glyphname = uni0722.SYRJ;
lastChange = "2018-09-11 18:35:11 +0000";
layers = (
{
anchors = (
{
name = Anchor123;
position = "{254, -387}";
},
{
name = Anchor125;
position = "{239, 503}";
}
);
layerId = "5079F400-2279-4A14-BBD5-92ED0538B068";
paths = (
{
closed = 1;
nodes = (
"618 -316 LINE",
"462 -115 OFFCURVE",
"285 139 OFFCURVE",
"168 316 CURVE",
"28 219 LINE",
"106 93 OFFCURVE",
"410 -327 OFFCURVE",
"486 -410 CURVE"
);
}
);
width = 481;
}
);
},
{
glyphname = uni0722.SYRN;
lastChange = "2018-09-11 18:35:11 +0000";
layers = (
{
anchors = (
{
name = Anchor66;
position = "{179, -184}";
},
{
name = Anchor68;
position = "{239, 438}";
}
);
layerId = "5079F400-2279-4A14-BBD5-92ED0538B068";
paths = (
{
closed = 1;
nodes = (
"782 -403 LINE",
"883 -287 LINE",
"817 -226 OFFCURVE",
"706 -131 OFFCURVE",
"602 -45 CURVE SMOOTH",
"499 41 OFFCURVE",
"402 120 OFFCURVE",
"365 150 CURVE SMOOTH",
"204 280 LINE",
"48 93 LINE",
"205 -37 LINE",
"252 15 LINE"
);
}
);
width = 597;
}
);
},
{
glyphname = uni0722.Fina;
lastChange = "2018-09-11 18:35:11 +0000";
layers = (
{
anchors = (
{
name = Anchor6;
position = "{106, -425}";
},
{
name = Anchor8;
position = "{110, 400}";
}
);
layerId = "5079F400-2279-4A14-BBD5-92ED0538B068";
paths = (
{
closed = 1;
nodes = (
"450 -355 LINE",
"350 -213 OFFCURVE",
"232 -18 OFFCURVE",
"219 26 CURVE",
"226 32 LINE",
"267 15 OFFCURVE",
"316 0 OFFCURVE",
"374 0 CURVE",
"374 185 LINE",
"356 185 OFFCURVE",
"309 186 OFFCURVE",
"265 195 CURVE SMOOTH",
"213 206 OFFCURVE",
"183 211 OFFCURVE",
"161 211 CURVE SMOOTH",
"103 211 OFFCURVE",
"50 169 OFFCURVE",
"50 69 CURVE SMOOTH",
"50 27 OFFCURVE",
"57 -5 OFFCURVE",
"69 -36 CURVE SMOOTH",
"114 -156 OFFCURVE",
"215 -299 OFFCURVE",
"331 -443 CURVE"
);
}
);
width = 374;
}
);
},
{
glyphname = uni0722.Fina.SYRJ;
lastChange = "2018-09-11 18:35:11 +0000";
layers = (
{
anchors = (
{
name = Anchor123;
position = "{154, -417}";
},
{
name = Anchor125;
position = "{149, 474}";
}
);
layerId = "5079F400-2279-4A14-BBD5-92ED0538B068";
paths = (
{
closed = 1;
nodes = (
"490 -322 LINE",
"399 -212 OFFCURVE",
"269 -36 OFFCURVE",
"220 34 CURVE",
"226 37 LINE",
"270 5 OFFCURVE",
"314 0 OFFCURVE",
"362 0 CURVE SMOOTH",
"366 0 LINE",
"366 185 LINE",
"341 185 LINE SMOOTH",
"320 185 OFFCURVE",
"288 186 OFFCURVE",
"265 193 CURVE SMOOTH",
"249 198 OFFCURVE",
"240 203 OFFCURVE",
"210 227 CURVE SMOOTH",
"183 249 OFFCURVE",
"162 254 OFFCURVE",
"130 254 CURVE SMOOTH",
"58 254 OFFCURVE",
"25 191 OFFCURVE",
"25 111 CURVE SMOOTH",
"25 50 OFFCURVE",
"65 -29 OFFCURVE",
"97 -76 CURVE SMOOTH",
"182 -199 OFFCURVE",
"280 -317 OFFCURVE",
"368 -410 CURVE"
);
}
);
width = 366;
}
);
},
{
glyphname = uni0722.Fina.SYRN;
lastChange = "2018-09-11 18:35:11 +0000";
layers = (
{
anchors = (
{
name = Anchor66;
position = "{151, -465}";
},
{
name = Anchor68;
position = "{159, 449}";
}
);
layerId = "5079F400-2279-4A14-BBD5-92ED0538B068";
paths = (
{
closed = 1;
nodes = (
"344 -321 LINE",
"297 -267 OFFCURVE",
"262 -211 OFFCURVE",
"238 -155 CURVE SMOOTH",
"214 -99 OFFCURVE",
"203 -42 OFFCURVE",
"203 15 CURVE SMOOTH",
"203 23 OFFCURVE",
"204 32 OFFCURVE",
"205 40 CURVE",
"209 40 LINE",
"242 14 OFFCURVE",
"269 0 OFFCURVE",
"345 0 CURVE",
"345 185 LINE",
"281 185 OFFCURVE",
"244 204 OFFCURVE",
"214 250 CURVE",
"75 250 LINE",
"51 199 OFFCURVE",
"38 111 OFFCURVE",
"38 47 CURVE SMOOTH",
"38 -141 OFFCURVE",
"95 -293 OFFCURVE",
"227 -414 CURVE"
);
}
);
width = 345;
}
);
},
{
glyphname = uni0722.Medi;
lastChange = "2018-09-11 18:35:11 +0000";
layers = (
{
anchors = (
{
name = Anchor6;
position = "{166, -97}";
},
{
name = Anchor8;
position = "{143, 607}";
}
);
layerId = "5079F400-2279-4A14-BBD5-92ED0538B068";
paths = (
{
closed = 1;
nodes = (
"380 185 LINE",
"320 185 OFFCURVE",
"297 189 OFFCURVE",
"286 249 CURVE SMOOTH",
"276 304 OFFCURVE",
"260 414 OFFCURVE",
"246 506 CURVE",
"84 478 LINE",
"93 410 OFFCURVE",
"112 299 OFFCURVE",
"124 238 CURVE SMOOTH",
"128 220 OFFCURVE",
"130 206 OFFCURVE",
"132 199 CURVE",
"118 186 OFFCURVE",
"59 185 OFFCURVE",
"37 185 CURVE SMOOTH",
"0 185 LINE SMOOTH",
"-24 185 OFFCURVE",
"-40 141 OFFCURVE",
"-40 92 CURVE SMOOTH",
"-40 42 OFFCURVE",
"-24 0 OFFCURVE",
"0 0 CURVE SMOOTH",
"12 0 LINE SMOOTH",
"83 0 OFFCURVE",
"162 9 OFFCURVE",
"209 41 CURVE",
"213 41 LINE",
"256 6 OFFCURVE",
"301 0 OFFCURVE",
"380 0 CURVE"
);
}
);
width = 380;
}
);
},
{
glyphname = uni0722.Medi.SYRJ;
lastChange = "2018-09-11 18:35:11 +0000";
layers = (
{
anchors = (
{
name = Anchor123;
position = "{213, -98}";
},
{
name = Anchor125;
position = "{205, 576}";
}
);
layerId = "5079F400-2279-4A14-BBD5-92ED0538B068";
paths = (
{
closed = 1;
nodes = (
"422 185 LINE",
"361 185 OFFCURVE",
"321 194 OFFCURVE",
"304 210 CURVE",
"309 235 OFFCURVE",
"311 287 OFFCURVE",
"311 305 CURVE SMOOTH",
"311 333 OFFCURVE",
"309 410 OFFCURVE",
"300 454 CURVE",
"144 440 LINE",
"148 389 OFFCURVE",
"149 349 OFFCURVE",
"149 316 CURVE SMOOTH",
"149 290 OFFCURVE",
"149 248 OFFCURVE",
"135 224 CURVE SMOOTH",
"120 198 OFFCURVE",
"96 185 OFFCURVE",
"48 185 CURVE SMOOTH",
"0 185 LINE SMOOTH",
"-24 185 OFFCURVE",
"-38 141 OFFCURVE",
"-38 92 CURVE SMOOTH",
"-38 42 OFFCURVE",
"-24 0 OFFCURVE",
"0 0 CURVE SMOOTH",
"20 0 LINE SMOOTH",
"125 0 OFFCURVE",
"184 24 OFFCURVE",
"229 63 CURVE",
"271 25 OFFCURVE",
"340 0 OFFCURVE",
"422 0 CURVE"
);
}
);
width = 422;
}
);
},
{
glyphname = uni0722.Medi.SYRN;
lastChange = "2018-09-11 18:35:11 +0000";
layers = (
{
anchors = (
{
name = Anchor66;
position = "{177, -98}";
},
{
name = Anchor68;
position = "{207, 598}";
}
);
layerId = "5079F400-2279-4A14-BBD5-92ED0538B068";
paths = (
{
closed = 1;
nodes = (
"420 185 LINE",
"369 185 OFFCURVE",
"354 209 OFFCURVE",
"342 240 CURVE SMOOTH",
"328 275 OFFCURVE",
"322 321 OFFCURVE",
"322 435 CURVE SMOOTH",
"322 500 LINE",
"249 500 LINE SMOOTH",
"220 500 OFFCURVE",
"144 501 OFFCURVE",
"116 504 CURVE",
"116 333 LINE",
"143 330 OFFCURVE",
"154 329 OFFCURVE",
"164 329 CURVE SMOOTH",
"171 329 LINE",
"173 301 OFFCURVE",
"175 274 OFFCURVE",
"178 249 CURVE SMOOTH",
"181 224 OFFCURVE",
"185 202 OFFCURVE",
"190 185 CURVE",
"0 185 LINE SMOOTH",
"-24 185 OFFCURVE",
"-40 141 OFFCURVE",
"-40 92 CURVE SMOOTH",
"-40 42 OFFCURVE",
"-24 0 OFFCURVE",
"0 0 CURVE SMOOTH",
"191 0 LINE",
"229 81 LINE",
"233 81 LINE",
"278 5 OFFCURVE",
"353 0 OFFCURVE",
"420 0 CURVE"
);
}
);
width = 420;
}
);
},
{
glyphname = uni0722.Init;
lastChange = "2018-09-11 18:35:11 +0000";
layers = (
{
anchors = (
{
name = Anchor6;
position = "{132, -97}";
},
{
name = Anchor8;
position = "{129, 606}";
}
);
layerId = "5079F400-2279-4A14-BBD5-92ED0538B068";
paths = (
{
closed = 1;
nodes = (
"278 258 OFFCURVE",
"263 372 OFFCURVE",
"235 507 CURVE",
"67 479 LINE",
"92 364 OFFCURVE",
"117 240 OFFCURVE",
"125 189 CURVE",
"118 187 OFFCURVE",
"90 185 OFFCURVE",
"51 185 CURVE SMOOTH",
"0 185 LINE SMOOTH",
"-24 185 OFFCURVE",
"-40 141 OFFCURVE",
"-40 92 CURVE SMOOTH",
"-40 42 OFFCURVE",
"-24 0 OFFCURVE",
"0 0 CURVE SMOOTH",
"48 0 LINE SMOOTH",
"99 0 OFFCURVE",
"143 3 OFFCURVE",
"173 14 CURVE SMOOTH",
"241 38 OFFCURVE",
"278 87 OFFCURVE",
"278 179 CURVE SMOOTH"
);
}
);
width = 346;
}
);
},
{
glyphname = uni0722.Init.SYRJ;
lastChange = "2018-09-11 18:35:11 +0000";
layers = (
{
anchors = (
{
name = Anchor123;
position = "{202, -98}";
},
{
name = Anchor125;
position = "{206, 575}";
}
);
layerId = "5079F400-2279-4A14-BBD5-92ED0538B068";
paths = (
{
closed = 1;
nodes = (
"144 440 LINE",
"148 389 OFFCURVE",
"149 344 OFFCURVE",
"149 316 CURVE SMOOTH",
"149 290 OFFCURVE",
"149 248 OFFCURVE",
"135 224 CURVE SMOOTH",
"120 198 OFFCURVE",
"96 185 OFFCURVE",
"48 185 CURVE SMOOTH",
"0 185 LINE SMOOTH",
"-24 185 OFFCURVE",
"-38 141 OFFCURVE",
"-38 92 CURVE SMOOTH",
"-38 42 OFFCURVE",
"-24 0 OFFCURVE",
"0 0 CURVE SMOOTH",
"44 0 LINE SMOOTH",
"152 0 OFFCURVE",
"233 48 OFFCURVE",
"274 121 CURVE SMOOTH",
"304 174 OFFCURVE",
"311 239 OFFCURVE",
"311 305 CURVE SMOOTH",
"311 333 OFFCURVE",
"309 410 OFFCURVE",
"300 454 CURVE"
);
}
);
width = 386;
}
);
},
{
glyphname = uni0722.Init.SYRN;
lastChange = "2018-09-11 18:35:11 +0000";
layers = (
{
anchors = (
{
name = Anchor66;
position = "{178, -97}";
},
{
name = Anchor68;
position = "{203, 597}";
}
);
layerId = "5079F400-2279-4A14-BBD5-92ED0538B068";
paths = (
{
closed = 1;
nodes = (
"304 0 LINE",
"376 130 LINE",
"365 160 OFFCURVE",
"355 193 OFFCURVE",
"347 226 CURVE SMOOTH",
"330 296 OFFCURVE",
"322 367 OFFCURVE",
"322 435 CURVE SMOOTH",
"322 500 LINE",
"249 500 LINE SMOOTH",
"220 500 OFFCURVE",
"144 501 OFFCURVE",
"116 504 CURVE",
"116 333 LINE",
"143 330 OFFCURVE",
"154 329 OFFCURVE",
"164 329 CURVE SMOOTH",
"171 329 LINE",
"173 302 OFFCURVE",
"176 275 OFFCURVE",
"180 250 CURVE SMOOTH",
"184 226 OFFCURVE",
"189 204 OFFCURVE",
"194 185 CURVE",
"0 185 LINE SMOOTH",
"-24 185 OFFCURVE",
"-40 141 OFFCURVE",
"-40 92 CURVE SMOOTH",
"-40 42 OFFCURVE",
"-24 0 OFFCURVE",
"0 0 CURVE SMOOTH"
);
}
);
width = 434;
}
);
},
